<svg width="2360" height="2360" viewBox="0 0 2360 2360" fill="none" xmlns="http://www.w3.org/2000/svg">
<g clip-path="url(#clip0_29_210)">
<rect width="2360" height="2360" rx="1180" fill="white"/>
<path d="M2008.02 1573.9C1920.6 1507.82 1996.68 1428.26 2087.45 1471.79C2178.23 1515.32 2085.62 1632.55 2008.02 1573.9Z" fill="#E9F3FF"/>
<path d="M-238.988 2493.15C-238.988 2493.15 -246.548 2018.38 124.164 1910.6C124.164 1910.6 105.265 1787.64 226.275 1778.19C226.275 1778.19 52.2892 1517.15 269.802 1299.63C487.316 1082.12 631.065 1229.65 631.065 1229.65C631.065 1229.65 627.285 1169.11 702.939 1153.99C702.939 1153.99 1240.08 870.275 1393.34 1382.85C1393.34 1382.85 1576.83 1295.85 1722.47 1422.59C1868.11 1549.33 1801.91 1672.23 1801.91 1672.23C1801.91 1672.23 1870 1615.48 1892.68 1691.13C1892.68 1691.13 2393.85 1544.33 2476.15 2093.42C2476.15 2093.42 2575.52 2071.29 2520.65 2211.26C2520.65 2211.26 2598.19 2228.27 2598.19 2511.99L-238.988 2493.15Z" fill="#E9F3FF"/>
<path d="M1823.12 2594.17L2012.22 2443.04C2012.22 2443.04 1978.88 2380.13 1931.33 2396.34C1883.78 2412.56 1960.65 2193.7 1896.58 2201.39C1832.45 2209.01 1787.88 2247.11 1804.16 2137.25C1820.44 2027.4 1733.63 2058.06 1711.44 2087.87C1689.25 2117.68 1637.67 1868.35 1570 1944.25C1502.34 2020.14 1690.1 2194.5 1647.24 2216.63C1604.39 2238.76 1598.47 2291.91 1658.09 2348.37C1717.72 2404.82 1604.94 2354.58 1600.49 2394.39C1593.35 2458.22 1659.74 2508.39 1726.25 2545.7C1792.09 2582.64 1680.77 2579.66 1723.26 2620.74C1765.75 2661.83 1823.12 2594.17 1823.12 2594.17Z" fill="white" stroke="#0B193A" stroke-miterlimit="10"/>
<path d="M1592.99 1979.06C1592.99 1979.06 1832.63 2409.82 1851.77 2571.24" stroke="#345391" stroke-width="2" stroke-miterlimit="10" stroke-linecap="round"/>
<path d="M1626.03 2117.32L1711.56 2207.18L1753.62 2095.25" stroke="#345391" stroke-width="2" stroke-miterlimit="10" stroke-linecap="round"/>
<path d="M1654.62 2271.25L1771.06 2334.41L1879.39 2234.43" stroke="#345391" stroke-width="2" stroke-miterlimit="10" stroke-linecap="round"/>
<path d="M42.6566 2514.85C42.6566 2514.85 -27.2671 2421.34 57.7142 2421.28C142.696 2421.22 -80.1823 2263.63 2.84822 2234.18C85.8788 2204.74 84.4157 2297.04 133.185 2286.06C181.955 2275.09 5.7744 2035.87 234.261 2019.54C462.808 2003.2 192.197 2415.55 324.424 2526.86C456.651 2638.18 42.6566 2514.85 42.6566 2514.85Z" fill="white" stroke="#0B193A" stroke-miterlimit="10"/>
<path d="M245.6 2066.17C245.6 2066.17 150.804 2274.36 240.845 2548.14" stroke="#345391" stroke-width="2" stroke-miterlimit="10" stroke-linecap="round"/>
<path d="M185.248 2078.85L210.608 2196.87L309.306 2123.42" stroke="#345391" stroke-width="2" stroke-miterlimit="10" stroke-linecap="round"/>
<path d="M270.166 2257.9L202.742 2341.23" stroke="#345391" stroke-width="2" stroke-miterlimit="10" stroke-linecap="round"/>
<path d="M34.3047 2273.5C34.3047 2273.5 77.7098 2369.89 212.924 2452" stroke="#345391" stroke-width="2" stroke-miterlimit="10" stroke-linecap="round"/>
<path d="M101.119 2293.19L102.277 2364.89" stroke="#345391" stroke-width="2" stroke-miterlimit="10" stroke-linecap="round"/>
<path d="M594 2511.81C422.574 2469.56 311.623 2281.79 480.366 2287.65C649.11 2293.5 279.679 1998.93 477.379 1986.55C675.141 1974.24 429.585 1697.65 635.332 1737.83C841.019 1778 685.077 1436.74 840.775 1547.69C996.473 1658.64 722.508 1887.25 806.941 1951.87C891.374 2016.43 954.47 1860.79 1004.76 2000.15C1055 2139.51 754.452 2176.21 809.928 2248.88C865.404 2321.54 983.853 2145.61 1010.31 2238.57C1036.77 2331.48 783.775 2442.92 783.836 2525.77C783.958 2608.55 594 2511.81 594 2511.81Z" fill="white" stroke="#0B193A" stroke-miterlimit="10"/>
<path d="M807.367 1554.09C807.367 1554.09 784.567 1752.7 704.036 1865.3C623.505 1977.9 618.262 2405.91 618.262 2405.91" stroke="#345391" stroke-width="2" stroke-miterlimit="10" stroke-linecap="round"/>
<path d="M631.979 1774.89L693.368 1882.86L807.672 1816.59" stroke="#345391" stroke-width="2" stroke-miterlimit="10" stroke-linecap="round"/>
<path d="M873.696 1640.05L771.035 1720.82" stroke="#345391" stroke-width="2" stroke-miterlimit="10" stroke-linecap="round"/>
<path d="M502.678 2024.35L632.405 2163.16L902.895 2030.51" stroke="#345391" stroke-width="2" stroke-miterlimit="10" stroke-linecap="round"/>
<path d="M822.243 2010.76L785.787 2087.93L859.795 2105.55" stroke="#345391" stroke-width="2" stroke-miterlimit="10" stroke-linecap="round"/>
<path d="M454.092 2328.86L618.263 2381.65" stroke="#345391" stroke-width="2" stroke-miterlimit="10" stroke-linecap="round"/>
<path d="M624.727 2398.05C510.788 2430.06 361.065 2336.11 456.288 2279.11C551.511 2222.11 209.574 2145.61 312.051 2065.07C414.529 1984.54 149.038 1875.97 280.717 1830.06C412.395 1784.16 165.315 1596.88 303.151 1619.68C440.987 1642.48 399.227 1905.23 476.101 1920.72C552.974 1936.2 513.776 1802.08 607.353 1883.47C700.93 1964.79 553.645 2100.07 618.448 2131.89C683.251 2163.71 664.779 1995.03 723.303 2051.85C781.826 2108.66 695.992 2280.03 735.312 2339.16C774.633 2398.29 624.727 2398.05 624.727 2398.05Z" fill="#20C6BA"/>
<path d="M287.85 1636.33C287.85 1636.33 369.417 1786.48 378.683 1896.15C387.95 2005.82 587.845 2313.56 587.845 2313.56" stroke="#345391" stroke-width="2" stroke-miterlimit="10" stroke-linecap="round"/>
<path d="M296.445 1857.74L381.183 1912.61L412.396 1823.85" stroke="#345391" stroke-width="2" stroke-miterlimit="10" stroke-linecap="round"/>
<path d="M364.905 1673.7L346.982 1768.68" stroke="#345391" stroke-width="2" stroke-miterlimit="10" stroke-linecap="round"/>
<path d="M343.752 2082.88L480.612 2135L565.898 1942.11" stroke="#345391" stroke-width="2" stroke-miterlimit="10" stroke-linecap="round"/>
<path d="M512.373 1957.23L528.955 2025.63L577.847 2011.37" stroke="#345391" stroke-width="2" stroke-miterlimit="10" stroke-linecap="round"/>
<path d="M461.408 2318.07L576.322 2296.24" stroke="#345391" stroke-width="2" stroke-miterlimit="10" stroke-linecap="round"/>
<path d="M-32.2639 2512.35C-32.2639 2512.35 -97.6155 2452.18 -44.9441 2432.13C7.72728 2412.07 -167.478 2335.5 -122.976 2291.73C-78.4733 2247.96 -57.6242 2323.98 -30.0693 2303.5C-2.4534 2282.95 -167.905 2128.48 -30.1912 2061.17C107.462 1993.81 36.9892 2395.67 145.075 2455.66C253.161 2515.65 -32.2639 2512.35 -32.2639 2512.35Z" fill="#20C6BA"/>
<path d="M-12.2076 2096.71C-12.2076 2096.71 -21.9006 2289.72 98.3169 2492.85" stroke="#345391" stroke-width="2" stroke-miterlimit="10" stroke-linecap="round"/>
<path d="M-46.6504 2121.34L-3.12336 2212.12L40.7085 2128.6" stroke="#345391" stroke-width="2" stroke-miterlimit="10" stroke-linecap="round"/>
<path d="M48.0839 2248.02L26.0156 2332.27" stroke="#345391" stroke-width="2" stroke-miterlimit="10" stroke-linecap="round"/>
<path d="M-94.2617 2316.54C-94.2617 2316.54 -44.6994 2385.31 58.3877 2420.67" stroke="#345391" stroke-width="2" stroke-miterlimit="10" stroke-linecap="round"/>
<path d="M1997.66 1154.91H1954.13V2459.99H1997.66V1154.91Z" fill="white" stroke="black" stroke-width="3" stroke-miterlimit="10"/>
<path d="M2174.51 2504.49H2416.59C2416.59 2504.49 2429.82 2434.51 2382.57 2417.5C2335.26 2400.49 2531.99 2277.53 2477.12 2243.51C2422.26 2209.49 2363.61 2211.38 2445 2135.67C2526.32 2060.01 2439.33 2029.78 2403.36 2039.23C2367.39 2048.68 2482.79 1821.71 2382.57 1838.72C2282.35 1855.73 2320.15 2109.21 2272.84 2099.76C2225.53 2090.31 2187.74 2128.11 2199.07 2209.49C2210.41 2290.88 2153.66 2181.15 2125.31 2209.49C2079.89 2254.91 2100.44 2335.56 2129.09 2406.22C2157.44 2476.2 2072.33 2404.33 2079.89 2462.97C2087.51 2521.5 2174.51 2504.49 2174.51 2504.49Z" fill="#20C6BA"/>
<path d="M2378.79 1880.3C2378.79 1880.3 2297.04 2366.41 2211.21 2504.49" stroke="#345391" stroke-width="2" stroke-miterlimit="10" stroke-linecap="round"/>
<path d="M2318.26 2008.93L2328.99 2132.56L2431.71 2071.35" stroke="#345391" stroke-width="2" stroke-miterlimit="10" stroke-linecap="round"/>
<path d="M2244.49 2147.01L2296.07 2268.99L2443.05 2258.57" stroke="#345391" stroke-width="2" stroke-miterlimit="10" stroke-linecap="round"/>
<path d="M2170.73 2269.91L2254.12 2408.29L2375.01 2385.31" stroke="#345391" stroke-width="2" stroke-miterlimit="10" stroke-linecap="round"/>
<path d="M1677.3 2460.05C1649.19 2371.23 1566.16 2306.85 1468.08 2306.85H588.512C490.424 2306.85 407.333 2371.23 379.29 2460.05H-238.014V2641.66H2597.22V2460.05H1677.3Z" fill="#345391"/>
<path d="M1081.27 2408.05C1246.31 2408.05 1380.11 2387.71 1380.11 2362.63C1380.11 2337.55 1246.31 2317.21 1081.27 2317.21C916.227 2317.21 782.434 2337.55 782.434 2362.63C782.434 2387.71 916.227 2408.05 1081.27 2408.05Z" fill="#1E3E72"/>
<path d="M881.557 1507.7H649.169C632.892 1507.7 619.725 1494.53 619.725 1478.25V1080.66C619.725 1050.11 644.475 1025.36 675.017 1025.36H881.557C897.834 1025.36 911.002 1038.53 911.002 1054.81V1478.25C911.002 1494.53 897.834 1507.7 881.557 1507.7Z" fill="#0B193A"/>
<path d="M1159.73 2253.87C1159.73 2253.87 1133.27 2348.43 1150.28 2361.66C1167.29 2374.88 1318.6 2399.51 1343.23 2386.22C1367.79 2372.99 1229.71 2306.79 1229.71 2306.79L1233.49 2261.37L1159.73 2253.87Z" fill="white" stroke="#0B193A" stroke-miterlimit="10"/>
<path d="M853.333 2253.87C853.333 2253.87 826.876 2348.43 843.884 2361.66C860.893 2374.88 1012.2 2399.51 1036.83 2386.22C1061.4 2372.99 923.318 2306.79 923.318 2306.79L927.098 2261.37L853.333 2253.87Z" fill="white" stroke="#0B193A" stroke-miterlimit="10"/>
<path d="M876.987 1424.48C876.987 1424.48 838.276 1553.24 848.639 1628.77C873.207 1808.42 831.631 2288.87 831.631 2288.87L960.261 2298.32C960.261 2298.32 1024.58 1838.72 1032.14 1676.01C1084.56 1840.43 1116.02 2021.85 1124.8 2298.32H1266.66C1266.66 2298.32 1240.2 1861.4 1179.66 1636.33C1130.71 1454.17 1124.8 1398.03 1124.8 1398.03L876.987 1424.48Z" fill="#0B193A"/>
<path d="M1416.99 1240.07L1502.09 1190.88L1511.54 1069.8L1401.87 1120.89L1393.89 1224.77L1416.99 1240.07Z" fill="#FF9933"/>
<path d="M1409.43 1025.06V1186.24C1409.43 1194.05 1415.77 1200.32 1423.51 1200.32H1506.91C1514.71 1200.32 1520.99 1193.98 1520.99 1186.24V1023.66C1520.99 1015.79 1514.53 1009.39 1506.66 1009.57L1423.27 1010.98C1415.59 1011.1 1409.43 1017.38 1409.43 1025.06Z" fill="#0B193A"/>
<path d="M1418.82 1033.35V1177.71C1418.82 1185.51 1425.16 1191.79 1432.9 1191.79H1497.52C1505.32 1191.79 1511.6 1185.45 1511.6 1177.71V1032.19C1511.6 1024.33 1505.14 1017.93 1497.22 1018.11L1432.6 1019.33C1424.98 1019.39 1418.82 1025.67 1418.82 1033.35Z" fill="white" stroke="black" stroke-miterlimit="10"/>
<path d="M1381.02 1209.77C1381.02 1209.77 1382.91 1168.14 1381.02 1130.34C1379.13 1092.48 1388.58 1101.99 1415.04 1096.32C1441.5 1090.65 1443.39 1122.78 1409.37 1130.34C1425.95 1146.13 1432.05 1166.73 1409.37 1200.32L1411.26 1241.96L1381.02 1209.77Z" fill="#FF9933"/>
<path d="M1101.08 1073.58L1252.39 1298.66L1369.68 1185.15L1430.22 1238.12C1430.22 1238.12 1343.23 1417.78 1252.45 1395.1C1161.68 1372.42 1050.06 1209.71 1050.06 1209.71L1101.08 1073.58Z" fill="white" stroke="#0B193A" stroke-width="2" stroke-miterlimit="10"/>
<path d="M1052.31 1364.68L1032.62 1349.93C1066.15 1305.18 1147.54 1176.43 1121.99 1118.27C1091.82 1049.57 992.998 1053.65 992.022 1053.71L990.742 1029.14C995.497 1028.9 1107.48 1024.02 1144.49 1108.33C1160.22 1144.12 1149.06 1198.5 1111.51 1270.07C1084.44 1321.7 1053.59 1362.97 1052.31 1364.68Z" fill="#0B193A"/>
<path d="M841.994 1067.91C841.994 1067.91 739.882 1030.06 762.56 950.623C785.238 871.19 1084.07 1020.61 1101.14 1073.58C1118.15 1126.56 1139 1442.41 1139 1442.41L836.385 1453.74L841.994 1067.91Z" fill="white" stroke="#0B193A" stroke-width="2" stroke-miterlimit="10"/>
<path d="M1023.54 801.205L1042.44 913.741L1032.99 1076.39C1032.99 1076.39 989.462 1092.54 945.995 1069.01V953.55C945.995 953.55 893.019 867.227 906.248 824.127C919.538 780.966 1023.54 801.205 1023.54 801.205Z" fill="#FF9933"/>
<path d="M998.971 1291.1L947.885 1397.05L955.444 1423.51H1094.5L1106.75 1389.49L1074.63 1291.1H998.971Z" stroke="#0B193A" stroke-width="2" stroke-miterlimit="10"/>
<path d="M846.506 1411.5L826.145 1397.72C860.345 1347.18 943.436 1203.25 917.771 1144.73C887.595 1076.02 788.775 1080.11 787.8 1080.17L786.52 1055.6C791.275 1055.36 903.262 1050.48 940.266 1134.79C955.873 1170.39 944.534 1228.18 906.493 1306.58C878.999 1363.28 847.787 1409.55 846.506 1411.5Z" fill="#0B193A"/>
<path d="M904.42 884.479C891.679 832.479 828.766 782.307 911.98 754.447C911.98 754.447 921.429 689.705 976.295 719.577C976.295 719.577 981.964 661.48 1040.61 684.706C1099.26 707.933 1077.49 804.741 986.72 809.74C895.947 814.739 922.404 879.663 948.862 892.953C975.32 906.243 1037.74 883.504 1037.74 883.504C1037.74 883.504 1104.8 991.59 1053.84 1010C957.336 1044.87 927.098 977.386 904.42 884.479Z" fill="#0B193A"/>
<path d="M619.727 1307.92H653.804V1454.72" stroke="white" stroke-width="6" stroke-miterlimit="10"/>
<path d="M849.555 1330.85C849.555 1330.85 889.302 1274.09 923.319 1257.08C957.336 1240.07 970.626 1236.29 972.516 1249.52C974.405 1262.75 936.609 1266.53 932.768 1277.87C928.988 1289.21 976.295 1253.3 980.075 1268.42C983.854 1283.54 932.768 1294.88 938.438 1304.33C944.107 1313.78 983.854 1277.87 989.524 1289.21C995.193 1300.55 945.997 1315.67 947.887 1327.07C949.777 1338.4 981.904 1298.72 989.524 1315.73C997.144 1332.73 872.233 1374.37 872.233 1374.37L849.555 1330.85Z" fill="#FF9933"/>
<path d="M910.088 856.071C910.088 856.071 874.181 835.283 864.671 861.741C855.222 888.198 921.427 899.598 921.427 899.598L910.088 856.071Z" fill="#FF9933"/>
<path d="M838.214 1086.81C792.798 1098.15 588.574 1374.31 622.591 1482.09C656.608 1589.87 893.08 1372.36 893.08 1372.36L869.671 1299.39L756.891 1364.8C756.891 1364.8 902.53 1228.61 904.419 1171.86C906.309 1115.22 838.214 1086.81 838.214 1086.81Z" fill="white" stroke="#0B193A" stroke-width="2" stroke-miterlimit="10"/>
<path d="M877.9 1005.49C877.9 1005.49 914.539 1065.72 978.488 1081.02" stroke="#0B193A" stroke-width="2" stroke-miterlimit="10"/>
<path d="M1038.66 1047.13C1038.66 1047.13 1060.36 1075.54 1042.44 1092.54C1006.53 1126.56 928.926 1086.87 928.926 1086.87" stroke="#0B193A" stroke-width="2" stroke-miterlimit="10"/>
<path d="M748.356 1042.37C748.356 1042.37 716.229 1068.83 712.449 1235.32" stroke="white" stroke-width="6" stroke-miterlimit="10"/>
<path d="M989.523 1467.03C989.523 1467.03 968.735 1514.34 910.09 1527.57C910.09 1527.57 917.649 1813.18 904.42 1902.06C891.191 1990.94 874.305 2291.98 874.305 2291.98" stroke="white" stroke-miterlimit="10"/>
<path d="M1085.97 1512.39C1085.97 1512.39 1121.87 1576.71 1032.99 1673.15" stroke="white" stroke-miterlimit="10"/>
<path d="M990.437 930.811C988.669 930.811 986.962 930.018 985.803 928.433C983.975 925.873 984.523 922.337 987.084 920.508C988.303 919.655 1016.71 899.415 1043.17 913.315C1045.97 914.778 1047.01 918.192 1045.55 920.996C1044.08 923.8 1040.67 924.836 1037.87 923.373C1017.69 912.766 993.911 929.531 993.729 929.713C992.753 930.445 991.595 930.811 990.437 930.811Z" fill="#FF9933"/>
<path d="M1956.14 777.43L1681.69 1252.75C1672.91 1267.99 1683.88 1287.01 1701.44 1287.01H2250.34C2267.9 1287.01 2278.87 1267.99 2270.09 1252.75L1995.64 777.43C1986.86 762.25 1964.92 762.25 1956.14 777.43Z" fill="#FF9933" stroke="#0B193A" stroke-width="3" stroke-miterlimit="10"/>
<path d="M2008.57 1109.19C2005.15 1109.19 2001.8 1107.91 1999.18 1105.28C1992.96 1099.07 1984.67 1095.65 1975.83 1095.65C1966.99 1095.65 1958.7 1099.07 1952.48 1105.28C1947.3 1110.47 1938.95 1110.47 1933.77 1105.28C1928.59 1100.1 1928.59 1091.75 1933.77 1086.57C1944.98 1075.35 1959.92 1069.13 1975.83 1069.13C1991.74 1069.13 2006.68 1075.29 2017.9 1086.57C2023.08 1091.75 2023.08 1100.1 2017.9 1105.28C2015.4 1107.91 2011.98 1109.19 2008.57 1109.19Z" fill="#0B193A"/>
<path d="M2044.66 1073.16C2041.24 1073.16 2037.89 1071.88 2035.27 1069.26C2019.42 1053.41 1998.33 1044.63 1975.89 1044.63C1953.46 1044.63 1932.36 1053.34 1916.51 1069.26C1911.33 1074.44 1902.98 1074.44 1897.8 1069.26C1892.62 1064.07 1892.62 1055.72 1897.8 1050.54C1918.65 1029.69 1946.39 1018.17 1975.95 1018.17C2005.46 1018.17 2033.2 1029.69 2054.11 1050.54C2059.29 1055.72 2059.29 1064.07 2054.11 1069.26C2051.42 1071.88 2048.01 1073.16 2044.66 1073.16Z" fill="#0B193A"/>
<path d="M2087.51 1030.3C2084.1 1030.3 2080.75 1029.02 2078.13 1026.4C2050.81 999.089 2014.54 984.031 1975.89 984.031C1937.24 984.031 1900.97 999.089 1873.66 1026.4C1868.48 1031.58 1860.12 1031.58 1854.94 1026.4C1849.76 1021.22 1849.76 1012.87 1854.94 1007.68C1887.25 975.374 1930.17 957.573 1975.89 957.573C2021.61 957.573 2064.53 975.374 2096.84 1007.68C2102.02 1012.87 2102.02 1021.22 2096.84 1026.4C2094.28 1029.02 2090.87 1030.3 2087.51 1030.3Z" fill="#0B193A"/>
<path d="M1960.77 1138.88C1958.7 1138.88 1956.63 1138.39 1954.68 1137.35C1948.21 1134 1945.65 1125.95 1949.07 1119.49L2039.78 945.503C2043.19 939.041 2051.18 936.48 2057.64 939.894C2064.1 943.247 2066.66 951.294 2063.25 957.756L1972.48 1131.74C1970.16 1136.25 1965.53 1138.88 1960.77 1138.88Z" fill="#F8001B"/>
<path d="M1489.54 983.787C1486.43 983.787 1483.32 982.629 1480.94 980.251C1475.21 974.521 1467.65 971.412 1459.54 971.412C1451.44 971.412 1443.88 974.582 1438.15 980.251C1433.39 985.006 1425.71 985.006 1420.95 980.251C1416.2 975.496 1416.2 967.815 1420.95 963.06C1431.26 952.757 1444.97 947.088 1459.54 947.088C1474.11 947.088 1487.83 952.757 1498.13 963.06C1502.89 967.815 1502.89 975.496 1498.13 980.251C1495.76 982.568 1492.65 983.787 1489.54 983.787Z" fill="#9AB3CC"/>
<path d="M1522.58 950.685C1519.47 950.685 1516.36 949.526 1513.98 947.149C1499.47 932.579 1480.09 924.593 1459.54 924.593C1438.94 924.593 1419.61 932.579 1405.1 947.149C1400.35 951.904 1392.67 951.904 1387.91 947.149C1383.16 942.394 1383.16 934.712 1387.91 929.957C1407.05 910.815 1432.48 900.269 1459.54 900.269C1486.61 900.269 1512.09 910.815 1531.17 929.957C1535.93 934.712 1535.93 942.394 1531.17 947.149C1528.8 949.526 1525.69 950.685 1522.58 950.685Z" fill="#9AB3CC"/>
<path d="M1561.9 911.425C1558.79 911.425 1555.68 910.267 1553.3 907.889C1528.25 882.834 1494.96 869.056 1459.54 869.056C1424.13 869.056 1390.84 882.834 1365.78 907.889C1361.03 912.644 1353.35 912.644 1348.59 907.889C1343.84 903.134 1343.84 895.453 1348.59 890.698C1378.22 861.07 1417.6 844.732 1459.54 844.732C1501.49 844.732 1540.87 861.07 1570.5 890.698C1575.25 895.453 1575.25 903.134 1570.5 907.889C1568.12 910.206 1565.01 911.425 1561.9 911.425Z" fill="#9AB3CC"/>
<path d="M1793.55 1237.57H1781.6L1762.77 1198.19L1762.52 1198.25V1237.57H1750.45V1176H1762.52L1781.36 1215.32L1781.6 1215.26V1176H1793.55V1237.57Z" fill="#0B193A"/>
<path d="M1844.46 1215.44C1844.46 1222.64 1842.51 1228.31 1838.6 1232.39C1834.7 1236.48 1829.46 1238.49 1822.94 1238.49C1816.41 1238.49 1811.23 1236.48 1807.33 1232.39C1803.43 1228.31 1801.48 1222.7 1801.48 1215.44V1198.19C1801.48 1191 1803.43 1185.33 1807.33 1181.24C1811.23 1177.16 1816.41 1175.09 1822.88 1175.09C1829.34 1175.09 1834.58 1177.16 1838.54 1181.24C1842.51 1185.33 1844.46 1191 1844.46 1198.19V1215.44ZM1832.45 1198.07C1832.45 1193.68 1831.65 1190.33 1830.01 1188.07C1828.36 1185.82 1825.99 1184.72 1822.88 1184.72C1819.71 1184.72 1817.33 1185.82 1815.74 1188.07C1814.16 1190.33 1813.37 1193.62 1813.37 1198.07V1215.44C1813.37 1219.89 1814.16 1223.25 1815.8 1225.5C1817.39 1227.76 1819.77 1228.86 1822.94 1228.86C1826.05 1228.86 1828.42 1227.76 1830.07 1225.5C1831.72 1223.25 1832.51 1219.89 1832.51 1215.44V1198.07H1832.45Z" fill="#0B193A"/>
<path d="M1883.84 1237.57H1871.89V1176H1883.84V1237.57Z" fill="#0B193A"/>
<path d="M1936.94 1237.57H1924.99L1906.15 1198.19L1905.91 1198.25V1237.57H1893.84V1176H1905.91L1924.74 1215.32L1924.99 1215.26V1176H1936.94V1237.57Z" fill="#0B193A"/>
<path d="M1981.38 1185.57H1967.48V1237.57H1955.47V1185.57H1941.69V1176H1981.38V1185.57Z" fill="#0B193A"/>
<path d="M2019.91 1210.51H1999.24V1227.94H2023.56V1237.57H1987.17V1176H2023.44V1185.57H1999.18V1200.93H2019.84V1210.51H2019.91Z" fill="#0B193A"/>
<path d="M2041.85 1213.07V1237.57H2029.84V1176H2049.96C2056 1176 2060.75 1177.59 2064.23 1180.82C2067.7 1184.05 2069.41 1188.44 2069.41 1194.17C2069.41 1197.4 2068.68 1200.14 2067.27 1202.46C2065.81 1204.78 2063.74 1206.66 2060.99 1208.01C2064.16 1209.1 2066.42 1210.87 2067.82 1213.31C2069.22 1215.81 2069.89 1218.92 2069.89 1222.64V1226.97C2069.89 1228.67 2070.08 1230.44 2070.5 1232.39C2070.87 1234.34 2071.6 1235.74 2072.58 1236.6V1237.51H2060.14C2059.17 1236.6 2058.56 1235.13 2058.25 1233.12C2058.01 1231.11 2057.89 1229.04 2057.89 1226.9V1222.7C2057.89 1219.65 2057.28 1217.21 2056 1215.57C2054.72 1213.86 2052.95 1213.01 2050.63 1213.01H2041.85V1213.07ZM2041.85 1203.49H2049.9C2052.34 1203.49 2054.23 1202.76 2055.51 1201.24C2056.79 1199.72 2057.4 1197.64 2057.4 1194.84C2057.4 1192.03 2056.79 1189.78 2055.51 1188.13C2054.23 1186.49 2052.4 1185.63 2049.96 1185.63H2041.85V1203.49Z" fill="#0B193A"/>
<path d="M2122.08 1237.57H2110.13L2091.29 1198.19L2091.05 1198.25V1237.57H2078.98V1176H2091.05L2109.89 1215.32L2110.13 1215.26V1176H2122.08V1237.57Z" fill="#0B193A"/>
<path d="M2164.2 1210.51H2143.54V1227.94H2167.86V1237.57H2131.47V1176H2167.74V1185.57H2143.48V1200.93H2164.14V1210.51H2164.2Z" fill="#0B193A"/>
<path d="M2211.21 1185.57H2197.31V1237.57H2185.3V1185.57H2171.52V1176H2211.21V1185.57Z" fill="#0B193A"/>
<path d="M1954.13 1287.01V1416.62L1997.66 1391.75V1287.01H1954.13Z" fill="#8696B5"/>
<path d="M1985.89 2380.61C1984.06 2380.61 1982.23 2380.68 1980.46 2380.8C1979.55 2371.29 1970.1 2363.18 1966.02 2360.13C1972.36 2358.91 1989.79 2354.89 1991.74 2346.9C1992.66 2343.24 1990.34 2339.4 1984.98 2335.5C1977.11 2329.71 1970.34 2327.76 1964.8 2329.71C1959.55 2331.54 1956.93 2336.42 1955.84 2339.1C1955.29 2338.31 1954.74 2337.58 1954.19 2336.9V2399.76C1954.74 2400.06 1955.29 2400.37 1955.9 2400.55C1957.36 2401.1 1958.88 2401.4 1960.41 2401.4C1964 2401.4 1967.78 2399.88 1971.81 2396.95C1975.28 2394.33 1977.72 2391.53 1979.18 2388.54C1981.44 2388.3 1983.7 2388.17 1986.01 2388.17H1997.78V2380.61H1985.89ZM1986.32 1923.64C1974.31 1923.64 1963.21 1920.47 1954.19 1915.11V1923.7C1963.58 1928.46 1974.55 1931.2 1986.32 1931.2H1997.66V1923.64H1986.32ZM1986.32 2085.37C1974.55 2085.37 1963.52 2088.12 1954.19 2092.93V2101.53C1963.21 2096.16 1974.31 2092.99 1986.32 2092.99H1997.66V2085.44H1986.32V2085.37ZM1986.32 2237.72C1974.31 2237.72 1963.21 2234.55 1954.19 2229.18V2237.78C1963.58 2242.54 1974.55 2245.28 1986.32 2245.28H1997.66V2237.72H1986.32ZM1997.41 1788.24C1992.66 1781.3 1986.32 1777.64 1979.98 1778.19C1974.49 1778.67 1969.61 1782.33 1967.6 1787.51C1965.53 1792.82 1966.69 1798.67 1970.65 1803.97C1963.52 1802.94 1957.97 1805.13 1954.13 1808.42V1834.76C1963.27 1839.76 1977.66 1828.97 1981.93 1825.49C1983.15 1830.49 1987.6 1845.92 1997.41 1849.69C1997.47 1849.69 1997.53 1849.76 1997.6 1849.76V1787.64C1997.53 1787.88 1997.47 1788.06 1997.41 1788.24ZM1986.32 1749.29C1974.55 1749.29 1963.58 1752.03 1954.19 1756.79V1765.38C1963.21 1760.02 1974.31 1756.85 1986.32 1756.85C1990.22 1756.85 1994 1756.54 1997.66 1756V1748.31C1994 1748.99 1990.22 1749.29 1986.32 1749.29Z" fill="#8696B5"/>
<path d="M1986.07 1954.61C1984.12 1962.66 1966.69 1966.68 1960.35 1967.84C1964.61 1971.07 1974.61 1979.61 1974.92 1989.54C1975.1 1995.15 1972.11 2000.27 1966.08 2004.72C1962.12 2007.71 1958.27 2009.17 1954.68 2009.17C1954.49 2009.17 1954.31 2009.17 1954.13 2009.17V1940.65C1955.41 1939.37 1957.06 1938.21 1959.07 1937.48C1964.61 1935.53 1971.38 1937.48 1979.25 1943.27C1984.67 1947.17 1986.93 1951.01 1986.07 1954.61Z" fill="#8696B5"/>
<path d="M1912.12 2460.05V2406.65C1912.12 2379.76 1938.4 2357.94 1970.77 2357.94H1988.21C2020.58 2357.94 2046.85 2336.11 2046.85 2309.23V2263.69C2046.85 2236.8 2020.58 2214.98 1988.21 2214.98H1971.2C1938.83 2214.98 1912.55 2193.16 1912.55 2166.27V2111.28C1912.55 2084.4 1938.83 2062.57 1971.2 2062.57H2001.43C2033.81 2062.57 2060.08 2040.75 2060.08 2013.87V1949.49C2060.08 1922.61 2033.81 1900.78 2001.43 1900.78H1971.2C1938.83 1900.78 1912.55 1878.96 1912.55 1852.07V1775.14C1912.55 1748.25 1938.83 1726.43 1971.2 1726.43C2003.57 1726.43 2029.84 1704.6 2029.84 1677.72" stroke="#168B9B" stroke-width="4" stroke-miterlimit="10"/>
<path d="M1912.55 1822.32C1912.55 1822.32 1929.56 1788.92 1974.98 1782.27" stroke="black" stroke-miterlimit="10"/>
<path d="M2028.5 1688.08C2028.5 1688.08 2083.67 1644.56 2042.1 1592.8C2042.1 1592.8 1983.45 1639.56 2028.5 1688.08Z" fill="#168B9B"/>
<path d="M2040.45 1916.27C2040.45 1916.27 2112.75 1902.49 2105.56 1839.39C2105.62 1839.33 2028.44 1854.45 2040.45 1916.27Z" fill="#168B9B"/>
<path d="M1837.87 2026.42C1837.87 2026.42 1856.77 2089.58 1927.91 2080.31C1927.91 2080.31 1907.31 2012.95 1837.87 2026.42Z" fill="#168B9B"/>
<path d="M2046.49 2301.85C2046.49 2301.85 2100.26 2346.72 2155.18 2305.75C2155.18 2305.75 2097.45 2258.14 2046.49 2301.85Z" fill="#168B9B"/>
<path d="M1842.99 2327.21C1842.99 2327.21 1873.54 2386.71 1941.94 2367.14C1941.94 2367.14 1908.96 2303.8 1842.99 2327.21Z" fill="#168B9B"/>
<path d="M1915.9 1765.87C1915.9 1765.87 1918.95 1700.64 1847.87 1690.95C1847.87 1690.95 1845.07 1760.69 1915.9 1765.87Z" fill="#168B9B"/>
<path d="M1957.91 1778.92C1940.9 1760.57 1967.36 1738.87 1982.48 1763.92C1982.48 1763.92 1988.14 1742.22 2010.82 1758.92C2033.5 1775.63 1990.03 1782.27 1990.03 1782.27C1990.03 1782.27 2020.27 1802.08 1997.59 1818.85C1974.92 1835.67 1967.36 1797.27 1967.36 1797.27C1967.36 1797.27 1946.57 1815.62 1937.12 1805.62C1927.67 1795.62 1937.12 1773.92 1957.91 1778.92Z" fill="#FF9933" stroke="#0B193A" stroke-miterlimit="10"/>
<path d="M1974.92 1792.27C1981.18 1792.27 1986.26 1787.79 1986.26 1782.27C1986.26 1776.75 1981.18 1772.27 1974.92 1772.27C1968.65 1772.27 1963.58 1776.75 1963.58 1782.27C1963.58 1787.79 1968.65 1792.27 1974.92 1792.27Z" fill="white" stroke="black" stroke-miterlimit="10"/>
<path d="M1910.66 1937.54C1893.65 1919.19 1920.11 1897.49 1935.23 1922.54C1935.23 1922.54 1940.9 1900.84 1963.58 1917.55C1986.26 1934.25 1942.79 1940.89 1942.79 1940.89C1942.79 1940.89 1973.03 1960.71 1950.35 1977.47C1927.67 1994.3 1920.11 1955.89 1920.11 1955.89C1920.11 1955.89 1899.32 1974.24 1889.87 1964.24C1880.36 1954.18 1889.81 1932.48 1910.66 1937.54Z" fill="#FF9933" stroke="#0B193A" stroke-miterlimit="10"/>
<path d="M1927.67 1950.83C1933.93 1950.83 1939.01 1946.35 1939.01 1940.83C1939.01 1935.31 1933.93 1930.84 1927.67 1930.84C1921.41 1930.84 1916.33 1935.31 1916.33 1940.83C1916.33 1946.35 1921.41 1950.83 1927.67 1950.83Z" fill="white" stroke="black" stroke-miterlimit="10"/>
<path d="M2079.71 2253.63C2095.5 2234.43 2126.04 2251.5 2102.45 2270.82C2102.45 2270.82 2127.69 2270.15 2115.13 2293.74C2102.63 2317.34 2084.22 2281.92 2084.22 2281.92C2084.22 2281.92 2070.2 2312.76 2046.06 2297.71C2021.86 2282.59 2062.03 2266.37 2062.03 2266.37C2062.03 2266.37 2036.61 2253.26 2045.21 2242.66C2053.8 2232.05 2079.89 2234.61 2079.71 2253.63Z" fill="#FF9933" stroke="#0B193A" stroke-miterlimit="10"/>
<path d="M2080.38 2278.99C2086.64 2278.99 2091.72 2274.51 2091.72 2268.99C2091.72 2263.47 2086.64 2259 2080.38 2259C2074.12 2259 2069.04 2263.47 2069.04 2268.99C2069.04 2274.51 2074.12 2278.99 2080.38 2278.99Z" fill="white" stroke="black" stroke-miterlimit="10"/>
<path d="M1916.33 2329.83C1899.32 2311.48 1925.78 2289.78 1940.9 2314.84C1940.9 2314.84 1946.57 2293.13 1969.25 2309.84C1991.92 2326.54 1948.46 2333.19 1948.46 2333.19C1948.46 2333.19 1978.7 2353 1956.02 2369.76C1933.34 2386.59 1925.78 2348.18 1925.78 2348.18C1925.78 2348.18 1904.99 2366.53 1895.54 2356.53C1886.09 2346.54 1895.48 2324.83 1916.33 2329.83Z" fill="#FF9933" stroke="#0B193A" stroke-miterlimit="10"/>
<path d="M1933.34 2343.12C1939.6 2343.12 1944.68 2338.65 1944.68 2333.13C1944.68 2327.6 1939.6 2323.13 1933.34 2323.13C1927.08 2323.13 1922 2327.6 1922 2333.13C1922 2338.65 1927.08 2343.12 1933.34 2343.12Z" fill="white" stroke="black" stroke-miterlimit="10"/>
<path d="M810.539 636.912C800.907 641.728 789.69 639.411 785.423 631.486L733.91 536.812C727.753 525.534 732.386 511.208 744.395 505.173C756.405 499.137 770.67 504.014 776.035 515.658L821.208 613.563C825.048 621.732 820.171 632.096 810.539 636.912Z" fill="white" stroke="#0B193A" stroke-width="2" stroke-miterlimit="10"/>
<path d="M831.693 677.757C822.67 682.268 811.88 679.342 807.43 671.051C802.858 662.516 806.759 651.604 816.208 646.849C825.657 642.094 836.753 645.569 840.837 654.347C844.8 662.882 840.654 673.245 831.693 677.757Z" fill="white" stroke="#0B193A" stroke-width="2" stroke-miterlimit="10"/>
<path d="M885.337 617.282C874.669 618.684 864.793 612.832 863.33 603.992L845.529 497.674C843.395 484.994 852.418 472.984 865.769 471.216C879.119 469.449 890.946 478.715 892.226 491.456L903.017 598.75C903.931 607.65 896.006 615.88 885.337 617.282Z" fill="white" stroke="#0B193A" stroke-width="2" stroke-miterlimit="10"/>
<path d="M891.984 662.76C881.986 664.101 872.719 657.822 871.256 648.495C869.732 638.923 876.926 629.84 887.411 628.438C897.897 627.036 907.224 633.925 908.26 643.557C909.297 653.006 901.981 661.479 891.984 662.76Z" fill="white" stroke="#0B193A" stroke-width="2" stroke-miterlimit="10"/>
<path d="M-12.0248 1806.53C-114.076 1830.55 -83.8993 1727.1 -12.0248 1721.43C59.8497 1715.76 52.2904 1791.41 -12.0248 1806.53Z" fill="#E9F3FF"/>
<path d="M502.496 1084.01C371 1047.86 438.181 947.819 544.133 985.677C650.085 1023.53 578.15 1104.8 502.496 1084.01Z" fill="#E9F3FF"/>
<path d="M1590.06 1186.12C1504.1 1109.43 1595.73 1059.38 1669.5 1082.12C1743.26 1104.8 1660.05 1248.55 1590.06 1186.12Z" fill="#E9F3FF"/>
</g>
<defs>
<clipPath id="clip0_29_210">
<rect width="2360" height="2360" rx="1180" fill="white"/>
</clipPath>
</defs>
</svg>
