<svg width="327" height="190" viewBox="0 0 327 190" fill="none" xmlns="http://www.w3.org/2000/svg">
<rect width="327" height="190" rx="16" fill="#1DAB87"/>
<path opacity="0.6" d="M25.1172 136.739H26.0547C26.0059 137.188 25.8773 137.59 25.6689 137.945C25.4606 138.3 25.166 138.582 24.7852 138.79C24.4043 138.995 23.929 139.098 23.3594 139.098C22.9427 139.098 22.5635 139.02 22.2217 138.863C21.8831 138.707 21.5918 138.486 21.3477 138.199C21.1035 137.91 20.9147 137.563 20.7812 137.159C20.651 136.752 20.5859 136.3 20.5859 135.802V135.094C20.5859 134.596 20.651 134.145 20.7812 133.741C20.9147 133.334 21.1051 132.986 21.3525 132.696C21.6032 132.407 21.9043 132.184 22.2559 132.027C22.6074 131.871 23.0029 131.793 23.4424 131.793C23.9795 131.793 24.4336 131.894 24.8047 132.096C25.1758 132.298 25.4639 132.577 25.6689 132.936C25.8773 133.29 26.0059 133.702 26.0547 134.171H25.1172C25.0716 133.839 24.987 133.554 24.8633 133.316C24.7396 133.076 24.5638 132.89 24.3359 132.76C24.1081 132.63 23.8102 132.564 23.4424 132.564C23.1266 132.564 22.8483 132.625 22.6074 132.745C22.3698 132.866 22.1696 133.036 22.0068 133.258C21.8473 133.479 21.7269 133.744 21.6455 134.054C21.5641 134.363 21.5234 134.706 21.5234 135.084V135.802C21.5234 136.15 21.5592 136.477 21.6309 136.783C21.7057 137.089 21.818 137.358 21.9678 137.589C22.1175 137.82 22.3079 138.002 22.5391 138.136C22.7702 138.266 23.0436 138.331 23.3594 138.331C23.7598 138.331 24.0788 138.268 24.3164 138.141C24.554 138.014 24.7331 137.831 24.8535 137.594C24.9772 137.356 25.0651 137.071 25.1172 136.739ZM30.6174 138.097V135.377C30.6174 135.169 30.5751 134.988 30.4904 134.835C30.409 134.679 30.2854 134.558 30.1193 134.474C29.9533 134.389 29.7482 134.347 29.5041 134.347C29.2762 134.347 29.076 134.386 28.9035 134.464C28.7342 134.542 28.6008 134.645 28.5031 134.771C28.4087 134.898 28.3615 135.035 28.3615 135.182H27.4582C27.4582 134.993 27.507 134.806 27.6047 134.62C27.7023 134.435 27.8423 134.267 28.0246 134.117C28.2102 133.964 28.4315 133.844 28.6887 133.756C28.9491 133.665 29.2388 133.619 29.5578 133.619C29.9419 133.619 30.2805 133.684 30.5734 133.814C30.8697 133.945 31.1008 134.142 31.2668 134.405C31.4361 134.666 31.5207 134.993 31.5207 135.387V137.848C31.5207 138.023 31.5354 138.211 31.5646 138.409C31.5972 138.608 31.6444 138.779 31.7063 138.922V139H30.7639C30.7183 138.896 30.6825 138.757 30.6564 138.585C30.6304 138.409 30.6174 138.246 30.6174 138.097ZM30.7736 135.797L30.7834 136.432H29.8703C29.6132 136.432 29.3837 136.453 29.1818 136.495C28.98 136.534 28.8107 136.594 28.674 136.676C28.5373 136.757 28.4331 136.86 28.3615 136.983C28.2899 137.104 28.2541 137.245 28.2541 137.408C28.2541 137.574 28.2915 137.726 28.3664 137.862C28.4413 137.999 28.5536 138.108 28.7033 138.189C28.8563 138.268 29.0435 138.307 29.2648 138.307C29.5415 138.307 29.7857 138.248 29.9973 138.131C30.2089 138.014 30.3765 137.87 30.5002 137.701C30.6271 137.532 30.6955 137.368 30.7053 137.208L31.091 137.643C31.0682 137.779 31.0064 137.931 30.9055 138.097C30.8046 138.263 30.6695 138.422 30.5002 138.575C30.3342 138.725 30.1356 138.85 29.9045 138.951C29.6766 139.049 29.4195 139.098 29.133 139.098C28.7749 139.098 28.4608 139.028 28.1906 138.888C27.9237 138.748 27.7154 138.561 27.5656 138.326C27.4191 138.089 27.3459 137.823 27.3459 137.53C27.3459 137.247 27.4012 136.998 27.5119 136.783C27.6226 136.565 27.7821 136.384 27.9904 136.241C28.1988 136.095 28.4494 135.984 28.7424 135.909C29.0354 135.834 29.3625 135.797 29.7238 135.797H30.7736ZM34.1449 134.547V139H33.2416V133.717H34.1205L34.1449 134.547ZM35.7953 133.688L35.7904 134.527C35.7156 134.511 35.6439 134.501 35.5756 134.498C35.5105 134.492 35.4356 134.488 35.351 134.488C35.1426 134.488 34.9587 134.521 34.7992 134.586C34.6397 134.651 34.5046 134.742 34.3939 134.859C34.2833 134.977 34.1954 135.117 34.1303 135.279C34.0684 135.439 34.0277 135.615 34.0082 135.807L33.7543 135.953C33.7543 135.634 33.7852 135.335 33.8471 135.055C33.9122 134.775 34.0115 134.527 34.1449 134.312C34.2784 134.094 34.4477 133.925 34.6527 133.805C34.8611 133.681 35.1085 133.619 35.3949 133.619C35.46 133.619 35.5349 133.627 35.6195 133.644C35.7042 133.657 35.7628 133.671 35.7953 133.688ZM40.1627 137.975V131.5H41.0709V139H40.2408L40.1627 137.975ZM36.608 136.417V136.314C36.608 135.911 36.6568 135.545 36.7545 135.216C36.8554 134.884 36.997 134.599 37.1793 134.361C37.3648 134.124 37.5846 133.941 37.8385 133.814C38.0956 133.684 38.3821 133.619 38.6979 133.619C39.0299 133.619 39.3196 133.678 39.567 133.795C39.8176 133.909 40.0292 134.076 40.2018 134.298C40.3775 134.516 40.5159 134.78 40.6168 135.089C40.7177 135.398 40.7877 135.748 40.8268 136.139V136.588C40.791 136.975 40.721 137.324 40.6168 137.633C40.5159 137.942 40.3775 138.206 40.2018 138.424C40.0292 138.642 39.8176 138.81 39.567 138.927C39.3163 139.041 39.0234 139.098 38.6881 139.098C38.3788 139.098 38.0956 139.031 37.8385 138.897C37.5846 138.764 37.3648 138.577 37.1793 138.336C36.997 138.095 36.8554 137.812 36.7545 137.486C36.6568 137.158 36.608 136.801 36.608 136.417ZM37.5162 136.314V136.417C37.5162 136.681 37.5423 136.928 37.5943 137.159C37.6497 137.39 37.7343 137.594 37.8482 137.77C37.9622 137.945 38.107 138.084 38.2828 138.185C38.4586 138.282 38.6686 138.331 38.9127 138.331C39.2122 138.331 39.4579 138.268 39.65 138.141C39.8453 138.014 40.0016 137.846 40.1187 137.638C40.2359 137.429 40.3271 137.203 40.3922 136.959V135.782C40.3531 135.603 40.2962 135.431 40.2213 135.265C40.1497 135.095 40.0553 134.946 39.9381 134.815C39.8242 134.682 39.6826 134.576 39.5133 134.498C39.3473 134.42 39.1503 134.381 38.9225 134.381C38.6751 134.381 38.4618 134.433 38.2828 134.537C38.107 134.638 37.9622 134.778 37.8482 134.957C37.7343 135.133 37.6497 135.338 37.5943 135.572C37.5423 135.803 37.5162 136.051 37.5162 136.314ZM50.3379 134.947V135.714H46.4902V134.947H50.3379ZM46.6367 131.891V139H45.6943V131.891H46.6367ZM51.1582 131.891V139H50.2207V131.891H51.1582ZM52.757 136.417V136.305C52.757 135.924 52.8124 135.571 52.923 135.245C53.0337 134.916 53.1932 134.632 53.4016 134.391C53.6099 134.146 53.8622 133.958 54.1584 133.824C54.4546 133.688 54.7867 133.619 55.1545 133.619C55.5256 133.619 55.8592 133.688 56.1555 133.824C56.4549 133.958 56.7089 134.146 56.9172 134.391C57.1288 134.632 57.2899 134.916 57.4006 135.245C57.5113 135.571 57.5666 135.924 57.5666 136.305V136.417C57.5666 136.798 57.5113 137.151 57.4006 137.477C57.2899 137.802 57.1288 138.087 56.9172 138.331C56.7089 138.572 56.4566 138.761 56.1604 138.897C55.8674 139.031 55.5354 139.098 55.1643 139.098C54.7932 139.098 54.4595 139.031 54.1633 138.897C53.8671 138.761 53.6132 138.572 53.4016 138.331C53.1932 138.087 53.0337 137.802 52.923 137.477C52.8124 137.151 52.757 136.798 52.757 136.417ZM53.6604 136.305V136.417C53.6604 136.681 53.6913 136.93 53.7531 137.164C53.815 137.395 53.9077 137.6 54.0314 137.779C54.1584 137.958 54.3163 138.1 54.5051 138.204C54.6939 138.305 54.9136 138.355 55.1643 138.355C55.4117 138.355 55.6281 138.305 55.8137 138.204C56.0025 138.1 56.1587 137.958 56.2824 137.779C56.4061 137.6 56.4989 137.395 56.5607 137.164C56.6258 136.93 56.6584 136.681 56.6584 136.417V136.305C56.6584 136.044 56.6258 135.799 56.5607 135.567C56.4989 135.333 56.4045 135.126 56.2775 134.947C56.1538 134.765 55.9976 134.622 55.8088 134.518C55.6232 134.413 55.4051 134.361 55.1545 134.361C54.9071 134.361 54.689 134.413 54.5002 134.518C54.3146 134.622 54.1584 134.765 54.0314 134.947C53.9077 135.126 53.815 135.333 53.7531 135.567C53.6913 135.799 53.6604 136.044 53.6604 136.305ZM59.9809 131.5V139H59.0727V131.5H59.9809ZM65.0611 137.975V131.5H65.9693V139H65.1393L65.0611 137.975ZM61.5064 136.417V136.314C61.5064 135.911 61.5553 135.545 61.6529 135.216C61.7538 134.884 61.8954 134.599 62.0777 134.361C62.2633 134.124 62.483 133.941 62.7369 133.814C62.9941 133.684 63.2805 133.619 63.5963 133.619C63.9283 133.619 64.218 133.678 64.4654 133.795C64.7161 133.909 64.9277 134.076 65.1002 134.298C65.276 134.516 65.4143 134.78 65.5152 135.089C65.6161 135.398 65.6861 135.748 65.7252 136.139V136.588C65.6894 136.975 65.6194 137.324 65.5152 137.633C65.4143 137.942 65.276 138.206 65.1002 138.424C64.9277 138.642 64.7161 138.81 64.4654 138.927C64.2148 139.041 63.9218 139.098 63.5865 139.098C63.2773 139.098 62.9941 139.031 62.7369 138.897C62.483 138.764 62.2633 138.577 62.0777 138.336C61.8954 138.095 61.7538 137.812 61.6529 137.486C61.5553 137.158 61.5064 136.801 61.5064 136.417ZM62.4146 136.314V136.417C62.4146 136.681 62.4407 136.928 62.4928 137.159C62.5481 137.39 62.6327 137.594 62.7467 137.77C62.8606 137.945 63.0055 138.084 63.1813 138.185C63.357 138.282 63.567 138.331 63.8111 138.331C64.1106 138.331 64.3564 138.268 64.5484 138.141C64.7438 138.014 64.9 137.846 65.0172 137.638C65.1344 137.429 65.2255 137.203 65.2906 136.959V135.782C65.2516 135.603 65.1946 135.431 65.1197 135.265C65.0481 135.095 64.9537 134.946 64.8365 134.815C64.7226 134.682 64.581 134.576 64.4117 134.498C64.2457 134.42 64.0488 134.381 63.8209 134.381C63.5735 134.381 63.3603 134.433 63.1813 134.537C63.0055 134.638 62.8606 134.778 62.7467 134.957C62.6327 135.133 62.5481 135.338 62.4928 135.572C62.4407 135.803 62.4146 136.051 62.4146 136.314ZM69.868 139.098C69.5001 139.098 69.1665 139.036 68.867 138.912C68.5708 138.785 68.3152 138.608 68.1004 138.38C67.8888 138.152 67.726 137.882 67.6121 137.569C67.4982 137.257 67.4412 136.915 67.4412 136.544V136.339C67.4412 135.909 67.5047 135.527 67.6316 135.191C67.7586 134.853 67.9311 134.566 68.1492 134.332C68.3673 134.098 68.6147 133.92 68.8914 133.8C69.1681 133.679 69.4546 133.619 69.7508 133.619C70.1284 133.619 70.4539 133.684 70.7273 133.814C71.004 133.945 71.2303 134.127 71.4061 134.361C71.5818 134.592 71.712 134.866 71.7967 135.182C71.8813 135.494 71.9236 135.836 71.9236 136.207V136.612H67.9783V135.875H71.0203V135.807C71.0073 135.572 70.9585 135.344 70.8738 135.123C70.7924 134.902 70.6622 134.719 70.4832 134.576C70.3042 134.433 70.06 134.361 69.7508 134.361C69.5457 134.361 69.3569 134.405 69.1844 134.493C69.0118 134.578 68.8637 134.705 68.74 134.874C68.6163 135.043 68.5203 135.25 68.452 135.494C68.3836 135.738 68.3494 136.02 68.3494 136.339V136.544C68.3494 136.795 68.3836 137.031 68.452 137.252C68.5236 137.47 68.6261 137.662 68.7596 137.828C68.8963 137.994 69.0607 138.124 69.2527 138.219C69.448 138.313 69.6694 138.36 69.9168 138.36C70.2358 138.36 70.506 138.295 70.7273 138.165C70.9487 138.035 71.1424 137.861 71.3084 137.643L71.8553 138.077C71.7413 138.25 71.5965 138.414 71.4207 138.57C71.2449 138.727 71.0285 138.854 70.7713 138.951C70.5174 139.049 70.2163 139.098 69.868 139.098ZM74.1816 134.547V139H73.2783V133.717H74.1572L74.1816 134.547ZM75.832 133.688L75.8271 134.527C75.7523 134.511 75.6807 134.501 75.6123 134.498C75.5472 134.492 75.4723 134.488 75.3877 134.488C75.1794 134.488 74.9954 134.521 74.8359 134.586C74.6764 134.651 74.5413 134.742 74.4307 134.859C74.32 134.977 74.2321 135.117 74.167 135.279C74.1051 135.439 74.0645 135.615 74.0449 135.807L73.791 135.953C73.791 135.634 73.8219 135.335 73.8838 135.055C73.9489 134.775 74.0482 134.527 74.1816 134.312C74.3151 134.094 74.4844 133.925 74.6895 133.805C74.8978 133.681 75.1452 133.619 75.4316 133.619C75.4967 133.619 75.5716 133.627 75.6562 133.644C75.7409 133.657 75.7995 133.671 75.832 133.688Z" fill="white"/>
<path d="M25.2227 150.047V160H23.3496V150.047H25.2227ZM28.3125 150.047V151.53H20.2939V150.047H28.3125ZM28.3391 156.377V156.233C28.3391 155.691 28.4165 155.192 28.5715 154.736C28.7264 154.276 28.952 153.877 29.2482 153.54C29.5445 153.203 29.9068 152.941 30.3352 152.754C30.7635 152.562 31.2512 152.467 31.798 152.467C32.354 152.467 32.8462 152.562 33.2746 152.754C33.7076 152.941 34.0721 153.203 34.3684 153.54C34.6646 153.877 34.8902 154.276 35.0451 154.736C35.2001 155.192 35.2775 155.691 35.2775 156.233V156.377C35.2775 156.915 35.2001 157.414 35.0451 157.874C34.8902 158.33 34.6646 158.729 34.3684 159.07C34.0721 159.408 33.7098 159.67 33.2814 159.856C32.8531 160.043 32.3632 160.137 31.8117 160.137C31.2648 160.137 30.7749 160.043 30.342 159.856C29.909 159.67 29.5445 159.408 29.2482 159.07C28.952 158.729 28.7264 158.33 28.5715 157.874C28.4165 157.414 28.3391 156.915 28.3391 156.377ZM30.1438 156.233V156.377C30.1438 156.701 30.1757 157.004 30.2395 157.286C30.3033 157.569 30.4012 157.817 30.5334 158.031C30.6656 158.245 30.8365 158.414 31.0461 158.537C31.2603 158.656 31.5155 158.715 31.8117 158.715C32.1034 158.715 32.354 158.656 32.5637 158.537C32.7733 158.414 32.9442 158.245 33.0764 158.031C33.2131 157.817 33.3133 157.569 33.3771 157.286C33.441 157.004 33.4729 156.701 33.4729 156.377V156.233C33.4729 155.914 33.441 155.616 33.3771 155.338C33.3133 155.055 33.2131 154.807 33.0764 154.593C32.9442 154.374 32.771 154.203 32.5568 154.08C32.3472 153.952 32.0943 153.889 31.798 153.889C31.5064 153.889 31.2557 153.952 31.0461 154.08C30.8365 154.203 30.6656 154.374 30.5334 154.593C30.4012 154.807 30.3033 155.055 30.2395 155.338C30.1757 155.616 30.1438 155.914 30.1438 156.233ZM38.6879 154.121V160H36.8832V152.604H38.5854L38.6879 154.121ZM38.4213 156.035H37.8676C37.8676 155.52 37.9291 155.046 38.0521 154.613C38.1798 154.18 38.3666 153.804 38.6127 153.485C38.8588 153.162 39.1618 152.911 39.5219 152.733C39.8865 152.556 40.308 152.467 40.7865 152.467C41.1192 152.467 41.4245 152.517 41.7025 152.617C41.9805 152.713 42.2198 152.866 42.4203 153.075C42.6254 153.28 42.7826 153.549 42.892 153.882C43.0014 154.21 43.0561 154.604 43.0561 155.064V160H41.2514V155.249C41.2514 154.903 41.2012 154.632 41.101 154.436C41.0053 154.24 40.8663 154.103 40.684 154.025C40.5017 153.943 40.2829 153.902 40.0277 153.902C39.7452 153.902 39.5014 153.959 39.2963 154.073C39.0958 154.183 38.9294 154.335 38.7973 154.531C38.6697 154.727 38.574 154.953 38.5102 155.208C38.4509 155.463 38.4213 155.739 38.4213 156.035ZM42.9193 155.7L42.1742 155.837C42.1788 155.372 42.2426 154.937 42.3656 154.531C42.4887 154.121 42.6687 153.763 42.9057 153.458C43.1472 153.148 43.4457 152.907 43.8012 152.733C44.1612 152.556 44.5759 152.467 45.0453 152.467C45.4099 152.467 45.738 152.519 46.0297 152.624C46.3259 152.724 46.5788 152.886 46.7885 153.109C46.9981 153.328 47.1576 153.613 47.267 153.964C47.3809 154.315 47.4379 154.743 47.4379 155.249V160H45.6195V155.242C45.6195 154.882 45.5694 154.606 45.4691 154.415C45.3734 154.224 45.2344 154.091 45.0521 154.019C44.8699 153.941 44.6557 153.902 44.4096 153.902C44.1589 153.902 43.9402 153.95 43.7533 154.046C43.571 154.137 43.4161 154.265 43.2885 154.429C43.1654 154.593 43.072 154.784 43.0082 155.003C42.949 155.217 42.9193 155.45 42.9193 155.7ZM51.1559 154.121V160H49.3512V152.604H51.0533L51.1559 154.121ZM50.8893 156.035H50.3355C50.3355 155.52 50.3971 155.046 50.5201 154.613C50.6477 154.18 50.8346 153.804 51.0807 153.485C51.3268 153.162 51.6298 152.911 51.9898 152.733C52.3544 152.556 52.776 152.467 53.2545 152.467C53.5872 152.467 53.8925 152.517 54.1705 152.617C54.4485 152.713 54.6878 152.866 54.8883 153.075C55.0934 153.28 55.2506 153.549 55.36 153.882C55.4693 154.21 55.524 154.604 55.524 155.064V160H53.7193V155.249C53.7193 154.903 53.6692 154.632 53.5689 154.436C53.4732 154.24 53.3342 154.103 53.152 154.025C52.9697 153.943 52.7509 153.902 52.4957 153.902C52.2132 153.902 51.9693 153.959 51.7643 154.073C51.5637 154.183 51.3974 154.335 51.2652 154.531C51.1376 154.727 51.0419 154.953 50.9781 155.208C50.9189 155.463 50.8893 155.739 50.8893 156.035ZM55.3873 155.7L54.6422 155.837C54.6467 155.372 54.7105 154.937 54.8336 154.531C54.9566 154.121 55.1367 153.763 55.3736 153.458C55.6152 153.148 55.9137 152.907 56.2691 152.733C56.6292 152.556 57.0439 152.467 57.5133 152.467C57.8779 152.467 58.206 152.519 58.4977 152.624C58.7939 152.724 59.0468 152.886 59.2564 153.109C59.4661 153.328 59.6256 153.613 59.735 153.964C59.8489 154.315 59.9059 154.743 59.9059 155.249V160H58.0875V155.242C58.0875 154.882 58.0374 154.606 57.9371 154.415C57.8414 154.224 57.7024 154.091 57.5201 154.019C57.3378 153.941 57.1236 153.902 56.8775 153.902C56.6269 153.902 56.4081 153.95 56.2213 154.046C56.039 154.137 55.884 154.265 55.7564 154.429C55.6334 154.593 55.54 154.784 55.4762 155.003C55.4169 155.217 55.3873 155.45 55.3873 155.7ZM63.993 159.18L65.9754 152.604H67.91L64.9432 161.121C64.8748 161.303 64.7859 161.502 64.6766 161.716C64.5717 161.93 64.4305 162.133 64.2527 162.324C64.075 162.52 63.8517 162.68 63.5828 162.803C63.3185 162.926 62.9972 162.987 62.6189 162.987C62.4549 162.987 62.3091 162.976 62.1814 162.953C62.0538 162.93 61.9194 162.901 61.7781 162.864V161.511C61.8237 161.515 61.8761 161.518 61.9354 161.518C61.9992 161.522 62.0538 161.524 62.0994 161.524C62.3637 161.524 62.5825 161.493 62.7557 161.429C62.9288 161.369 63.0678 161.271 63.1727 161.135C63.282 161.003 63.3732 160.829 63.4461 160.615L63.993 159.18ZM63.0154 152.604L64.6902 158.052L64.9842 159.959L63.74 160.185L61.0672 152.604H63.0154ZM77.0686 156.979V150.047H78.9484V156.979C78.9484 157.639 78.8049 158.207 78.5178 158.681C78.2307 159.15 77.8387 159.51 77.342 159.761C76.8452 160.011 76.2847 160.137 75.6604 160.137C75.0178 160.137 74.4481 160.03 73.9514 159.815C73.4546 159.597 73.065 159.264 72.7824 158.817C72.5044 158.371 72.3654 157.803 72.3654 157.115H74.2521C74.2521 157.489 74.3091 157.79 74.423 158.018C74.537 158.245 74.6988 158.41 74.9084 158.51C75.1226 158.61 75.3732 158.66 75.6604 158.66C75.9383 158.66 76.1822 158.596 76.3918 158.469C76.606 158.337 76.7723 158.145 76.8908 157.895C77.0093 157.644 77.0686 157.339 77.0686 156.979ZM85.0521 158.428V155.017C85.0521 154.766 85.0089 154.549 84.9223 154.367C84.8357 154.185 84.7035 154.044 84.5258 153.943C84.348 153.843 84.1225 153.793 83.849 153.793C83.6075 153.793 83.3956 153.834 83.2133 153.916C83.0355 153.998 82.8988 154.114 82.8031 154.265C82.7074 154.41 82.6596 154.579 82.6596 154.771H80.848C80.848 154.465 80.921 154.176 81.0668 153.902C81.2126 153.624 81.42 153.378 81.6889 153.164C81.9623 152.945 82.2881 152.774 82.6664 152.651C83.0492 152.528 83.4776 152.467 83.9516 152.467C84.5121 152.467 85.0111 152.562 85.4486 152.754C85.8907 152.941 86.237 153.223 86.4877 153.602C86.7429 153.98 86.8705 154.456 86.8705 155.03V158.257C86.8705 158.626 86.8933 158.943 86.9389 159.207C86.989 159.467 87.0619 159.692 87.1576 159.884V160H85.3187C85.2322 159.813 85.1661 159.576 85.1205 159.289C85.0749 158.997 85.0521 158.71 85.0521 158.428ZM85.3051 155.495L85.3187 156.568H84.1771C83.8946 156.568 83.6462 156.598 83.432 156.657C83.2178 156.712 83.0424 156.794 82.9057 156.903C82.7689 157.008 82.6664 157.136 82.598 157.286C82.5297 157.432 82.4955 157.598 82.4955 157.785C82.4955 157.967 82.5365 158.132 82.6186 158.277C82.7051 158.423 82.8282 158.539 82.9877 158.626C83.1518 158.708 83.3432 158.749 83.5619 158.749C83.8809 158.749 84.1589 158.685 84.3959 158.558C84.6329 158.425 84.8174 158.266 84.9496 158.079C85.0818 157.892 85.1524 157.715 85.1615 157.546L85.6811 158.325C85.6173 158.512 85.5215 158.71 85.3939 158.92C85.2663 159.13 85.1023 159.326 84.9018 159.508C84.7012 159.69 84.4597 159.84 84.1771 159.959C83.8946 160.077 83.5665 160.137 83.1928 160.137C82.7143 160.137 82.2859 160.041 81.9076 159.85C81.5294 159.658 81.2309 159.396 81.0121 159.063C80.7934 158.731 80.684 158.353 80.684 157.929C80.684 157.537 80.7569 157.19 80.9027 156.89C81.0486 156.589 81.265 156.336 81.5521 156.131C81.8393 155.921 82.1947 155.764 82.6186 155.659C83.0469 155.55 83.5368 155.495 84.0883 155.495H85.3051ZM92.8648 157.977C92.8648 157.822 92.8238 157.683 92.7418 157.56C92.6598 157.437 92.5048 157.325 92.277 157.225C92.0536 157.12 91.7255 157.022 91.2926 156.931C90.9098 156.849 90.5566 156.746 90.233 156.623C89.9094 156.5 89.6314 156.352 89.399 156.179C89.1666 156.001 88.9843 155.794 88.8521 155.557C88.7245 155.315 88.6607 155.037 88.6607 154.723C88.6607 154.417 88.7268 154.13 88.859 153.861C88.9911 153.588 89.1826 153.349 89.4332 153.144C89.6839 152.934 89.9892 152.77 90.3492 152.651C90.7092 152.528 91.1148 152.467 91.566 152.467C92.1949 152.467 92.735 152.569 93.1861 152.774C93.6419 152.979 93.9905 153.262 94.232 153.622C94.4736 153.978 94.5943 154.379 94.5943 154.825H92.7896C92.7896 154.629 92.7441 154.451 92.6529 154.292C92.5663 154.132 92.4319 154.005 92.2496 153.909C92.0673 153.809 91.8372 153.759 91.5592 153.759C91.3085 153.759 91.0966 153.8 90.9234 153.882C90.7548 153.964 90.6272 154.071 90.5406 154.203C90.454 154.335 90.4107 154.481 90.4107 154.641C90.4107 154.759 90.4335 154.866 90.4791 154.962C90.5292 155.053 90.609 155.137 90.7184 155.215C90.8277 155.292 90.9758 155.363 91.1627 155.427C91.3541 155.491 91.5888 155.552 91.8668 155.611C92.4182 155.721 92.899 155.867 93.3092 156.049C93.7239 156.227 94.0475 156.464 94.2799 156.76C94.5123 157.056 94.6285 157.434 94.6285 157.895C94.6285 158.223 94.5579 158.523 94.4166 158.797C94.2753 159.066 94.0702 159.3 93.8014 159.501C93.5325 159.701 93.2112 159.859 92.8375 159.973C92.4638 160.082 92.0423 160.137 91.5729 160.137C90.8938 160.137 90.3196 160.016 89.8502 159.774C89.3808 159.528 89.0253 159.218 88.7838 158.845C88.5423 158.466 88.4215 158.075 88.4215 157.669H90.151C90.1646 157.956 90.2421 158.186 90.3834 158.359C90.5247 158.533 90.7024 158.658 90.9166 158.735C91.1354 158.808 91.3655 158.845 91.607 158.845C91.8805 158.845 92.1106 158.808 92.2975 158.735C92.4843 158.658 92.6256 158.555 92.7213 158.428C92.817 158.296 92.8648 158.145 92.8648 157.977ZM95.9812 156.377V156.233C95.9812 155.691 96.0587 155.192 96.2137 154.736C96.3686 154.276 96.5942 153.877 96.8904 153.54C97.1867 153.203 97.549 152.941 97.9773 152.754C98.4057 152.562 98.8934 152.467 99.4402 152.467C99.9962 152.467 100.488 152.562 100.917 152.754C101.35 152.941 101.714 153.203 102.011 153.54C102.307 153.877 102.532 154.276 102.687 154.736C102.842 155.192 102.92 155.691 102.92 156.233V156.377C102.92 156.915 102.842 157.414 102.687 157.874C102.532 158.33 102.307 158.729 102.011 159.07C101.714 159.408 101.352 159.67 100.924 159.856C100.495 160.043 100.005 160.137 99.4539 160.137C98.907 160.137 98.4171 160.043 97.9842 159.856C97.5512 159.67 97.1867 159.408 96.8904 159.07C96.5942 158.729 96.3686 158.33 96.2137 157.874C96.0587 157.414 95.9812 156.915 95.9812 156.377ZM97.7859 156.233V156.377C97.7859 156.701 97.8178 157.004 97.8816 157.286C97.9454 157.569 98.0434 157.817 98.1756 158.031C98.3077 158.245 98.4786 158.414 98.6883 158.537C98.9025 158.656 99.1577 158.715 99.4539 158.715C99.7456 158.715 99.9962 158.656 100.206 158.537C100.415 158.414 100.586 158.245 100.719 158.031C100.855 157.817 100.956 157.569 101.019 157.286C101.083 157.004 101.115 156.701 101.115 156.377V156.233C101.115 155.914 101.083 155.616 101.019 155.338C100.956 155.055 100.855 154.807 100.719 154.593C100.586 154.374 100.413 154.203 100.199 154.08C99.9894 153.952 99.7365 153.889 99.4402 153.889C99.1486 153.889 98.8979 153.952 98.6883 154.08C98.4786 154.203 98.3077 154.374 98.1756 154.593C98.0434 154.807 97.9454 155.055 97.8816 155.338C97.8178 155.616 97.7859 155.914 97.7859 156.233ZM106.303 154.183V160H104.498V152.604H106.193L106.303 154.183ZM106.016 156.035H105.482C105.487 155.497 105.56 155.01 105.701 154.572C105.842 154.135 106.041 153.759 106.296 153.444C106.556 153.13 106.863 152.888 107.219 152.72C107.574 152.551 107.971 152.467 108.408 152.467C108.764 152.467 109.085 152.517 109.372 152.617C109.659 152.717 109.905 152.877 110.11 153.096C110.32 153.314 110.479 153.602 110.589 153.957C110.703 154.308 110.76 154.741 110.76 155.256V160H108.941V155.242C108.941 154.905 108.891 154.638 108.791 154.442C108.695 154.246 108.554 154.107 108.367 154.025C108.185 153.943 107.959 153.902 107.69 153.902C107.412 153.902 107.169 153.959 106.959 154.073C106.754 154.183 106.581 154.335 106.439 154.531C106.303 154.727 106.198 154.953 106.125 155.208C106.052 155.463 106.016 155.739 106.016 156.035Z" fill="white"/>
<path opacity="0.6" d="M278.091 138.233V139H274.326V138.233H278.091ZM274.516 131.891V139H273.574V131.891H274.516ZM277.593 134.947V135.714H274.326V134.947H277.593ZM278.042 131.891V132.662H274.326V131.891H278.042ZM280.031 133.717L281.188 135.641L282.36 133.717H283.42L281.691 136.324L283.474 139H282.429L281.208 137.018L279.987 139H278.938L280.715 136.324L278.991 133.717H280.031ZM285.585 134.732V141.031H284.677V133.717H285.507L285.585 134.732ZM289.145 136.314V136.417C289.145 136.801 289.099 137.158 289.008 137.486C288.917 137.812 288.783 138.095 288.608 138.336C288.435 138.577 288.222 138.764 287.968 138.897C287.714 139.031 287.423 139.098 287.094 139.098C286.759 139.098 286.462 139.042 286.205 138.932C285.948 138.821 285.73 138.66 285.551 138.448C285.372 138.237 285.229 137.983 285.121 137.687C285.017 137.39 284.946 137.057 284.906 136.686V136.139C284.946 135.748 285.019 135.398 285.126 135.089C285.234 134.78 285.375 134.516 285.551 134.298C285.73 134.076 285.946 133.909 286.2 133.795C286.454 133.678 286.747 133.619 287.079 133.619C287.411 133.619 287.706 133.684 287.963 133.814C288.22 133.941 288.437 134.124 288.613 134.361C288.788 134.599 288.92 134.884 289.008 135.216C289.099 135.545 289.145 135.911 289.145 136.314ZM288.237 136.417V136.314C288.237 136.051 288.209 135.803 288.154 135.572C288.098 135.338 288.012 135.133 287.895 134.957C287.781 134.778 287.634 134.638 287.455 134.537C287.276 134.433 287.063 134.381 286.816 134.381C286.588 134.381 286.389 134.42 286.22 134.498C286.054 134.576 285.912 134.682 285.795 134.815C285.678 134.946 285.582 135.095 285.507 135.265C285.435 135.431 285.382 135.603 285.346 135.782V137.047C285.411 137.275 285.502 137.49 285.619 137.691C285.737 137.89 285.893 138.051 286.088 138.175C286.283 138.295 286.529 138.355 286.825 138.355C287.07 138.355 287.279 138.305 287.455 138.204C287.634 138.1 287.781 137.958 287.895 137.779C288.012 137.6 288.098 137.395 288.154 137.164C288.209 136.93 288.237 136.681 288.237 136.417ZM291.579 133.717V139H290.67V133.717H291.579ZM290.602 132.315C290.602 132.169 290.646 132.045 290.734 131.944C290.825 131.843 290.958 131.793 291.134 131.793C291.307 131.793 291.439 131.843 291.53 131.944C291.624 132.045 291.671 132.169 291.671 132.315C291.671 132.455 291.624 132.576 291.53 132.677C291.439 132.774 291.307 132.823 291.134 132.823C290.958 132.823 290.825 132.774 290.734 132.677C290.646 132.576 290.602 132.455 290.602 132.315ZM294.232 134.547V139H293.329V133.717H294.208L294.232 134.547ZM295.882 133.688L295.878 134.527C295.803 134.511 295.731 134.501 295.663 134.498C295.598 134.492 295.523 134.488 295.438 134.488C295.23 134.488 295.046 134.521 294.886 134.586C294.727 134.651 294.592 134.742 294.481 134.859C294.37 134.977 294.282 135.117 294.217 135.279C294.156 135.439 294.115 135.615 294.095 135.807L293.841 135.953C293.841 135.634 293.872 135.335 293.934 135.055C293.999 134.775 294.099 134.527 294.232 134.312C294.365 134.094 294.535 133.925 294.74 133.805C294.948 133.681 295.196 133.619 295.482 133.619C295.547 133.619 295.622 133.627 295.707 133.644C295.791 133.657 295.85 133.671 295.882 133.688ZM299.112 139.098C298.744 139.098 298.411 139.036 298.111 138.912C297.815 138.785 297.559 138.608 297.345 138.38C297.133 138.152 296.97 137.882 296.856 137.569C296.742 137.257 296.685 136.915 296.685 136.544V136.339C296.685 135.909 296.749 135.527 296.876 135.191C297.003 134.853 297.175 134.566 297.393 134.332C297.611 134.098 297.859 133.92 298.136 133.8C298.412 133.679 298.699 133.619 298.995 133.619C299.373 133.619 299.698 133.684 299.971 133.814C300.248 133.945 300.474 134.127 300.65 134.361C300.826 134.592 300.956 134.866 301.041 135.182C301.125 135.494 301.168 135.836 301.168 136.207V136.612H297.222V135.875H300.264V135.807C300.251 135.572 300.203 135.344 300.118 135.123C300.037 134.902 299.906 134.719 299.727 134.576C299.548 134.433 299.304 134.361 298.995 134.361C298.79 134.361 298.601 134.405 298.429 134.493C298.256 134.578 298.108 134.705 297.984 134.874C297.86 135.043 297.764 135.25 297.696 135.494C297.628 135.738 297.594 136.02 297.594 136.339V136.544C297.594 136.795 297.628 137.031 297.696 137.252C297.768 137.47 297.87 137.662 298.004 137.828C298.14 137.994 298.305 138.124 298.497 138.219C298.692 138.313 298.914 138.36 299.161 138.36C299.48 138.36 299.75 138.295 299.971 138.165C300.193 138.035 300.387 137.861 300.553 137.643L301.099 138.077C300.985 138.25 300.841 138.414 300.665 138.57C300.489 138.727 300.273 138.854 300.015 138.951C299.762 139.049 299.46 139.098 299.112 139.098ZM305.599 137.599C305.599 137.468 305.569 137.348 305.511 137.237C305.455 137.123 305.34 137.021 305.164 136.93C304.992 136.835 304.731 136.754 304.383 136.686C304.09 136.624 303.825 136.55 303.587 136.466C303.353 136.381 303.152 136.279 302.986 136.158C302.824 136.038 302.698 135.896 302.61 135.733C302.522 135.571 302.479 135.38 302.479 135.162C302.479 134.954 302.524 134.757 302.615 134.571C302.71 134.386 302.841 134.221 303.011 134.078C303.183 133.935 303.39 133.823 303.631 133.741C303.872 133.66 304.14 133.619 304.437 133.619C304.86 133.619 305.221 133.694 305.521 133.844C305.82 133.993 306.049 134.194 306.209 134.444C306.368 134.692 306.448 134.967 306.448 135.27H305.545C305.545 135.123 305.501 134.981 305.413 134.845C305.328 134.705 305.203 134.589 305.037 134.498C304.874 134.407 304.674 134.361 304.437 134.361C304.186 134.361 303.982 134.4 303.826 134.479C303.673 134.553 303.561 134.649 303.489 134.767C303.421 134.884 303.387 135.007 303.387 135.138C303.387 135.235 303.403 135.323 303.436 135.401C303.471 135.476 303.533 135.546 303.621 135.611C303.709 135.673 303.833 135.732 303.992 135.787C304.152 135.842 304.355 135.898 304.603 135.953C305.035 136.051 305.392 136.168 305.672 136.305C305.952 136.441 306.16 136.609 306.297 136.808C306.434 137.006 306.502 137.247 306.502 137.53C306.502 137.761 306.453 137.973 306.355 138.165C306.261 138.357 306.123 138.523 305.94 138.663C305.761 138.8 305.547 138.907 305.296 138.985C305.049 139.06 304.77 139.098 304.461 139.098C303.995 139.098 303.602 139.015 303.279 138.849C302.957 138.683 302.713 138.468 302.547 138.204C302.381 137.94 302.298 137.662 302.298 137.369H303.206C303.219 137.617 303.291 137.813 303.421 137.96C303.551 138.103 303.711 138.206 303.899 138.268C304.088 138.326 304.275 138.355 304.461 138.355C304.708 138.355 304.915 138.323 305.081 138.258C305.25 138.193 305.379 138.103 305.467 137.989C305.555 137.875 305.599 137.745 305.599 137.599Z" fill="white"/>
<path d="M273.842 150.02V160H272.03V152.132L269.631 152.925V151.462L273.637 150.02H273.842ZM279.467 154.224H280.486C280.846 154.224 281.142 154.162 281.374 154.039C281.611 153.911 281.787 153.738 281.901 153.52C282.019 153.296 282.079 153.039 282.079 152.747C282.079 152.46 282.026 152.212 281.921 152.002C281.816 151.788 281.657 151.624 281.443 151.51C281.233 151.391 280.964 151.332 280.636 151.332C280.372 151.332 280.128 151.384 279.905 151.489C279.686 151.594 279.51 151.744 279.378 151.94C279.251 152.132 279.187 152.362 279.187 152.631H277.375C277.375 152.093 277.517 151.621 277.799 151.216C278.086 150.806 278.474 150.484 278.961 150.252C279.449 150.02 279.994 149.903 280.595 149.903C281.251 149.903 281.826 150.013 282.318 150.231C282.815 150.446 283.2 150.762 283.473 151.182C283.751 151.601 283.89 152.12 283.89 152.74C283.89 153.036 283.819 153.333 283.678 153.629C283.541 153.921 283.339 154.185 283.07 154.422C282.805 154.654 282.48 154.843 282.092 154.989C281.709 155.131 281.27 155.201 280.773 155.201H279.467V154.224ZM279.467 155.618V154.654H280.773C281.333 154.654 281.819 154.72 282.229 154.853C282.644 154.98 282.985 155.162 283.254 155.399C283.523 155.632 283.721 155.903 283.849 156.213C283.981 156.523 284.047 156.855 284.047 157.211C284.047 157.676 283.961 158.09 283.787 158.455C283.614 158.815 283.371 159.12 283.056 159.371C282.746 159.622 282.382 159.813 281.962 159.945C281.543 160.073 281.09 160.137 280.602 160.137C280.178 160.137 279.766 160.08 279.365 159.966C278.968 159.847 278.61 159.672 278.291 159.439C277.972 159.202 277.719 158.906 277.533 158.551C277.346 158.191 277.252 157.774 277.252 157.3H279.064C279.064 157.573 279.13 157.817 279.262 158.031C279.399 158.245 279.586 158.414 279.823 158.537C280.064 158.656 280.335 158.715 280.636 158.715C280.969 158.715 281.254 158.656 281.491 158.537C281.732 158.414 281.917 158.241 282.044 158.018C282.172 157.79 282.236 157.519 282.236 157.204C282.236 156.83 282.165 156.527 282.024 156.295C281.883 156.062 281.68 155.892 281.415 155.782C281.156 155.673 280.846 155.618 280.486 155.618H279.467ZM290.165 150.047L286.405 160.854H285.031L288.791 150.047H290.165ZM298.162 158.578V160H291.422V158.783L294.655 155.29C294.992 154.907 295.259 154.575 295.455 154.292C295.651 154.009 295.79 153.754 295.872 153.526C295.958 153.294 296.002 153.073 296.002 152.863C296.002 152.558 295.947 152.291 295.838 152.063C295.728 151.831 295.569 151.651 295.359 151.523C295.154 151.396 294.901 151.332 294.6 151.332C294.268 151.332 293.983 151.41 293.746 151.564C293.513 151.715 293.336 151.924 293.213 152.193C293.094 152.462 293.035 152.77 293.035 153.116H291.223C291.223 152.528 291.36 151.993 291.634 151.51C291.907 151.022 292.299 150.632 292.809 150.341C293.32 150.049 293.926 149.903 294.628 149.903C295.311 149.903 295.89 150.017 296.364 150.245C296.838 150.468 297.198 150.787 297.444 151.202C297.69 151.617 297.813 152.111 297.813 152.686C297.813 153.005 297.761 153.319 297.656 153.629C297.551 153.939 297.403 154.246 297.212 154.552C297.025 154.853 296.802 155.158 296.542 155.468C296.282 155.778 295.993 156.094 295.674 156.418L293.732 158.578H298.162ZM306.631 156.37V157.792H299.46L299.385 156.698L303.603 150.047H305.045L303.486 152.692L301.224 156.37H306.631ZM305.448 150.047V160H303.637V150.047H305.448Z" fill="white"/>
<circle opacity="0.5" cx="50" cy="37" r="13" fill="white"/>
<circle opacity="0.8" cx="33" cy="37" r="13" fill="white"/>
<path d="M28.5625 101.242V103H20.7812V101.5L24.4609 97.5547C24.8307 97.1432 25.1224 96.7812 25.3359 96.4688C25.5495 96.151 25.7031 95.8672 25.7969 95.6172C25.8958 95.362 25.9453 95.1198 25.9453 94.8906C25.9453 94.5469 25.888 94.2526 25.7734 94.0078C25.6589 93.7578 25.4896 93.5651 25.2656 93.4297C25.0469 93.2943 24.776 93.2266 24.4531 93.2266C24.1094 93.2266 23.8125 93.3099 23.5625 93.4766C23.3177 93.6432 23.1302 93.875 23 94.1719C22.875 94.4688 22.8125 94.8047 22.8125 95.1797H20.5547C20.5547 94.5026 20.7161 93.8828 21.0391 93.3203C21.362 92.7526 21.8177 92.3021 22.4062 91.9688C22.9948 91.6302 23.6927 91.4609 24.5 91.4609C25.2969 91.4609 25.9688 91.5911 26.5156 91.8516C27.0677 92.1068 27.4844 92.4766 27.7656 92.9609C28.0521 93.4401 28.1953 94.013 28.1953 94.6797C28.1953 95.0547 28.1354 95.4219 28.0156 95.7812C27.8958 96.1354 27.724 96.4896 27.5 96.8438C27.2812 97.1927 27.0156 97.5469 26.7031 97.9062C26.3906 98.2656 26.0443 98.638 25.6641 99.0234L23.6875 101.242H28.5625ZM32.3859 97.8203L30.5891 97.3906L31.2375 91.625H37.6281V93.4453H33.0891L32.8078 95.9688C32.9589 95.8802 33.188 95.7865 33.4953 95.6875C33.8026 95.5833 34.1464 95.5312 34.5266 95.5312C35.0786 95.5312 35.5682 95.6172 35.9953 95.7891C36.4224 95.9609 36.7844 96.2109 37.0813 96.5391C37.3833 96.8672 37.6125 97.2682 37.7688 97.7422C37.925 98.2161 38.0031 98.7526 38.0031 99.3516C38.0031 99.8568 37.925 100.339 37.7688 100.797C37.6125 101.25 37.3755 101.656 37.0578 102.016C36.7401 102.37 36.3417 102.648 35.8625 102.852C35.3833 103.055 34.8156 103.156 34.1594 103.156C33.6698 103.156 33.1958 103.083 32.7375 102.938C32.2844 102.792 31.8755 102.576 31.5109 102.289C31.1516 102.003 30.8625 101.656 30.6438 101.25C30.4302 100.839 30.3182 100.37 30.3078 99.8438H32.5422C32.5734 100.167 32.6568 100.445 32.7922 100.68C32.9328 100.909 33.1177 101.086 33.3469 101.211C33.576 101.336 33.8443 101.398 34.1516 101.398C34.438 101.398 34.6828 101.344 34.8859 101.234C35.0891 101.125 35.2531 100.974 35.3781 100.781C35.5031 100.583 35.5943 100.354 35.6516 100.094C35.7141 99.8281 35.7453 99.5417 35.7453 99.2344C35.7453 98.9271 35.7089 98.6484 35.6359 98.3984C35.563 98.1484 35.451 97.9323 35.3 97.75C35.149 97.5677 34.9563 97.4271 34.7219 97.3281C34.4927 97.2292 34.2245 97.1797 33.9172 97.1797C33.5005 97.1797 33.1776 97.2448 32.9484 97.375C32.7245 97.5052 32.537 97.6536 32.3859 97.8203ZM45.5609 91.5078H45.8891V93.3047H45.7563C45.1625 93.3047 44.6339 93.3932 44.1703 93.5703C43.7068 93.7474 43.3135 94 42.9906 94.3281C42.6729 94.651 42.4281 95.0417 42.2563 95.5C42.0896 95.9583 42.0063 96.4714 42.0063 97.0391V98.9297C42.0063 99.3359 42.0453 99.6953 42.1234 100.008C42.2068 100.315 42.324 100.573 42.475 100.781C42.6313 100.984 42.8135 101.138 43.0219 101.242C43.2302 101.341 43.4646 101.391 43.725 101.391C43.9698 101.391 44.1911 101.339 44.3891 101.234C44.5922 101.13 44.7641 100.984 44.9047 100.797C45.0505 100.604 45.1599 100.38 45.2328 100.125C45.3109 99.8646 45.35 99.5807 45.35 99.2734C45.35 98.9661 45.3109 98.6823 45.2328 98.4219C45.1599 98.1615 45.0505 97.9375 44.9047 97.75C44.7589 97.5573 44.5818 97.4089 44.3734 97.3047C44.1651 97.2005 43.9307 97.1484 43.6703 97.1484C43.3161 97.1484 43.0036 97.2318 42.7328 97.3984C42.4672 97.5599 42.2589 97.7682 42.1078 98.0234C41.9568 98.2786 41.876 98.5469 41.8656 98.8281L41.1859 98.3906C41.2016 97.9896 41.2849 97.6094 41.4359 97.25C41.5922 96.8906 41.8057 96.5729 42.0766 96.2969C42.3526 96.0156 42.6833 95.7969 43.0688 95.6406C43.4542 95.4792 43.8891 95.3984 44.3734 95.3984C44.9047 95.3984 45.3708 95.5 45.7719 95.7031C46.1781 95.9062 46.5167 96.1849 46.7875 96.5391C47.0583 96.8932 47.2615 97.3021 47.3969 97.7656C47.5323 98.2292 47.6 98.724 47.6 99.25C47.6 99.8021 47.5089 100.315 47.3266 100.789C47.1495 101.263 46.8917 101.677 46.5531 102.031C46.2198 102.385 45.8188 102.661 45.35 102.859C44.8813 103.057 44.3552 103.156 43.7719 103.156C43.1677 103.156 42.6182 103.047 42.1234 102.828C41.6339 102.604 41.212 102.292 40.8578 101.891C40.5036 101.49 40.2302 101.013 40.0375 100.461C39.85 99.9089 39.7563 99.3047 39.7563 98.6484V97.7734C39.7563 96.8568 39.8891 96.0182 40.1547 95.2578C40.4255 94.4922 40.8135 93.8307 41.3188 93.2734C41.824 92.7109 42.4333 92.276 43.1469 91.9688C43.8604 91.6615 44.6651 91.5078 45.5609 91.5078ZM57.2125 98.75V100.516H49.0172L48.9078 99.1484L53.65 91.625H55.4391L53.5016 94.8672L51.1422 98.75H57.2125ZM55.9234 91.625V103H53.6734V91.625H55.9234ZM79.2484 99.8828C79.2484 100.596 79.0818 101.198 78.7484 101.688C78.4151 102.172 77.9568 102.539 77.3734 102.789C76.7953 103.034 76.1391 103.156 75.4047 103.156C74.6703 103.156 74.0115 103.034 73.4281 102.789C72.8448 102.539 72.3839 102.172 72.0453 101.688C71.7068 101.198 71.5375 100.596 71.5375 99.8828C71.5375 99.4036 71.6339 98.9714 71.8266 98.5859C72.0193 98.1953 72.2875 97.862 72.6312 97.5859C72.9802 97.3047 73.3891 97.0911 73.8578 96.9453C74.3266 96.7943 74.837 96.7188 75.3891 96.7188C76.1286 96.7188 76.7901 96.849 77.3734 97.1094C77.9568 97.3698 78.4151 97.737 78.7484 98.2109C79.0818 98.6849 79.2484 99.2422 79.2484 99.8828ZM76.9828 99.7344C76.9828 99.3854 76.9151 99.0859 76.7797 98.8359C76.6495 98.5807 76.4646 98.3854 76.225 98.25C75.9854 98.1146 75.7068 98.0469 75.3891 98.0469C75.0714 98.0469 74.7927 98.1146 74.5531 98.25C74.3135 98.3854 74.126 98.5807 73.9906 98.8359C73.8604 99.0859 73.7953 99.3854 73.7953 99.7344C73.7953 100.078 73.8604 100.375 73.9906 100.625C74.126 100.875 74.3135 101.068 74.5531 101.203C74.7979 101.333 75.0818 101.398 75.4047 101.398C75.7276 101.398 76.0062 101.333 76.2406 101.203C76.4802 101.068 76.6625 100.875 76.7875 100.625C76.9177 100.375 76.9828 100.078 76.9828 99.7344ZM79.0062 94.6406C79.0062 95.2188 78.8526 95.7318 78.5453 96.1797C78.238 96.6224 77.8109 96.9688 77.2641 97.2188C76.7224 97.4688 76.1026 97.5938 75.4047 97.5938C74.7016 97.5938 74.0766 97.4688 73.5297 97.2188C72.9828 96.9688 72.5557 96.6224 72.2484 96.1797C71.9411 95.7318 71.7875 95.2188 71.7875 94.6406C71.7875 93.9531 71.9411 93.375 72.2484 92.9062C72.5609 92.4323 72.988 92.0729 73.5297 91.8281C74.0766 91.5833 74.6964 91.4609 75.3891 91.4609C76.0922 91.4609 76.7146 91.5833 77.2562 91.8281C77.8031 92.0729 78.2302 92.4323 78.5375 92.9062C78.85 93.375 79.0062 93.9531 79.0062 94.6406ZM76.7562 94.7422C76.7562 94.4349 76.7016 94.1693 76.5922 93.9453C76.4828 93.7161 76.3266 93.5391 76.1234 93.4141C75.9255 93.2891 75.6807 93.2266 75.3891 93.2266C75.1078 93.2266 74.8656 93.2865 74.6625 93.4062C74.4646 93.526 74.3109 93.7005 74.2016 93.9297C74.0974 94.1536 74.0453 94.4245 74.0453 94.7422C74.0453 95.0495 74.0974 95.3203 74.2016 95.5547C74.3109 95.7839 74.4672 95.9635 74.6703 96.0938C74.8734 96.224 75.1182 96.2891 75.4047 96.2891C75.6911 96.2891 75.9333 96.224 76.1312 96.0938C76.3344 95.9635 76.488 95.7839 76.5922 95.5547C76.7016 95.3203 76.7562 95.0495 76.7562 94.7422ZM83.1891 97.8203L81.3922 97.3906L82.0406 91.625H88.4313V93.4453H83.8922L83.6109 95.9688C83.762 95.8802 83.9911 95.7865 84.2984 95.6875C84.6057 95.5833 84.9495 95.5312 85.3297 95.5312C85.8818 95.5312 86.3714 95.6172 86.7984 95.7891C87.2255 95.9609 87.5875 96.2109 87.8844 96.5391C88.1865 96.8672 88.4156 97.2682 88.5719 97.7422C88.7281 98.2161 88.8063 98.7526 88.8063 99.3516C88.8063 99.8568 88.7281 100.339 88.5719 100.797C88.4156 101.25 88.1786 101.656 87.8609 102.016C87.5432 102.37 87.1448 102.648 86.6656 102.852C86.1865 103.055 85.6188 103.156 84.9625 103.156C84.4729 103.156 83.999 103.083 83.5406 102.938C83.0875 102.792 82.6786 102.576 82.3141 102.289C81.9547 102.003 81.6656 101.656 81.4469 101.25C81.2333 100.839 81.1214 100.37 81.1109 99.8438H83.3453C83.3766 100.167 83.4599 100.445 83.5953 100.68C83.7359 100.909 83.9208 101.086 84.15 101.211C84.3792 101.336 84.6474 101.398 84.9547 101.398C85.2411 101.398 85.4859 101.344 85.6891 101.234C85.8922 101.125 86.0563 100.974 86.1813 100.781C86.3063 100.583 86.3974 100.354 86.4547 100.094C86.5172 99.8281 86.5484 99.5417 86.5484 99.2344C86.5484 98.9271 86.512 98.6484 86.4391 98.3984C86.3661 98.1484 86.2542 97.9323 86.1031 97.75C85.9521 97.5677 85.7594 97.4271 85.525 97.3281C85.2958 97.2292 85.0276 97.1797 84.7203 97.1797C84.3036 97.1797 83.9807 97.2448 83.7516 97.375C83.5276 97.5052 83.3401 97.6536 83.1891 97.8203ZM98.5281 98.75V100.516H90.3328L90.2234 99.1484L94.9656 91.625H96.7547L94.8172 94.8672L92.4578 98.75H98.5281ZM97.2391 91.625V103H94.9891V91.625H97.2391ZM105.852 91.5078H106.18V93.3047H106.047C105.453 93.3047 104.924 93.3932 104.461 93.5703C103.997 93.7474 103.604 94 103.281 94.3281C102.964 94.651 102.719 95.0417 102.547 95.5C102.38 95.9583 102.297 96.4714 102.297 97.0391V98.9297C102.297 99.3359 102.336 99.6953 102.414 100.008C102.497 100.315 102.615 100.573 102.766 100.781C102.922 100.984 103.104 101.138 103.312 101.242C103.521 101.341 103.755 101.391 104.016 101.391C104.26 101.391 104.482 101.339 104.68 101.234C104.883 101.13 105.055 100.984 105.195 100.797C105.341 100.604 105.451 100.38 105.523 100.125C105.602 99.8646 105.641 99.5807 105.641 99.2734C105.641 98.9661 105.602 98.6823 105.523 98.4219C105.451 98.1615 105.341 97.9375 105.195 97.75C105.049 97.5573 104.872 97.4089 104.664 97.3047C104.456 97.2005 104.221 97.1484 103.961 97.1484C103.607 97.1484 103.294 97.2318 103.023 97.3984C102.758 97.5599 102.549 97.7682 102.398 98.0234C102.247 98.2786 102.167 98.5469 102.156 98.8281L101.477 98.3906C101.492 97.9896 101.576 97.6094 101.727 97.25C101.883 96.8906 102.096 96.5729 102.367 96.2969C102.643 96.0156 102.974 95.7969 103.359 95.6406C103.745 95.4792 104.18 95.3984 104.664 95.3984C105.195 95.3984 105.661 95.5 106.062 95.7031C106.469 95.9062 106.807 96.1849 107.078 96.5391C107.349 96.8932 107.552 97.3021 107.688 97.7656C107.823 98.2292 107.891 98.724 107.891 99.25C107.891 99.8021 107.799 100.315 107.617 100.789C107.44 101.263 107.182 101.677 106.844 102.031C106.51 102.385 106.109 102.661 105.641 102.859C105.172 103.057 104.646 103.156 104.062 103.156C103.458 103.156 102.909 103.047 102.414 102.828C101.924 102.604 101.503 102.292 101.148 101.891C100.794 101.49 100.521 101.013 100.328 100.461C100.141 99.9089 100.047 99.3047 100.047 98.6484V97.7734C100.047 96.8568 100.18 96.0182 100.445 95.2578C100.716 94.4922 101.104 93.8307 101.609 93.2734C102.115 92.7109 102.724 92.276 103.438 91.9688C104.151 91.6615 104.956 91.5078 105.852 91.5078ZM130.052 99.8828C130.052 100.596 129.885 101.198 129.552 101.688C129.218 102.172 128.76 102.539 128.177 102.789C127.598 103.034 126.942 103.156 126.208 103.156C125.473 103.156 124.815 103.034 124.231 102.789C123.648 102.539 123.187 102.172 122.848 101.688C122.51 101.198 122.341 100.596 122.341 99.8828C122.341 99.4036 122.437 98.9714 122.63 98.5859C122.822 98.1953 123.091 97.862 123.434 97.5859C123.783 97.3047 124.192 97.0911 124.661 96.9453C125.13 96.7943 125.64 96.7188 126.192 96.7188C126.932 96.7188 127.593 96.849 128.177 97.1094C128.76 97.3698 129.218 97.737 129.552 98.2109C129.885 98.6849 130.052 99.2422 130.052 99.8828ZM127.786 99.7344C127.786 99.3854 127.718 99.0859 127.583 98.8359C127.453 98.5807 127.268 98.3854 127.028 98.25C126.789 98.1146 126.51 98.0469 126.192 98.0469C125.874 98.0469 125.596 98.1146 125.356 98.25C125.117 98.3854 124.929 98.5807 124.794 98.8359C124.664 99.0859 124.598 99.3854 124.598 99.7344C124.598 100.078 124.664 100.375 124.794 100.625C124.929 100.875 125.117 101.068 125.356 101.203C125.601 101.333 125.885 101.398 126.208 101.398C126.531 101.398 126.809 101.333 127.044 101.203C127.283 101.068 127.466 100.875 127.591 100.625C127.721 100.375 127.786 100.078 127.786 99.7344ZM129.809 94.6406C129.809 95.2188 129.656 95.7318 129.348 96.1797C129.041 96.6224 128.614 96.9688 128.067 97.2188C127.526 97.4688 126.906 97.5938 126.208 97.5938C125.505 97.5938 124.88 97.4688 124.333 97.2188C123.786 96.9688 123.359 96.6224 123.052 96.1797C122.744 95.7318 122.591 95.2188 122.591 94.6406C122.591 93.9531 122.744 93.375 123.052 92.9062C123.364 92.4323 123.791 92.0729 124.333 91.8281C124.88 91.5833 125.499 91.4609 126.192 91.4609C126.895 91.4609 127.518 91.5833 128.059 91.8281C128.606 92.0729 129.033 92.4323 129.341 92.9062C129.653 93.375 129.809 93.9531 129.809 94.6406ZM127.559 94.7422C127.559 94.4349 127.505 94.1693 127.395 93.9453C127.286 93.7161 127.13 93.5391 126.927 93.4141C126.729 93.2891 126.484 93.2266 126.192 93.2266C125.911 93.2266 125.669 93.2865 125.466 93.4062C125.268 93.526 125.114 93.7005 125.005 93.9297C124.901 94.1536 124.848 94.4245 124.848 94.7422C124.848 95.0495 124.901 95.3203 125.005 95.5547C125.114 95.7839 125.27 95.9635 125.473 96.0938C125.677 96.224 125.921 96.2891 126.208 96.2891C126.494 96.2891 126.736 96.224 126.934 96.0938C127.137 95.9635 127.291 95.7839 127.395 95.5547C127.505 95.3203 127.559 95.0495 127.559 94.7422ZM139.844 98.75V100.516H131.648L131.539 99.1484L136.281 91.625H138.07L136.133 94.8672L133.773 98.75H139.844ZM138.555 91.625V103H136.305V91.625H138.555ZM149.144 101.242V103H141.363V101.5L145.042 97.5547C145.412 97.1432 145.704 96.7812 145.917 96.4688C146.131 96.151 146.284 95.8672 146.378 95.6172C146.477 95.362 146.527 95.1198 146.527 94.8906C146.527 94.5469 146.469 94.2526 146.355 94.0078C146.24 93.7578 146.071 93.5651 145.847 93.4297C145.628 93.2943 145.357 93.2266 145.034 93.2266C144.691 93.2266 144.394 93.3099 144.144 93.4766C143.899 93.6432 143.711 93.875 143.581 94.1719C143.456 94.4688 143.394 94.8047 143.394 95.1797H141.136C141.136 94.5026 141.297 93.8828 141.62 93.3203C141.943 92.7526 142.399 92.3021 142.988 91.9688C143.576 91.6302 144.274 91.4609 145.081 91.4609C145.878 91.4609 146.55 91.5911 147.097 91.8516C147.649 92.1068 148.066 92.4766 148.347 92.9609C148.633 93.4401 148.777 94.013 148.777 94.6797C148.777 95.0547 148.717 95.4219 148.597 95.7812C148.477 96.1354 148.305 96.4896 148.081 96.8438C147.863 97.1927 147.597 97.5469 147.284 97.9062C146.972 98.2656 146.626 98.638 146.245 99.0234L144.269 101.242H149.144ZM156.334 91.6016V103H154.084V94.1953L151.381 95.0547V93.2812L156.092 91.6016H156.334ZM178.675 91.6016V103H176.425V94.1953L173.722 95.0547V93.2812L178.433 91.6016H178.675ZM188.163 91.6016V103H185.913V94.1953L183.209 95.0547V93.2812L187.92 91.6016H188.163ZM199.947 101.242V103H192.166V101.5L195.845 97.5547C196.215 97.1432 196.507 96.7812 196.72 96.4688C196.934 96.151 197.087 95.8672 197.181 95.6172C197.28 95.362 197.33 95.1198 197.33 94.8906C197.33 94.5469 197.272 94.2526 197.158 94.0078C197.043 93.7578 196.874 93.5651 196.65 93.4297C196.431 93.2943 196.16 93.2266 195.837 93.2266C195.494 93.2266 195.197 93.3099 194.947 93.4766C194.702 93.6432 194.515 93.875 194.384 94.1719C194.259 94.4688 194.197 94.8047 194.197 95.1797H191.939C191.939 94.5026 192.101 93.8828 192.423 93.3203C192.746 92.7526 193.202 92.3021 193.791 91.9688C194.379 91.6302 195.077 91.4609 195.884 91.4609C196.681 91.4609 197.353 91.5911 197.9 91.8516C198.452 92.1068 198.869 92.4766 199.15 92.9609C199.436 93.4401 199.58 94.013 199.58 94.6797C199.58 95.0547 199.52 95.4219 199.4 95.7812C199.28 96.1354 199.108 96.4896 198.884 96.8438C198.666 97.1927 198.4 97.5469 198.087 97.9062C197.775 98.2656 197.429 98.638 197.048 99.0234L195.072 101.242H199.947ZM207.137 91.6016V103H204.887V94.1953L202.184 95.0547V93.2812L206.895 91.6016H207.137Z" fill="white"/>
<rect x="275.25" y="25.25" width="31.5" height="23.881" rx="3.75" fill="url(#paint0_linear_2_3040)" stroke="#9F7E3B" stroke-width="0.5"/>
<path d="M275.5 32.5H284C285.105 32.5 286 33.3954 286 34.5V38.375M286 48.9V44.25M286 44.25V38.375M286 44.25H275.5M286 38.375H275.5" stroke="black" stroke-opacity="0.76" stroke-width="0.5"/>
<path d="M306.5 32.5H296.5M296.5 32.5V38.375M296.5 32.5V25.5M296.5 48.9V44.25M296.5 44.25V38.375M296.5 44.25H306.5M296.5 38.375H306.5" stroke="black" stroke-opacity="0.76" stroke-width="0.5"/>
<defs>
<linearGradient id="paint0_linear_2_3040" x1="275" y1="25" x2="307" y2="49.5" gradientUnits="userSpaceOnUse">
<stop stop-color="#E6AC3C"/>
<stop offset="1" stop-color="#FFDA93"/>
</linearGradient>
</defs>
</svg>
