<svg width="327" height="190" viewBox="0 0 327 190" fill="none" xmlns="http://www.w3.org/2000/svg">
<rect width="327" height="190" rx="16" fill="#1DAB87"/>
<mask id="mask0_2_2834" style="mask-type:alpha" maskUnits="userSpaceOnUse" x="0" y="0" width="327" height="190">
<rect width="327" height="190" rx="16" fill="#1DAB87"/>
</mask>
<g mask="url(#mask0_2_2834)">
<path d="M46.189 -20C25.5764 2.22301 -14.8864 54.3126 -11.8369 84.8869C-8.02495 123.105 40.7333 114.474 47.883 112.064C52.8968 110.374 106.332 83.613 116.074 56.0112C125.816 28.4094 96.1418 30.9422 93.2024 31.8065C80.4926 35.5437 61.0129 43.6965 42.3769 79.7912C23.7409 115.886 20.776 142.638 34.3295 155.378C45.1723 165.569 70.2495 164.654 93.4667 162.918C133.837 159.9 166.307 134.315 187.653 119.708C209 105.1 289.446 47.6599 327 20.7658" stroke="#FFB9AA" stroke-width="0.5" stroke-linecap="round"/>
<rect x="20.25" y="24.25" width="31.5" height="23.881" rx="3.75" fill="white" stroke="#1D3A70" stroke-width="0.5"/>
<path d="M20.5 31.5H29C30.1046 31.5 31 32.3954 31 33.5V37.375M31 47.9V43.25M31 43.25V37.375M31 43.25H20.5M31 37.375H20.5" stroke="#1D3A70" stroke-width="0.5"/>
<path d="M51.5 31.5H41.5M41.5 31.5V37.375M41.5 31.5V24.5M41.5 47.9V43.25M41.5 43.25V37.375M41.5 43.25H51.5M41.5 37.375H51.5" stroke="#1D3A70" stroke-width="0.5"/>
<path d="M76.16 28.9099C79.48 33.2099 79.48 38.7999 76.16 43.0999" stroke="white" stroke-width="1.5" stroke-linecap="round" stroke-linejoin="round"/>
<path d="M79.64 26C84.32 32.06 84.32 39.94 79.64 46" stroke="white" stroke-width="1.5" stroke-linecap="round" stroke-linejoin="round"/>
<path d="M72.51 30.79C74.95 33.94 74.95 38.05 72.51 41.2" stroke="white" stroke-width="1.5" stroke-linecap="round" stroke-linejoin="round"/>
<path d="M68.8499 33.4C70.0699 34.98 70.0699 37.03 68.8499 38.61" stroke="white" stroke-width="1.5" stroke-linecap="round" stroke-linejoin="round"/>
<path d="M27.3828 94.1484V95.8711C27.3828 96.6185 27.3031 97.2633 27.1436 97.8057C26.984 98.3434 26.7539 98.7855 26.4531 99.1318C26.1569 99.4736 25.8037 99.7266 25.3936 99.8906C24.9834 100.055 24.5277 100.137 24.0264 100.137C23.6253 100.137 23.2516 100.087 22.9053 99.9863C22.5589 99.8815 22.2467 99.7197 21.9688 99.501C21.6953 99.2822 21.4583 99.0065 21.2578 98.6738C21.0618 98.3366 20.9115 97.9355 20.8066 97.4707C20.7018 97.0059 20.6494 96.4727 20.6494 95.8711V94.1484C20.6494 93.401 20.7292 92.7607 20.8887 92.2275C21.0527 91.6898 21.2829 91.25 21.5791 90.9082C21.8799 90.5664 22.2354 90.3158 22.6455 90.1562C23.0557 89.9922 23.5114 89.9102 24.0127 89.9102C24.4137 89.9102 24.7852 89.9626 25.127 90.0674C25.4733 90.1676 25.7855 90.3249 26.0635 90.5391C26.3415 90.7533 26.5785 91.029 26.7744 91.3662C26.9704 91.6989 27.1208 92.0977 27.2256 92.5625C27.3304 93.0228 27.3828 93.5514 27.3828 94.1484ZM25.4072 96.1309V93.8818C25.4072 93.5218 25.3867 93.2074 25.3457 92.9385C25.3092 92.6696 25.2523 92.4417 25.1748 92.2549C25.0973 92.0635 25.0016 91.9085 24.8877 91.79C24.7738 91.6715 24.6439 91.585 24.498 91.5303C24.3522 91.4756 24.1904 91.4482 24.0127 91.4482C23.7894 91.4482 23.5911 91.4915 23.418 91.5781C23.2493 91.6647 23.1058 91.8037 22.9873 91.9951C22.8688 92.182 22.7777 92.4326 22.7139 92.7471C22.6546 93.057 22.625 93.4352 22.625 93.8818V96.1309C22.625 96.4909 22.6432 96.8076 22.6797 97.0811C22.7207 97.3545 22.7799 97.5892 22.8574 97.7852C22.9395 97.9766 23.0352 98.1338 23.1445 98.2568C23.2585 98.3753 23.3883 98.4619 23.5342 98.5166C23.6846 98.5713 23.8486 98.5986 24.0264 98.5986C24.2451 98.5986 24.4388 98.5553 24.6074 98.4688C24.7806 98.3776 24.9264 98.2363 25.0449 98.0449C25.168 97.849 25.2591 97.5938 25.3184 97.2793C25.3776 96.9648 25.4072 96.582 25.4072 96.1309ZM35.7219 94.1484V95.8711C35.7219 96.6185 35.6421 97.2633 35.4826 97.8057C35.3231 98.3434 35.093 98.7855 34.7922 99.1318C34.496 99.4736 34.1428 99.7266 33.7326 99.8906C33.3225 100.055 32.8667 100.137 32.3654 100.137C31.9644 100.137 31.5907 100.087 31.2443 99.9863C30.898 99.8815 30.5858 99.7197 30.3078 99.501C30.0344 99.2822 29.7974 99.0065 29.5969 98.6738C29.4009 98.3366 29.2505 97.9355 29.1457 97.4707C29.0409 97.0059 28.9885 96.4727 28.9885 95.8711V94.1484C28.9885 93.401 29.0682 92.7607 29.2277 92.2275C29.3918 91.6898 29.6219 91.25 29.9182 90.9082C30.2189 90.5664 30.5744 90.3158 30.9846 90.1562C31.3947 89.9922 31.8505 89.9102 32.3518 89.9102C32.7528 89.9102 33.1242 89.9626 33.466 90.0674C33.8124 90.1676 34.1245 90.3249 34.4025 90.5391C34.6805 90.7533 34.9175 91.029 35.1135 91.3662C35.3094 91.6989 35.4598 92.0977 35.5646 92.5625C35.6695 93.0228 35.7219 93.5514 35.7219 94.1484ZM33.7463 96.1309V93.8818C33.7463 93.5218 33.7258 93.2074 33.6848 92.9385C33.6483 92.6696 33.5913 92.4417 33.5139 92.2549C33.4364 92.0635 33.3407 91.9085 33.2268 91.79C33.1128 91.6715 32.9829 91.585 32.8371 91.5303C32.6913 91.4756 32.5295 91.4482 32.3518 91.4482C32.1285 91.4482 31.9302 91.4915 31.757 91.5781C31.5884 91.6647 31.4449 91.8037 31.3264 91.9951C31.2079 92.182 31.1167 92.4326 31.0529 92.7471C30.9937 93.057 30.9641 93.4352 30.9641 93.8818V96.1309C30.9641 96.4909 30.9823 96.8076 31.0188 97.0811C31.0598 97.3545 31.119 97.5892 31.1965 97.7852C31.2785 97.9766 31.3742 98.1338 31.4836 98.2568C31.5975 98.3753 31.7274 98.4619 31.8732 98.5166C32.0236 98.5713 32.1877 98.5986 32.3654 98.5986C32.5842 98.5986 32.7779 98.5553 32.9465 98.4688C33.1197 98.3776 33.2655 98.2363 33.384 98.0449C33.507 97.849 33.5982 97.5938 33.6574 97.2793C33.7167 96.9648 33.7463 96.582 33.7463 96.1309ZM44.0609 94.1484V95.8711C44.0609 96.6185 43.9812 97.2633 43.8217 97.8057C43.6622 98.3434 43.432 98.7855 43.1313 99.1318C42.835 99.4736 42.4818 99.7266 42.0717 99.8906C41.6615 100.055 41.2058 100.137 40.7045 100.137C40.3035 100.137 39.9298 100.087 39.5834 99.9863C39.237 99.8815 38.9249 99.7197 38.6469 99.501C38.3734 99.2822 38.1365 99.0065 37.9359 98.6738C37.74 98.3366 37.5896 97.9355 37.4848 97.4707C37.3799 97.0059 37.3275 96.4727 37.3275 95.8711V94.1484C37.3275 93.401 37.4073 92.7607 37.5668 92.2275C37.7309 91.6898 37.961 91.25 38.2572 90.9082C38.558 90.5664 38.9135 90.3158 39.3236 90.1562C39.7338 89.9922 40.1895 89.9102 40.6908 89.9102C41.0919 89.9102 41.4633 89.9626 41.8051 90.0674C42.1514 90.1676 42.4636 90.3249 42.7416 90.5391C43.0196 90.7533 43.2566 91.029 43.4525 91.3662C43.6485 91.6989 43.7989 92.0977 43.9037 92.5625C44.0085 93.0228 44.0609 93.5514 44.0609 94.1484ZM42.0854 96.1309V93.8818C42.0854 93.5218 42.0648 93.2074 42.0238 92.9385C41.9874 92.6696 41.9304 92.4417 41.8529 92.2549C41.7755 92.0635 41.6798 91.9085 41.5658 91.79C41.4519 91.6715 41.322 91.585 41.1762 91.5303C41.0303 91.4756 40.8686 91.4482 40.6908 91.4482C40.4675 91.4482 40.2693 91.4915 40.0961 91.5781C39.9275 91.6647 39.7839 91.8037 39.6654 91.9951C39.5469 92.182 39.4558 92.4326 39.392 92.7471C39.3327 93.057 39.3031 93.4352 39.3031 93.8818V96.1309C39.3031 96.4909 39.3214 96.8076 39.3578 97.0811C39.3988 97.3545 39.4581 97.5892 39.5355 97.7852C39.6176 97.9766 39.7133 98.1338 39.8227 98.2568C39.9366 98.3753 40.0665 98.4619 40.2123 98.5166C40.3627 98.5713 40.5268 98.5986 40.7045 98.5986C40.9232 98.5986 41.1169 98.5553 41.2855 98.4688C41.4587 98.3776 41.6046 98.2363 41.723 98.0449C41.8461 97.849 41.9372 97.5938 41.9965 97.2793C42.0557 96.9648 42.0854 96.582 42.0854 96.1309ZM52.4 94.1484V95.8711C52.4 96.6185 52.3202 97.2633 52.1607 97.8057C52.0012 98.3434 51.7711 98.7855 51.4703 99.1318C51.1741 99.4736 50.8209 99.7266 50.4107 99.8906C50.0006 100.055 49.5449 100.137 49.0436 100.137C48.6425 100.137 48.2688 100.087 47.9225 99.9863C47.5761 99.8815 47.2639 99.7197 46.9859 99.501C46.7125 99.2822 46.4755 99.0065 46.275 98.6738C46.079 98.3366 45.9286 97.9355 45.8238 97.4707C45.719 97.0059 45.6666 96.4727 45.6666 95.8711V94.1484C45.6666 93.401 45.7464 92.7607 45.9059 92.2275C46.0699 91.6898 46.3001 91.25 46.5963 90.9082C46.8971 90.5664 47.2525 90.3158 47.6627 90.1562C48.0729 89.9922 48.5286 89.9102 49.0299 89.9102C49.4309 89.9102 49.8023 89.9626 50.1441 90.0674C50.4905 90.1676 50.8027 90.3249 51.0807 90.5391C51.3587 90.7533 51.5956 91.029 51.7916 91.3662C51.9876 91.6989 52.138 92.0977 52.2428 92.5625C52.3476 93.0228 52.4 93.5514 52.4 94.1484ZM50.4244 96.1309V93.8818C50.4244 93.5218 50.4039 93.2074 50.3629 92.9385C50.3264 92.6696 50.2695 92.4417 50.192 92.2549C50.1145 92.0635 50.0188 91.9085 49.9049 91.79C49.791 91.6715 49.6611 91.585 49.5152 91.5303C49.3694 91.4756 49.2076 91.4482 49.0299 91.4482C48.8066 91.4482 48.6083 91.4915 48.4352 91.5781C48.2665 91.6647 48.123 91.8037 48.0045 91.9951C47.886 92.182 47.7949 92.4326 47.7311 92.7471C47.6718 93.057 47.6422 93.4352 47.6422 93.8818V96.1309C47.6422 96.4909 47.6604 96.8076 47.6969 97.0811C47.7379 97.3545 47.7971 97.5892 47.8746 97.7852C47.9566 97.9766 48.0523 98.1338 48.1617 98.2568C48.2757 98.3753 48.4055 98.4619 48.5514 98.5166C48.7018 98.5713 48.8658 98.5986 49.0436 98.5986C49.2623 98.5986 49.456 98.5553 49.6246 98.4688C49.7978 98.3776 49.9436 98.2363 50.0621 98.0449C50.1852 97.849 50.2763 97.5938 50.3355 97.2793C50.3948 96.9648 50.4244 96.582 50.4244 96.1309ZM72.098 94.1484V95.8711C72.098 96.6185 72.0183 97.2633 71.8588 97.8057C71.6993 98.3434 71.4691 98.7855 71.1684 99.1318C70.8721 99.4736 70.5189 99.7266 70.1088 99.8906C69.6986 100.055 69.2429 100.137 68.7416 100.137C68.3406 100.137 67.9669 100.087 67.6205 99.9863C67.2742 99.8815 66.962 99.7197 66.684 99.501C66.4105 99.2822 66.1736 99.0065 65.973 98.6738C65.7771 98.3366 65.6267 97.9355 65.5219 97.4707C65.4171 97.0059 65.3646 96.4727 65.3646 95.8711V94.1484C65.3646 93.401 65.4444 92.7607 65.6039 92.2275C65.768 91.6898 65.9981 91.25 66.2943 90.9082C66.5951 90.5664 66.9506 90.3158 67.3607 90.1562C67.7709 89.9922 68.2266 89.9102 68.7279 89.9102C69.129 89.9102 69.5004 89.9626 69.8422 90.0674C70.1885 90.1676 70.5007 90.3249 70.7787 90.5391C71.0567 90.7533 71.2937 91.029 71.4896 91.3662C71.6856 91.6989 71.836 92.0977 71.9408 92.5625C72.0456 93.0228 72.098 93.5514 72.098 94.1484ZM70.1225 96.1309V93.8818C70.1225 93.5218 70.102 93.2074 70.0609 92.9385C70.0245 92.6696 69.9675 92.4417 69.89 92.2549C69.8126 92.0635 69.7169 91.9085 69.6029 91.79C69.489 91.6715 69.3591 91.585 69.2133 91.5303C69.0674 91.4756 68.9057 91.4482 68.7279 91.4482C68.5046 91.4482 68.3064 91.4915 68.1332 91.5781C67.9646 91.6647 67.821 91.8037 67.7025 91.9951C67.584 92.182 67.4929 92.4326 67.4291 92.7471C67.3699 93.057 67.3402 93.4352 67.3402 93.8818V96.1309C67.3402 96.4909 67.3585 96.8076 67.3949 97.0811C67.4359 97.3545 67.4952 97.5892 67.5727 97.7852C67.6547 97.9766 67.7504 98.1338 67.8598 98.2568C67.9737 98.3753 68.1036 98.4619 68.2494 98.5166C68.3998 98.5713 68.5639 98.5986 68.7416 98.5986C68.9604 98.5986 69.154 98.5553 69.3227 98.4688C69.4958 98.3776 69.6417 98.2363 69.7602 98.0449C69.8832 97.849 69.9743 97.5938 70.0336 97.2793C70.0928 96.9648 70.1225 96.582 70.1225 96.1309ZM80.4371 94.1484V95.8711C80.4371 96.6185 80.3574 97.2633 80.1979 97.8057C80.0383 98.3434 79.8082 98.7855 79.5074 99.1318C79.2112 99.4736 78.858 99.7266 78.4479 99.8906C78.0377 100.055 77.582 100.137 77.0807 100.137C76.6796 100.137 76.3059 100.087 75.9596 99.9863C75.6132 99.8815 75.301 99.7197 75.023 99.501C74.7496 99.2822 74.5126 99.0065 74.3121 98.6738C74.1161 98.3366 73.9658 97.9355 73.8609 97.4707C73.7561 97.0059 73.7037 96.4727 73.7037 95.8711V94.1484C73.7037 93.401 73.7835 92.7607 73.943 92.2275C74.107 91.6898 74.3372 91.25 74.6334 90.9082C74.9342 90.5664 75.2896 90.3158 75.6998 90.1562C76.11 89.9922 76.5657 89.9102 77.067 89.9102C77.468 89.9102 77.8395 89.9626 78.1813 90.0674C78.5276 90.1676 78.8398 90.3249 79.1178 90.5391C79.3958 90.7533 79.6327 91.029 79.8287 91.3662C80.0247 91.6989 80.1751 92.0977 80.2799 92.5625C80.3847 93.0228 80.4371 93.5514 80.4371 94.1484ZM78.4615 96.1309V93.8818C78.4615 93.5218 78.441 93.2074 78.4 92.9385C78.3635 92.6696 78.3066 92.4417 78.2291 92.2549C78.1516 92.0635 78.0559 91.9085 77.942 91.79C77.8281 91.6715 77.6982 91.585 77.5523 91.5303C77.4065 91.4756 77.2447 91.4482 77.067 91.4482C76.8437 91.4482 76.6454 91.4915 76.4723 91.5781C76.3036 91.6647 76.1601 91.8037 76.0416 91.9951C75.9231 92.182 75.832 92.4326 75.7682 92.7471C75.7089 93.057 75.6793 93.4352 75.6793 93.8818V96.1309C75.6793 96.4909 75.6975 96.8076 75.734 97.0811C75.775 97.3545 75.8342 97.5892 75.9117 97.7852C75.9938 97.9766 76.0895 98.1338 76.1988 98.2568C76.3128 98.3753 76.4426 98.4619 76.5885 98.5166C76.7389 98.5713 76.9029 98.5986 77.0807 98.5986C77.2994 98.5986 77.4931 98.5553 77.6617 98.4688C77.8349 98.3776 77.9807 98.2363 78.0992 98.0449C78.2223 97.849 78.3134 97.5938 78.3727 97.2793C78.4319 96.9648 78.4615 96.582 78.4615 96.1309ZM88.7762 94.1484V95.8711C88.7762 96.6185 88.6964 97.2633 88.5369 97.8057C88.3774 98.3434 88.1473 98.7855 87.8465 99.1318C87.5503 99.4736 87.1971 99.7266 86.7869 99.8906C86.3768 100.055 85.921 100.137 85.4197 100.137C85.0187 100.137 84.645 100.087 84.2986 99.9863C83.9523 99.8815 83.6401 99.7197 83.3621 99.501C83.0887 99.2822 82.8517 99.0065 82.6512 98.6738C82.4552 98.3366 82.3048 97.9355 82.2 97.4707C82.0952 97.0059 82.0428 96.4727 82.0428 95.8711V94.1484C82.0428 93.401 82.1225 92.7607 82.282 92.2275C82.4461 91.6898 82.6762 91.25 82.9725 90.9082C83.2732 90.5664 83.6287 90.3158 84.0389 90.1562C84.449 89.9922 84.9048 89.9102 85.4061 89.9102C85.8071 89.9102 86.1785 89.9626 86.5203 90.0674C86.8667 90.1676 87.1788 90.3249 87.4568 90.5391C87.7348 90.7533 87.9718 91.029 88.1678 91.3662C88.3637 91.6989 88.5141 92.0977 88.6189 92.5625C88.7238 93.0228 88.7762 93.5514 88.7762 94.1484ZM86.8006 96.1309V93.8818C86.8006 93.5218 86.7801 93.2074 86.7391 92.9385C86.7026 92.6696 86.6456 92.4417 86.5682 92.2549C86.4907 92.0635 86.395 91.9085 86.2811 91.79C86.1671 91.6715 86.0372 91.585 85.8914 91.5303C85.7456 91.4756 85.5838 91.4482 85.4061 91.4482C85.1827 91.4482 84.9845 91.4915 84.8113 91.5781C84.6427 91.6647 84.4992 91.8037 84.3807 91.9951C84.2622 92.182 84.171 92.4326 84.1072 92.7471C84.048 93.057 84.0184 93.4352 84.0184 93.8818V96.1309C84.0184 96.4909 84.0366 96.8076 84.073 97.0811C84.1141 97.3545 84.1733 97.5892 84.2508 97.7852C84.3328 97.9766 84.4285 98.1338 84.5379 98.2568C84.6518 98.3753 84.7817 98.4619 84.9275 98.5166C85.0779 98.5713 85.242 98.5986 85.4197 98.5986C85.6385 98.5986 85.8322 98.5553 86.0008 98.4688C86.174 98.3776 86.3198 98.2363 86.4383 98.0449C86.5613 97.849 86.6525 97.5938 86.7117 97.2793C86.771 96.9648 86.8006 96.582 86.8006 96.1309ZM97.1152 94.1484V95.8711C97.1152 96.6185 97.0355 97.2633 96.876 97.8057C96.7165 98.3434 96.4863 98.7855 96.1855 99.1318C95.8893 99.4736 95.5361 99.7266 95.126 99.8906C94.7158 100.055 94.2601 100.137 93.7588 100.137C93.3577 100.137 92.984 100.087 92.6377 99.9863C92.2913 99.8815 91.9792 99.7197 91.7012 99.501C91.4277 99.2822 91.1908 99.0065 90.9902 98.6738C90.7943 98.3366 90.6439 97.9355 90.5391 97.4707C90.4342 97.0059 90.3818 96.4727 90.3818 95.8711V94.1484C90.3818 93.401 90.4616 92.7607 90.6211 92.2275C90.7852 91.6898 91.0153 91.25 91.3115 90.9082C91.6123 90.5664 91.9678 90.3158 92.3779 90.1562C92.7881 89.9922 93.2438 89.9102 93.7451 89.9102C94.1462 89.9102 94.5176 89.9626 94.8594 90.0674C95.2057 90.1676 95.5179 90.3249 95.7959 90.5391C96.0739 90.7533 96.3109 91.029 96.5068 91.3662C96.7028 91.6989 96.8532 92.0977 96.958 92.5625C97.0628 93.0228 97.1152 93.5514 97.1152 94.1484ZM95.1396 96.1309V93.8818C95.1396 93.5218 95.1191 93.2074 95.0781 92.9385C95.0417 92.6696 94.9847 92.4417 94.9072 92.2549C94.8298 92.0635 94.734 91.9085 94.6201 91.79C94.5062 91.6715 94.3763 91.585 94.2305 91.5303C94.0846 91.4756 93.9229 91.4482 93.7451 91.4482C93.5218 91.4482 93.3236 91.4915 93.1504 91.5781C92.9818 91.6647 92.8382 91.8037 92.7197 91.9951C92.6012 92.182 92.5101 92.4326 92.4463 92.7471C92.387 93.057 92.3574 93.4352 92.3574 93.8818V96.1309C92.3574 96.4909 92.3757 96.8076 92.4121 97.0811C92.4531 97.3545 92.5124 97.5892 92.5898 97.7852C92.6719 97.9766 92.7676 98.1338 92.877 98.2568C92.9909 98.3753 93.1208 98.4619 93.2666 98.5166C93.417 98.5713 93.5811 98.5986 93.7588 98.5986C93.9775 98.5986 94.1712 98.5553 94.3398 98.4688C94.513 98.3776 94.6589 98.2363 94.7773 98.0449C94.9004 97.849 94.9915 97.5938 95.0508 97.2793C95.11 96.9648 95.1396 96.582 95.1396 96.1309ZM116.813 94.1484V95.8711C116.813 96.6185 116.734 97.2633 116.574 97.8057C116.415 98.3434 116.184 98.7855 115.884 99.1318C115.587 99.4736 115.234 99.7266 114.824 99.8906C114.414 100.055 113.958 100.137 113.457 100.137C113.056 100.137 112.682 100.087 112.336 99.9863C111.989 99.8815 111.677 99.7197 111.399 99.501C111.126 99.2822 110.889 99.0065 110.688 98.6738C110.492 98.3366 110.342 97.9355 110.237 97.4707C110.132 97.0059 110.08 96.4727 110.08 95.8711V94.1484C110.08 93.401 110.16 92.7607 110.319 92.2275C110.483 91.6898 110.713 91.25 111.01 90.9082C111.31 90.5664 111.666 90.3158 112.076 90.1562C112.486 89.9922 112.942 89.9102 113.443 89.9102C113.844 89.9102 114.216 89.9626 114.557 90.0674C114.904 90.1676 115.216 90.3249 115.494 90.5391C115.772 90.7533 116.009 91.029 116.205 91.3662C116.401 91.6989 116.551 92.0977 116.656 92.5625C116.761 93.0228 116.813 93.5514 116.813 94.1484ZM114.838 96.1309V93.8818C114.838 93.5218 114.817 93.2074 114.776 92.9385C114.74 92.6696 114.683 92.4417 114.605 92.2549C114.528 92.0635 114.432 91.9085 114.318 91.79C114.204 91.6715 114.074 91.585 113.929 91.5303C113.783 91.4756 113.621 91.4482 113.443 91.4482C113.22 91.4482 113.022 91.4915 112.848 91.5781C112.68 91.6647 112.536 91.8037 112.418 91.9951C112.299 92.182 112.208 92.4326 112.144 92.7471C112.085 93.057 112.055 93.4352 112.055 93.8818V96.1309C112.055 96.4909 112.074 96.8076 112.11 97.0811C112.151 97.3545 112.21 97.5892 112.288 97.7852C112.37 97.9766 112.466 98.1338 112.575 98.2568C112.689 98.3753 112.819 98.4619 112.965 98.5166C113.115 98.5713 113.279 98.5986 113.457 98.5986C113.676 98.5986 113.869 98.5553 114.038 98.4688C114.211 98.3776 114.357 98.2363 114.475 98.0449C114.598 97.849 114.69 97.5938 114.749 97.2793C114.808 96.9648 114.838 96.582 114.838 96.1309ZM125.152 94.1484V95.8711C125.152 96.6185 125.073 97.2633 124.913 97.8057C124.754 98.3434 124.523 98.7855 124.223 99.1318C123.926 99.4736 123.573 99.7266 123.163 99.8906C122.753 100.055 122.297 100.137 121.796 100.137C121.395 100.137 121.021 100.087 120.675 99.9863C120.328 99.8815 120.016 99.7197 119.738 99.501C119.465 99.2822 119.228 99.0065 119.027 98.6738C118.831 98.3366 118.681 97.9355 118.576 97.4707C118.471 97.0059 118.419 96.4727 118.419 95.8711V94.1484C118.419 93.401 118.499 92.7607 118.658 92.2275C118.822 91.6898 119.052 91.25 119.349 90.9082C119.649 90.5664 120.005 90.3158 120.415 90.1562C120.825 89.9922 121.281 89.9102 121.782 89.9102C122.183 89.9102 122.555 89.9626 122.896 90.0674C123.243 90.1676 123.555 90.3249 123.833 90.5391C124.111 90.7533 124.348 91.029 124.544 91.3662C124.74 91.6989 124.89 92.0977 124.995 92.5625C125.1 93.0228 125.152 93.5514 125.152 94.1484ZM123.177 96.1309V93.8818C123.177 93.5218 123.156 93.2074 123.115 92.9385C123.079 92.6696 123.022 92.4417 122.944 92.2549C122.867 92.0635 122.771 91.9085 122.657 91.79C122.543 91.6715 122.413 91.585 122.268 91.5303C122.122 91.4756 121.96 91.4482 121.782 91.4482C121.559 91.4482 121.361 91.4915 121.188 91.5781C121.019 91.6647 120.875 91.8037 120.757 91.9951C120.638 92.182 120.547 92.4326 120.483 92.7471C120.424 93.057 120.395 93.4352 120.395 93.8818V96.1309C120.395 96.4909 120.413 96.8076 120.449 97.0811C120.49 97.3545 120.549 97.5892 120.627 97.7852C120.709 97.9766 120.805 98.1338 120.914 98.2568C121.028 98.3753 121.158 98.4619 121.304 98.5166C121.454 98.5713 121.618 98.5986 121.796 98.5986C122.015 98.5986 122.208 98.5553 122.377 98.4688C122.55 98.3776 122.696 98.2363 122.814 98.0449C122.938 97.849 123.029 97.5938 123.088 97.2793C123.147 96.9648 123.177 96.582 123.177 96.1309ZM133.491 94.1484V95.8711C133.491 96.6185 133.412 97.2633 133.252 97.8057C133.093 98.3434 132.863 98.7855 132.562 99.1318C132.265 99.4736 131.912 99.7266 131.502 99.8906C131.092 100.055 130.636 100.137 130.135 100.137C129.734 100.137 129.36 100.087 129.014 99.9863C128.668 99.8815 128.355 99.7197 128.077 99.501C127.804 99.2822 127.567 99.0065 127.366 98.6738C127.17 98.3366 127.02 97.9355 126.915 97.4707C126.81 97.0059 126.758 96.4727 126.758 95.8711V94.1484C126.758 93.401 126.838 92.7607 126.997 92.2275C127.161 91.6898 127.391 91.25 127.688 90.9082C127.988 90.5664 128.344 90.3158 128.754 90.1562C129.164 89.9922 129.62 89.9102 130.121 89.9102C130.522 89.9102 130.894 89.9626 131.236 90.0674C131.582 90.1676 131.894 90.3249 132.172 90.5391C132.45 90.7533 132.687 91.029 132.883 91.3662C133.079 91.6989 133.229 92.0977 133.334 92.5625C133.439 93.0228 133.491 93.5514 133.491 94.1484ZM131.516 96.1309V93.8818C131.516 93.5218 131.495 93.2074 131.454 92.9385C131.418 92.6696 131.361 92.4417 131.283 92.2549C131.206 92.0635 131.11 91.9085 130.996 91.79C130.882 91.6715 130.752 91.585 130.607 91.5303C130.461 91.4756 130.299 91.4482 130.121 91.4482C129.898 91.4482 129.7 91.4915 129.527 91.5781C129.358 91.6647 129.214 91.8037 129.096 91.9951C128.977 92.182 128.886 92.4326 128.822 92.7471C128.763 93.057 128.734 93.4352 128.734 93.8818V96.1309C128.734 96.4909 128.752 96.8076 128.788 97.0811C128.829 97.3545 128.889 97.5892 128.966 97.7852C129.048 97.9766 129.144 98.1338 129.253 98.2568C129.367 98.3753 129.497 98.4619 129.643 98.5166C129.793 98.5713 129.957 98.5986 130.135 98.5986C130.354 98.5986 130.547 98.5553 130.716 98.4688C130.889 98.3776 131.035 98.2363 131.154 98.0449C131.277 97.849 131.368 97.5938 131.427 97.2793C131.486 96.9648 131.516 96.582 131.516 96.1309ZM141.83 94.1484V95.8711C141.83 96.6185 141.751 97.2633 141.591 97.8057C141.432 98.3434 141.202 98.7855 140.901 99.1318C140.605 99.4736 140.251 99.7266 139.841 99.8906C139.431 100.055 138.975 100.137 138.474 100.137C138.073 100.137 137.699 100.087 137.353 99.9863C137.007 99.8815 136.694 99.7197 136.416 99.501C136.143 99.2822 135.906 99.0065 135.705 98.6738C135.51 98.3366 135.359 97.9355 135.254 97.4707C135.149 97.0059 135.097 96.4727 135.097 95.8711V94.1484C135.097 93.401 135.177 92.7607 135.336 92.2275C135.5 91.6898 135.731 91.25 136.027 90.9082C136.328 90.5664 136.683 90.3158 137.093 90.1562C137.503 89.9922 137.959 89.9102 138.46 89.9102C138.861 89.9102 139.233 89.9626 139.575 90.0674C139.921 90.1676 140.233 90.3249 140.511 90.5391C140.789 90.7533 141.026 91.029 141.222 91.3662C141.418 91.6989 141.568 92.0977 141.673 92.5625C141.778 93.0228 141.83 93.5514 141.83 94.1484ZM139.855 96.1309V93.8818C139.855 93.5218 139.834 93.2074 139.793 92.9385C139.757 92.6696 139.7 92.4417 139.622 92.2549C139.545 92.0635 139.449 91.9085 139.335 91.79C139.221 91.6715 139.092 91.585 138.946 91.5303C138.8 91.4756 138.638 91.4482 138.46 91.4482C138.237 91.4482 138.039 91.4915 137.866 91.5781C137.697 91.6647 137.553 91.8037 137.435 91.9951C137.316 92.182 137.225 92.4326 137.162 92.7471C137.102 93.057 137.073 93.4352 137.073 93.8818V96.1309C137.073 96.4909 137.091 96.8076 137.127 97.0811C137.168 97.3545 137.228 97.5892 137.305 97.7852C137.387 97.9766 137.483 98.1338 137.592 98.2568C137.706 98.3753 137.836 98.4619 137.982 98.5166C138.132 98.5713 138.296 98.5986 138.474 98.5986C138.693 98.5986 138.886 98.5553 139.055 98.4688C139.228 98.3776 139.374 98.2363 139.493 98.0449C139.616 97.849 139.707 97.5938 139.766 97.2793C139.825 96.9648 139.855 96.582 139.855 96.1309ZM161.529 94.1484V95.8711C161.529 96.6185 161.449 97.2633 161.289 97.8057C161.13 98.3434 160.9 98.7855 160.599 99.1318C160.303 99.4736 159.949 99.7266 159.539 99.8906C159.129 100.055 158.673 100.137 158.172 100.137C157.771 100.137 157.397 100.087 157.051 99.9863C156.705 99.8815 156.392 99.7197 156.114 99.501C155.841 99.2822 155.604 99.0065 155.404 98.6738C155.208 98.3366 155.057 97.9355 154.952 97.4707C154.848 97.0059 154.795 96.4727 154.795 95.8711V94.1484C154.795 93.401 154.875 92.7607 155.034 92.2275C155.198 91.6898 155.429 91.25 155.725 90.9082C156.026 90.5664 156.381 90.3158 156.791 90.1562C157.201 89.9922 157.657 89.9102 158.158 89.9102C158.559 89.9102 158.931 89.9626 159.273 90.0674C159.619 90.1676 159.931 90.3249 160.209 90.5391C160.487 90.7533 160.724 91.029 160.92 91.3662C161.116 91.6989 161.266 92.0977 161.371 92.5625C161.476 93.0228 161.529 93.5514 161.529 94.1484ZM159.553 96.1309V93.8818C159.553 93.5218 159.532 93.2074 159.491 92.9385C159.455 92.6696 159.398 92.4417 159.321 92.2549C159.243 92.0635 159.147 91.9085 159.033 91.79C158.919 91.6715 158.79 91.585 158.644 91.5303C158.498 91.4756 158.336 91.4482 158.158 91.4482C157.935 91.4482 157.737 91.4915 157.564 91.5781C157.395 91.6647 157.252 91.8037 157.133 91.9951C157.015 92.182 156.923 92.4326 156.86 92.7471C156.8 93.057 156.771 93.4352 156.771 93.8818V96.1309C156.771 96.4909 156.789 96.8076 156.825 97.0811C156.866 97.3545 156.926 97.5892 157.003 97.7852C157.085 97.9766 157.181 98.1338 157.29 98.2568C157.404 98.3753 157.534 98.4619 157.68 98.5166C157.83 98.5713 157.994 98.5986 158.172 98.5986C158.391 98.5986 158.585 98.5553 158.753 98.4688C158.926 98.3776 159.072 98.2363 159.191 98.0449C159.314 97.849 159.405 97.5938 159.464 97.2793C159.523 96.9648 159.553 96.582 159.553 96.1309ZM169.868 94.1484V95.8711C169.868 96.6185 169.788 97.2633 169.628 97.8057C169.469 98.3434 169.239 98.7855 168.938 99.1318C168.642 99.4736 168.288 99.7266 167.878 99.8906C167.468 100.055 167.012 100.137 166.511 100.137C166.11 100.137 165.736 100.087 165.39 99.9863C165.044 99.8815 164.732 99.7197 164.454 99.501C164.18 99.2822 163.943 99.0065 163.743 98.6738C163.547 98.3366 163.396 97.9355 163.291 97.4707C163.187 97.0059 163.134 96.4727 163.134 95.8711V94.1484C163.134 93.401 163.214 92.7607 163.373 92.2275C163.538 91.6898 163.768 91.25 164.064 90.9082C164.365 90.5664 164.72 90.3158 165.13 90.1562C165.54 89.9922 165.996 89.9102 166.497 89.9102C166.899 89.9102 167.27 89.9626 167.612 90.0674C167.958 90.1676 168.27 90.3249 168.548 90.5391C168.826 90.7533 169.063 91.029 169.259 91.3662C169.455 91.6989 169.606 92.0977 169.71 92.5625C169.815 93.0228 169.868 93.5514 169.868 94.1484ZM167.892 96.1309V93.8818C167.892 93.5218 167.871 93.2074 167.83 92.9385C167.794 92.6696 167.737 92.4417 167.66 92.2549C167.582 92.0635 167.486 91.9085 167.372 91.79C167.259 91.6715 167.129 91.585 166.983 91.5303C166.837 91.4756 166.675 91.4482 166.497 91.4482C166.274 91.4482 166.076 91.4915 165.903 91.5781C165.734 91.6647 165.591 91.8037 165.472 91.9951C165.354 92.182 165.262 92.4326 165.199 92.7471C165.139 93.057 165.11 93.4352 165.11 93.8818V96.1309C165.11 96.4909 165.128 96.8076 165.164 97.0811C165.205 97.3545 165.265 97.5892 165.342 97.7852C165.424 97.9766 165.52 98.1338 165.629 98.2568C165.743 98.3753 165.873 98.4619 166.019 98.5166C166.169 98.5713 166.333 98.5986 166.511 98.5986C166.73 98.5986 166.924 98.5553 167.092 98.4688C167.265 98.3776 167.411 98.2363 167.53 98.0449C167.653 97.849 167.744 97.5938 167.803 97.2793C167.862 96.9648 167.892 96.582 167.892 96.1309ZM178.207 94.1484V95.8711C178.207 96.6185 178.127 97.2633 177.967 97.8057C177.808 98.3434 177.578 98.7855 177.277 99.1318C176.981 99.4736 176.628 99.7266 176.217 99.8906C175.807 100.055 175.351 100.137 174.85 100.137C174.449 100.137 174.075 100.087 173.729 99.9863C173.383 99.8815 173.071 99.7197 172.793 99.501C172.519 99.2822 172.282 99.0065 172.082 98.6738C171.886 98.3366 171.735 97.9355 171.63 97.4707C171.526 97.0059 171.473 96.4727 171.473 95.8711V94.1484C171.473 93.401 171.553 92.7607 171.712 92.2275C171.877 91.6898 172.107 91.25 172.403 90.9082C172.704 90.5664 173.059 90.3158 173.469 90.1562C173.879 89.9922 174.335 89.9102 174.837 89.9102C175.238 89.9102 175.609 89.9626 175.951 90.0674C176.297 90.1676 176.609 90.3249 176.887 90.5391C177.165 90.7533 177.402 91.029 177.598 91.3662C177.794 91.6989 177.945 92.0977 178.049 92.5625C178.154 93.0228 178.207 93.5514 178.207 94.1484ZM176.231 96.1309V93.8818C176.231 93.5218 176.211 93.2074 176.17 92.9385C176.133 92.6696 176.076 92.4417 175.999 92.2549C175.921 92.0635 175.825 91.9085 175.712 91.79C175.598 91.6715 175.468 91.585 175.322 91.5303C175.176 91.4756 175.014 91.4482 174.837 91.4482C174.613 91.4482 174.415 91.4915 174.242 91.5781C174.073 91.6647 173.93 91.8037 173.811 91.9951C173.693 92.182 173.601 92.4326 173.538 92.7471C173.478 93.057 173.449 93.4352 173.449 93.8818V96.1309C173.449 96.4909 173.467 96.8076 173.504 97.0811C173.545 97.3545 173.604 97.5892 173.681 97.7852C173.763 97.9766 173.859 98.1338 173.968 98.2568C174.082 98.3753 174.212 98.4619 174.358 98.5166C174.508 98.5713 174.672 98.5986 174.85 98.5986C175.069 98.5986 175.263 98.5553 175.431 98.4688C175.604 98.3776 175.75 98.2363 175.869 98.0449C175.992 97.849 176.083 97.5938 176.142 97.2793C176.201 96.9648 176.231 96.582 176.231 96.1309ZM186.546 94.1484V95.8711C186.546 96.6185 186.466 97.2633 186.306 97.8057C186.147 98.3434 185.917 98.7855 185.616 99.1318C185.32 99.4736 184.967 99.7266 184.556 99.8906C184.146 100.055 183.691 100.137 183.189 100.137C182.788 100.137 182.415 100.087 182.068 99.9863C181.722 99.8815 181.41 99.7197 181.132 99.501C180.858 99.2822 180.621 99.0065 180.421 98.6738C180.225 98.3366 180.074 97.9355 179.97 97.4707C179.865 97.0059 179.812 96.4727 179.812 95.8711V94.1484C179.812 93.401 179.892 92.7607 180.052 92.2275C180.216 91.6898 180.446 91.25 180.742 90.9082C181.043 90.5664 181.398 90.3158 181.808 90.1562C182.219 89.9922 182.674 89.9102 183.176 89.9102C183.577 89.9102 183.948 89.9626 184.29 90.0674C184.636 90.1676 184.948 90.3249 185.226 90.5391C185.504 90.7533 185.741 91.029 185.937 91.3662C186.133 91.6989 186.284 92.0977 186.388 92.5625C186.493 93.0228 186.546 93.5514 186.546 94.1484ZM184.57 96.1309V93.8818C184.57 93.5218 184.55 93.2074 184.509 92.9385C184.472 92.6696 184.415 92.4417 184.338 92.2549C184.26 92.0635 184.165 91.9085 184.051 91.79C183.937 91.6715 183.807 91.585 183.661 91.5303C183.515 91.4756 183.353 91.4482 183.176 91.4482C182.952 91.4482 182.754 91.4915 182.581 91.5781C182.412 91.6647 182.269 91.8037 182.15 91.9951C182.032 92.182 181.941 92.4326 181.877 92.7471C181.818 93.057 181.788 93.4352 181.788 93.8818V96.1309C181.788 96.4909 181.806 96.8076 181.843 97.0811C181.884 97.3545 181.943 97.5892 182.02 97.7852C182.102 97.9766 182.198 98.1338 182.307 98.2568C182.421 98.3753 182.551 98.4619 182.697 98.5166C182.847 98.5713 183.012 98.5986 183.189 98.5986C183.408 98.5986 183.602 98.5553 183.77 98.4688C183.943 98.3776 184.089 98.2363 184.208 98.0449C184.331 97.849 184.422 97.5938 184.481 97.2793C184.54 96.9648 184.57 96.582 184.57 96.1309Z" fill="white"/>
</g>
<path d="M0 126H327V166C327 173.455 327 177.183 325.782 180.123C324.158 184.043 321.043 187.158 317.123 188.782C314.183 190 310.455 190 303 190H24C16.5449 190 12.8174 190 9.87707 188.782C5.95662 187.158 2.84183 184.043 1.21793 180.123C0 177.183 0 173.455 0 166V126Z" fill="#FFB9AA"/>
<path d="M22.1123 141.047L24.2998 145.688L26.501 141.047H28.5654L25.2568 147.356V151H23.3496V147.356L20.0342 141.047H22.1123ZM28.9543 147.377V147.233C28.9543 146.691 29.0318 146.192 29.1867 145.736C29.3417 145.276 29.5673 144.877 29.8635 144.54C30.1597 144.203 30.522 143.941 30.9504 143.754C31.3788 143.562 31.8664 143.467 32.4133 143.467C32.9693 143.467 33.4615 143.562 33.8898 143.754C34.3228 143.941 34.6874 144.203 34.9836 144.54C35.2798 144.877 35.5054 145.276 35.6604 145.736C35.8153 146.192 35.8928 146.691 35.8928 147.233V147.377C35.8928 147.915 35.8153 148.414 35.6604 148.874C35.5054 149.33 35.2798 149.729 34.9836 150.07C34.6874 150.408 34.3251 150.67 33.8967 150.856C33.4683 151.043 32.9784 151.137 32.427 151.137C31.8801 151.137 31.3902 151.043 30.9572 150.856C30.5243 150.67 30.1597 150.408 29.8635 150.07C29.5673 149.729 29.3417 149.33 29.1867 148.874C29.0318 148.414 28.9543 147.915 28.9543 147.377ZM30.759 147.233V147.377C30.759 147.701 30.7909 148.004 30.8547 148.286C30.9185 148.569 31.0165 148.817 31.1486 149.031C31.2808 149.245 31.4517 149.414 31.6613 149.537C31.8755 149.656 32.1307 149.715 32.427 149.715C32.7186 149.715 32.9693 149.656 33.1789 149.537C33.3885 149.414 33.5594 149.245 33.6916 149.031C33.8283 148.817 33.9286 148.569 33.9924 148.286C34.0562 148.004 34.0881 147.701 34.0881 147.377V147.233C34.0881 146.914 34.0562 146.616 33.9924 146.338C33.9286 146.055 33.8283 145.807 33.6916 145.593C33.5594 145.374 33.3863 145.203 33.1721 145.08C32.9624 144.952 32.7095 144.889 32.4133 144.889C32.1216 144.889 31.871 144.952 31.6613 145.08C31.4517 145.203 31.2808 145.374 31.1486 145.593C31.0165 145.807 30.9185 146.055 30.8547 146.338C30.7909 146.616 30.759 146.914 30.759 147.233ZM41.9076 149.243V143.604H43.726V151H42.017L41.9076 149.243ZM42.14 147.712L42.7006 147.698C42.7006 148.195 42.6459 148.653 42.5365 149.072C42.4271 149.492 42.2563 149.856 42.0238 150.166C41.796 150.471 41.5066 150.711 41.1557 150.884C40.8048 151.052 40.39 151.137 39.9115 151.137C39.5469 151.137 39.2143 151.087 38.9135 150.986C38.6127 150.882 38.3529 150.72 38.1342 150.501C37.92 150.278 37.7536 149.993 37.6352 149.646C37.5167 149.296 37.4574 148.874 37.4574 148.382V143.604H39.2621V148.396C39.2621 148.642 39.2895 148.847 39.3441 149.011C39.4034 149.175 39.4831 149.309 39.5834 149.414C39.6882 149.514 39.809 149.587 39.9457 149.633C40.087 149.674 40.2374 149.694 40.3969 149.694C40.8344 149.694 41.1785 149.608 41.4291 149.435C41.6843 149.257 41.8666 149.02 41.976 148.724C42.0854 148.423 42.14 148.086 42.14 147.712ZM47.4303 145.114V151H45.6256V143.604H47.3346L47.4303 145.114ZM49.6793 143.556L49.652 145.237C49.5517 145.219 49.4378 145.205 49.3102 145.196C49.1871 145.187 49.0709 145.183 48.9615 145.183C48.6835 145.183 48.4397 145.221 48.2301 145.299C48.0204 145.372 47.845 145.479 47.7037 145.62C47.567 145.761 47.4622 145.935 47.3893 146.14C47.3163 146.34 47.2753 146.568 47.2662 146.823L46.8766 146.775C46.8766 146.306 46.9244 145.871 47.0201 145.47C47.1158 145.069 47.2548 144.718 47.4371 144.417C47.6194 144.116 47.8473 143.884 48.1207 143.72C48.3987 143.551 48.7177 143.467 49.0777 143.467C49.178 143.467 49.2851 143.476 49.399 143.494C49.5175 143.508 49.6109 143.528 49.6793 143.556ZM62.8916 141.047V151H61.0049L56.7734 144.096V151H54.8936V141.047H56.7734L61.0186 147.958V141.047H62.8916ZM69.0432 149.428V146.017C69.0432 145.766 68.9999 145.549 68.9133 145.367C68.8267 145.185 68.6945 145.044 68.5168 144.943C68.3391 144.843 68.1135 144.793 67.84 144.793C67.5985 144.793 67.3866 144.834 67.2043 144.916C67.0266 144.998 66.8898 145.114 66.7941 145.265C66.6984 145.41 66.6506 145.579 66.6506 145.771H64.8391C64.8391 145.465 64.912 145.176 65.0578 144.902C65.2036 144.624 65.411 144.378 65.6799 144.164C65.9533 143.945 66.2792 143.774 66.6574 143.651C67.0402 143.528 67.4686 143.467 67.9426 143.467C68.5031 143.467 69.0021 143.562 69.4396 143.754C69.8817 143.941 70.2281 144.223 70.4787 144.602C70.7339 144.98 70.8615 145.456 70.8615 146.03V149.257C70.8615 149.626 70.8843 149.943 70.9299 150.207C70.98 150.467 71.0529 150.692 71.1486 150.884V151H69.3098C69.2232 150.813 69.1571 150.576 69.1115 150.289C69.0659 149.997 69.0432 149.71 69.0432 149.428ZM69.2961 146.495L69.3098 147.568H68.1682C67.8856 147.568 67.6372 147.598 67.423 147.657C67.2089 147.712 67.0334 147.794 66.8967 147.903C66.76 148.008 66.6574 148.136 66.5891 148.286C66.5207 148.432 66.4865 148.598 66.4865 148.785C66.4865 148.967 66.5275 149.132 66.6096 149.277C66.6962 149.423 66.8192 149.539 66.9787 149.626C67.1428 149.708 67.3342 149.749 67.5529 149.749C67.8719 149.749 68.1499 149.685 68.3869 149.558C68.6239 149.425 68.8085 149.266 68.9406 149.079C69.0728 148.892 69.1434 148.715 69.1525 148.546L69.6721 149.325C69.6083 149.512 69.5126 149.71 69.385 149.92C69.2574 150.13 69.0933 150.326 68.8928 150.508C68.6923 150.69 68.4507 150.84 68.1682 150.959C67.8856 151.077 67.5575 151.137 67.1838 151.137C66.7053 151.137 66.2769 151.041 65.8986 150.85C65.5204 150.658 65.2219 150.396 65.0031 150.063C64.7844 149.731 64.675 149.353 64.675 148.929C64.675 148.537 64.7479 148.19 64.8937 147.89C65.0396 147.589 65.2561 147.336 65.5432 147.131C65.8303 146.921 66.1857 146.764 66.6096 146.659C67.038 146.55 67.5279 146.495 68.0793 146.495H69.2961ZM74.5863 145.121V151H72.7816V143.604H74.4838L74.5863 145.121ZM74.3197 147.035H73.766C73.766 146.52 73.8275 146.046 73.9506 145.613C74.0782 145.18 74.265 144.804 74.5111 144.485C74.7572 144.162 75.0603 143.911 75.4203 143.733C75.7849 143.556 76.2064 143.467 76.685 143.467C77.0176 143.467 77.323 143.517 77.601 143.617C77.879 143.713 78.1182 143.866 78.3187 144.075C78.5238 144.28 78.6811 144.549 78.7904 144.882C78.8998 145.21 78.9545 145.604 78.9545 146.064V151H77.1498V146.249C77.1498 145.903 77.0997 145.632 76.9994 145.436C76.9037 145.24 76.7647 145.103 76.5824 145.025C76.4001 144.943 76.1814 144.902 75.9262 144.902C75.6436 144.902 75.3998 144.959 75.1947 145.073C74.9942 145.183 74.8279 145.335 74.6957 145.531C74.5681 145.727 74.4724 145.953 74.4086 146.208C74.3493 146.463 74.3197 146.739 74.3197 147.035ZM78.8178 146.7L78.0727 146.837C78.0772 146.372 78.141 145.937 78.2641 145.531C78.3871 145.121 78.5671 144.763 78.8041 144.458C79.0456 144.148 79.3441 143.907 79.6996 143.733C80.0596 143.556 80.4743 143.467 80.9437 143.467C81.3083 143.467 81.6365 143.519 81.9281 143.624C82.2243 143.724 82.4773 143.886 82.6869 144.109C82.8965 144.328 83.0561 144.613 83.1654 144.964C83.2794 145.315 83.3363 145.743 83.3363 146.249V151H81.518V146.242C81.518 145.882 81.4678 145.606 81.3676 145.415C81.2719 145.224 81.1329 145.091 80.9506 145.019C80.7683 144.941 80.5541 144.902 80.308 144.902C80.0574 144.902 79.8386 144.95 79.6518 145.046C79.4695 145.137 79.3145 145.265 79.1869 145.429C79.0639 145.593 78.9704 145.784 78.9066 146.003C78.8474 146.217 78.8178 146.45 78.8178 146.7ZM88.5787 151.137C88.0182 151.137 87.5146 151.046 87.068 150.863C86.6214 150.681 86.2408 150.428 85.9264 150.104C85.6165 149.776 85.3772 149.396 85.2086 148.963C85.0445 148.525 84.9625 148.056 84.9625 147.555V147.281C84.9625 146.712 85.0445 146.194 85.2086 145.729C85.3727 145.26 85.6051 144.857 85.9059 144.52C86.2066 144.182 86.5667 143.923 86.9859 143.74C87.4052 143.558 87.8678 143.467 88.3736 143.467C88.8977 143.467 89.3603 143.556 89.7613 143.733C90.1624 143.907 90.4973 144.153 90.7662 144.472C91.0351 144.791 91.2379 145.174 91.3746 145.62C91.5113 146.062 91.5797 146.552 91.5797 147.09V147.849H85.7828V146.604H89.8023V146.468C89.7932 146.181 89.7385 145.919 89.6383 145.682C89.538 145.44 89.3831 145.249 89.1734 145.107C88.9638 144.962 88.6926 144.889 88.36 144.889C88.0911 144.889 87.8564 144.948 87.6559 145.066C87.4599 145.18 87.2958 145.344 87.1637 145.559C87.0361 145.768 86.9404 146.019 86.8766 146.311C86.8128 146.602 86.7809 146.926 86.7809 147.281V147.555C86.7809 147.865 86.8219 148.152 86.9039 148.416C86.9905 148.68 87.1158 148.91 87.2799 149.106C87.4485 149.298 87.649 149.448 87.8814 149.558C88.1184 149.662 88.3873 149.715 88.6881 149.715C89.0663 149.715 89.4081 149.642 89.7135 149.496C90.0234 149.346 90.2923 149.125 90.5201 148.833L91.4293 149.776C91.2744 150.004 91.0647 150.223 90.8004 150.433C90.5406 150.642 90.2262 150.813 89.857 150.945C89.4879 151.073 89.0618 151.137 88.5787 151.137Z" fill="white"/>
<path opacity="0.6" d="M25.0537 165.879V166.963C25.0537 167.546 25.0016 168.037 24.8975 168.438C24.7933 168.838 24.6436 169.16 24.4482 169.404C24.2529 169.648 24.0169 169.826 23.7402 169.937C23.4668 170.044 23.1576 170.098 22.8125 170.098C22.5391 170.098 22.2868 170.063 22.0557 169.995C21.8245 169.927 21.6162 169.818 21.4307 169.668C21.2484 169.515 21.0921 169.316 20.9619 169.072C20.8317 168.828 20.7324 168.532 20.6641 168.184C20.5957 167.835 20.5615 167.428 20.5615 166.963V165.879C20.5615 165.296 20.6136 164.808 20.7178 164.414C20.8252 164.02 20.9766 163.704 21.1719 163.467C21.3672 163.226 21.6016 163.053 21.875 162.949C22.1517 162.845 22.4609 162.793 22.8027 162.793C23.0794 162.793 23.3333 162.827 23.5645 162.896C23.7988 162.961 24.0072 163.066 24.1895 163.213C24.3717 163.356 24.5264 163.548 24.6533 163.789C24.7835 164.027 24.8828 164.318 24.9512 164.663C25.0195 165.008 25.0537 165.413 25.0537 165.879ZM24.1455 167.109V165.728C24.1455 165.409 24.126 165.129 24.0869 164.888C24.0511 164.644 23.9974 164.435 23.9258 164.263C23.8542 164.09 23.763 163.95 23.6523 163.843C23.5449 163.735 23.4196 163.657 23.2764 163.608C23.1364 163.556 22.9785 163.53 22.8027 163.53C22.5879 163.53 22.3975 163.571 22.2314 163.652C22.0654 163.73 21.9255 163.856 21.8115 164.028C21.7008 164.201 21.6162 164.427 21.5576 164.707C21.499 164.987 21.4697 165.327 21.4697 165.728V167.109C21.4697 167.428 21.4876 167.71 21.5234 167.954C21.5625 168.198 21.6195 168.41 21.6943 168.589C21.7692 168.765 21.8604 168.91 21.9678 169.023C22.0752 169.137 22.1989 169.222 22.3389 169.277C22.4821 169.329 22.64 169.355 22.8125 169.355C23.0339 169.355 23.2275 169.313 23.3936 169.229C23.5596 169.144 23.6979 169.012 23.8086 168.833C23.9225 168.651 24.0072 168.418 24.0625 168.135C24.1178 167.848 24.1455 167.507 24.1455 167.109ZM30.9787 165.879V166.963C30.9787 167.546 30.9266 168.037 30.8225 168.438C30.7183 168.838 30.5686 169.16 30.3732 169.404C30.1779 169.648 29.9419 169.826 29.6652 169.937C29.3918 170.044 29.0826 170.098 28.7375 170.098C28.4641 170.098 28.2118 170.063 27.9807 169.995C27.7495 169.927 27.5412 169.818 27.3557 169.668C27.1734 169.515 27.0171 169.316 26.8869 169.072C26.7567 168.828 26.6574 168.532 26.5891 168.184C26.5207 167.835 26.4865 167.428 26.4865 166.963V165.879C26.4865 165.296 26.5386 164.808 26.6428 164.414C26.7502 164.02 26.9016 163.704 27.0969 163.467C27.2922 163.226 27.5266 163.053 27.8 162.949C28.0767 162.845 28.3859 162.793 28.7277 162.793C29.0044 162.793 29.2583 162.827 29.4895 162.896C29.7238 162.961 29.9322 163.066 30.1145 163.213C30.2967 163.356 30.4514 163.548 30.5783 163.789C30.7085 164.027 30.8078 164.318 30.8762 164.663C30.9445 165.008 30.9787 165.413 30.9787 165.879ZM30.0705 167.109V165.728C30.0705 165.409 30.051 165.129 30.0119 164.888C29.9761 164.644 29.9224 164.435 29.8508 164.263C29.7792 164.09 29.688 163.95 29.5773 163.843C29.4699 163.735 29.3446 163.657 29.2014 163.608C29.0614 163.556 28.9035 163.53 28.7277 163.53C28.5129 163.53 28.3225 163.571 28.1564 163.652C27.9904 163.73 27.8505 163.856 27.7365 164.028C27.6258 164.201 27.5412 164.427 27.4826 164.707C27.424 164.987 27.3947 165.327 27.3947 165.728V167.109C27.3947 167.428 27.4126 167.71 27.4484 167.954C27.4875 168.198 27.5445 168.41 27.6193 168.589C27.6942 168.765 27.7854 168.91 27.8928 169.023C28.0002 169.137 28.1239 169.222 28.2639 169.277C28.4071 169.329 28.565 169.355 28.7375 169.355C28.9589 169.355 29.1525 169.313 29.3186 169.229C29.4846 169.144 29.6229 169.012 29.7336 168.833C29.8475 168.651 29.9322 168.418 29.9875 168.135C30.0428 167.848 30.0705 167.507 30.0705 167.109ZM35.683 162.891L32.7191 170.61H31.9428L34.9115 162.891H35.683ZM41.3346 165.879V166.963C41.3346 167.546 41.2825 168.037 41.1783 168.438C41.0742 168.838 40.9244 169.16 40.7291 169.404C40.5338 169.648 40.2978 169.826 40.0211 169.937C39.7477 170.044 39.4384 170.098 39.0934 170.098C38.8199 170.098 38.5676 170.063 38.3365 169.995C38.1054 169.927 37.8971 169.818 37.7115 169.668C37.5292 169.515 37.373 169.316 37.2428 169.072C37.1126 168.828 37.0133 168.532 36.9449 168.184C36.8766 167.835 36.8424 167.428 36.8424 166.963V165.879C36.8424 165.296 36.8945 164.808 36.9986 164.414C37.1061 164.02 37.2574 163.704 37.4527 163.467C37.648 163.226 37.8824 163.053 38.1559 162.949C38.4326 162.845 38.7418 162.793 39.0836 162.793C39.3603 162.793 39.6142 162.827 39.8453 162.896C40.0797 162.961 40.288 163.066 40.4703 163.213C40.6526 163.356 40.8072 163.548 40.9342 163.789C41.0644 164.027 41.1637 164.318 41.232 164.663C41.3004 165.008 41.3346 165.413 41.3346 165.879ZM40.4264 167.109V165.728C40.4264 165.409 40.4068 165.129 40.3678 164.888C40.332 164.644 40.2783 164.435 40.2066 164.263C40.135 164.09 40.0439 163.95 39.9332 163.843C39.8258 163.735 39.7005 163.657 39.5572 163.608C39.4173 163.556 39.2594 163.53 39.0836 163.53C38.8687 163.53 38.6783 163.571 38.5123 163.652C38.3463 163.73 38.2063 163.856 38.0924 164.028C37.9817 164.201 37.8971 164.427 37.8385 164.707C37.7799 164.987 37.7506 165.327 37.7506 165.728V167.109C37.7506 167.428 37.7685 167.71 37.8043 167.954C37.8434 168.198 37.9003 168.41 37.9752 168.589C38.0501 168.765 38.1412 168.91 38.2486 169.023C38.3561 169.137 38.4798 169.222 38.6197 169.277C38.763 169.329 38.9208 169.355 39.0934 169.355C39.3147 169.355 39.5084 169.313 39.6744 169.229C39.8404 169.144 39.9788 169.012 40.0895 168.833C40.2034 168.651 40.288 168.418 40.3434 168.135C40.3987 167.848 40.4264 167.507 40.4264 167.109ZM47.2596 165.879V166.963C47.2596 167.546 47.2075 168.037 47.1033 168.438C46.9992 168.838 46.8494 169.16 46.6541 169.404C46.4588 169.648 46.2228 169.826 45.9461 169.937C45.6727 170.044 45.3634 170.098 45.0184 170.098C44.7449 170.098 44.4926 170.063 44.2615 169.995C44.0304 169.927 43.8221 169.818 43.6365 169.668C43.4542 169.515 43.298 169.316 43.1678 169.072C43.0376 168.828 42.9383 168.532 42.8699 168.184C42.8016 167.835 42.7674 167.428 42.7674 166.963V165.879C42.7674 165.296 42.8195 164.808 42.9236 164.414C43.0311 164.02 43.1824 163.704 43.3777 163.467C43.573 163.226 43.8074 163.053 44.0809 162.949C44.3576 162.845 44.6668 162.793 45.0086 162.793C45.2853 162.793 45.5392 162.827 45.7703 162.896C46.0047 162.961 46.213 163.066 46.3953 163.213C46.5776 163.356 46.7322 163.548 46.8592 163.789C46.9894 164.027 47.0887 164.318 47.157 164.663C47.2254 165.008 47.2596 165.413 47.2596 165.879ZM46.3514 167.109V165.728C46.3514 165.409 46.3318 165.129 46.2928 164.888C46.257 164.644 46.2033 164.435 46.1316 164.263C46.06 164.09 45.9689 163.95 45.8582 163.843C45.7508 163.735 45.6255 163.657 45.4822 163.608C45.3423 163.556 45.1844 163.53 45.0086 163.53C44.7938 163.53 44.6033 163.571 44.4373 163.652C44.2713 163.73 44.1313 163.856 44.0174 164.028C43.9067 164.201 43.8221 164.427 43.7635 164.707C43.7049 164.987 43.6756 165.327 43.6756 165.728V167.109C43.6756 167.428 43.6935 167.71 43.7293 167.954C43.7684 168.198 43.8253 168.41 43.9002 168.589C43.9751 168.765 44.0662 168.91 44.1736 169.023C44.2811 169.137 44.4048 169.222 44.5447 169.277C44.688 169.329 44.8458 169.355 45.0184 169.355C45.2397 169.355 45.4334 169.313 45.5994 169.229C45.7654 169.144 45.9038 169.012 46.0145 168.833C46.1284 168.651 46.213 168.418 46.2684 168.135C46.3237 167.848 46.3514 167.507 46.3514 167.109Z" fill="white"/>
<circle opacity="0.5" cx="294" cy="155" r="13" fill="white"/>
<circle opacity="0.8" cx="277" cy="155" r="13" fill="white"/>
</svg>
