<svg width="327" height="190" viewBox="0 0 327 190" fill="none" xmlns="http://www.w3.org/2000/svg">
<rect width="327" height="190" rx="16" fill="#1D3A70"/>
<mask id="mask0_2_3021" style="mask-type:alpha" maskUnits="userSpaceOnUse" x="0" y="0" width="327" height="190">
<rect width="327" height="190" rx="16" fill="#1DAB87"/>
</mask>
<g mask="url(#mask0_2_3021)">
<path d="M46.189 -20C25.5764 2.22301 -14.8864 54.3126 -11.8369 84.8869C-8.02495 123.105 40.7333 114.474 47.883 112.064C52.8968 110.374 106.332 83.613 116.074 56.0112C125.816 28.4094 96.1418 30.9422 93.2024 31.8065C80.4926 35.5437 61.0129 43.6965 42.3769 79.7912C23.7409 115.886 20.776 142.638 34.3295 155.378C45.1723 165.569 70.2495 164.654 93.4667 162.918C133.837 159.9 166.307 134.315 187.653 119.708C209 105.1 289.446 47.6599 327 20.7658" stroke="#1DAB87" stroke-width="0.5" stroke-linecap="round"/>
<rect x="20.25" y="24.25" width="31.5" height="23.881" rx="3.75" fill="white" stroke="#1D3A70" stroke-width="0.5"/>
<path d="M20.5 31.5H29C30.1046 31.5 31 32.3954 31 33.5V37.375M31 47.9V43.25M31 43.25V37.375M31 43.25H20.5M31 37.375H20.5" stroke="#1D3A70" stroke-width="0.5"/>
<path d="M51.5 31.5H41.5M41.5 31.5V37.375M41.5 31.5V24.5M41.5 47.9V43.25M41.5 43.25V37.375M41.5 43.25H51.5M41.5 37.375H51.5" stroke="#1D3A70" stroke-width="0.5"/>
<path d="M76.16 28.9099C79.48 33.2099 79.48 38.7999 76.16 43.0999" stroke="white" stroke-width="1.5" stroke-linecap="round" stroke-linejoin="round"/>
<path d="M79.64 26C84.32 32.06 84.32 39.94 79.64 46" stroke="white" stroke-width="1.5" stroke-linecap="round" stroke-linejoin="round"/>
<path d="M72.51 30.79C74.95 33.94 74.95 38.05 72.51 41.2" stroke="white" stroke-width="1.5" stroke-linecap="round" stroke-linejoin="round"/>
<path d="M68.8499 33.4C70.0699 34.98 70.0699 37.03 68.8499 38.61" stroke="white" stroke-width="1.5" stroke-linecap="round" stroke-linejoin="round"/>
<path d="M27.4922 98.4619V100H20.6836V98.6875L23.9033 95.2354C24.2269 94.8753 24.4821 94.5586 24.6689 94.2852C24.8558 94.0072 24.9902 93.7588 25.0723 93.54C25.1589 93.3167 25.2021 93.1048 25.2021 92.9043C25.2021 92.6035 25.152 92.346 25.0518 92.1318C24.9515 91.9131 24.8034 91.7445 24.6074 91.626C24.416 91.5075 24.179 91.4482 23.8965 91.4482C23.5957 91.4482 23.3359 91.5212 23.1172 91.667C22.903 91.8128 22.7389 92.0156 22.625 92.2754C22.5156 92.5352 22.4609 92.8291 22.4609 93.1572H20.4854C20.4854 92.5648 20.6266 92.0225 20.9092 91.5303C21.1917 91.0335 21.5905 90.6393 22.1055 90.3477C22.6204 90.0514 23.2311 89.9033 23.9375 89.9033C24.6348 89.9033 25.2227 90.0173 25.7012 90.2451C26.1842 90.4684 26.5488 90.792 26.7949 91.2158C27.0456 91.6351 27.1709 92.1364 27.1709 92.7197C27.1709 93.0479 27.1185 93.3691 27.0137 93.6836C26.9089 93.9935 26.7585 94.3034 26.5625 94.6133C26.3711 94.9186 26.1387 95.2285 25.8652 95.543C25.5918 95.8574 25.2887 96.1833 24.9561 96.5205L23.2266 98.4619H27.4922ZM30.8752 95.4678L29.3029 95.0918L29.8703 90.0469H35.4621V91.6396H31.4904L31.2443 93.8477C31.3765 93.7702 31.577 93.6882 31.8459 93.6016C32.1148 93.5104 32.4156 93.4648 32.7482 93.4648C33.2313 93.4648 33.6597 93.54 34.0334 93.6904C34.4071 93.8408 34.7238 94.0596 34.9836 94.3467C35.2479 94.6338 35.4484 94.9847 35.5852 95.3994C35.7219 95.8141 35.7902 96.2835 35.7902 96.8076C35.7902 97.2497 35.7219 97.6712 35.5852 98.0723C35.4484 98.4688 35.2411 98.8242 34.9631 99.1387C34.6851 99.4486 34.3365 99.6924 33.9172 99.8701C33.4979 100.048 33.0012 100.137 32.427 100.137C31.9986 100.137 31.5839 100.073 31.1828 99.9453C30.7863 99.8177 30.4286 99.6286 30.1096 99.3779C29.7951 99.1273 29.5422 98.8242 29.3508 98.4688C29.1639 98.1087 29.066 97.6986 29.0568 97.2383H31.0119C31.0393 97.5208 31.1122 97.7646 31.2307 97.9697C31.3537 98.1702 31.5155 98.3252 31.716 98.4346C31.9165 98.5439 32.1512 98.5986 32.4201 98.5986C32.6708 98.5986 32.885 98.5508 33.0627 98.4551C33.2404 98.3594 33.384 98.2272 33.4934 98.0586C33.6027 97.8854 33.6825 97.6849 33.7326 97.457C33.7873 97.2246 33.8146 96.974 33.8146 96.7051C33.8146 96.4362 33.7827 96.1924 33.7189 95.9736C33.6551 95.7549 33.5572 95.5658 33.425 95.4062C33.2928 95.2467 33.1242 95.1237 32.9191 95.0371C32.7186 94.9505 32.4839 94.9072 32.215 94.9072C31.8505 94.9072 31.5679 94.9642 31.3674 95.0781C31.1714 95.1921 31.0074 95.3219 30.8752 95.4678ZM42.4408 89.9443H42.7279V91.5166H42.6117C42.0922 91.5166 41.6296 91.5941 41.224 91.749C40.8184 91.904 40.4743 92.125 40.1918 92.4121C39.9138 92.6947 39.6996 93.0365 39.5492 93.4375C39.4034 93.8385 39.3305 94.2874 39.3305 94.7842V96.4385C39.3305 96.7939 39.3646 97.1084 39.433 97.3818C39.5059 97.6507 39.6085 97.8763 39.7406 98.0586C39.8773 98.2363 40.0368 98.3708 40.2191 98.4619C40.4014 98.5485 40.6065 98.5918 40.8344 98.5918C41.0486 98.5918 41.2423 98.5462 41.4154 98.4551C41.5932 98.3639 41.7436 98.2363 41.8666 98.0723C41.9942 97.9036 42.0899 97.7077 42.1537 97.4844C42.2221 97.2565 42.2563 97.0081 42.2563 96.7393C42.2563 96.4704 42.2221 96.222 42.1537 95.9941C42.0899 95.7663 41.9942 95.5703 41.8666 95.4062C41.739 95.2376 41.584 95.1077 41.4018 95.0166C41.2195 94.9255 41.0144 94.8799 40.7865 94.8799C40.4766 94.8799 40.2032 94.9528 39.9662 95.0986C39.7338 95.2399 39.5515 95.4222 39.4193 95.6455C39.2872 95.8688 39.2165 96.1035 39.2074 96.3496L38.6127 95.9668C38.6264 95.6159 38.6993 95.2832 38.8314 94.9688C38.9682 94.6543 39.155 94.3763 39.392 94.1348C39.6335 93.8887 39.9229 93.6973 40.2602 93.5605C40.5974 93.4193 40.9779 93.3486 41.4018 93.3486C41.8666 93.3486 42.2745 93.4375 42.6254 93.6152C42.9809 93.793 43.2771 94.0368 43.5141 94.3467C43.751 94.6566 43.9288 95.0143 44.0473 95.4199C44.1658 95.8255 44.225 96.2585 44.225 96.7188C44.225 97.2018 44.1452 97.6507 43.9857 98.0654C43.8308 98.4801 43.6052 98.8424 43.309 99.1523C43.0173 99.4622 42.6664 99.7038 42.2563 99.877C41.8461 100.05 41.3858 100.137 40.8754 100.137C40.3467 100.137 39.866 100.041 39.433 99.8496C39.0046 99.6536 38.6355 99.3802 38.3256 99.0293C38.0157 98.6784 37.7764 98.2614 37.6078 97.7783C37.4438 97.2952 37.3617 96.7666 37.3617 96.1924V95.4268C37.3617 94.6247 37.4779 93.891 37.7104 93.2256C37.9473 92.5557 38.2868 91.9769 38.7289 91.4893C39.171 90.9971 39.7042 90.6165 40.3285 90.3477C40.9529 90.0788 41.657 89.9443 42.4408 89.9443ZM52.6734 96.2812V97.8262H45.5025L45.4068 96.6299L49.5562 90.0469H51.1217L49.4264 92.8838L47.3619 96.2812H52.6734ZM51.5455 90.0469V100H49.5768V90.0469H51.5455ZM72.1049 97.2725C72.1049 97.8968 71.959 98.4232 71.6674 98.8516C71.3757 99.2754 70.9747 99.5967 70.4643 99.8154C69.9584 100.03 69.3842 100.137 68.7416 100.137C68.099 100.137 67.5225 100.03 67.0121 99.8154C66.5017 99.5967 66.0984 99.2754 65.8021 98.8516C65.5059 98.4232 65.3578 97.8968 65.3578 97.2725C65.3578 96.8532 65.4421 96.4749 65.6107 96.1377C65.7794 95.7959 66.0141 95.5042 66.3148 95.2627C66.6202 95.0166 66.9779 94.8298 67.3881 94.7021C67.7982 94.57 68.2449 94.5039 68.7279 94.5039C69.3751 94.5039 69.9538 94.6178 70.4643 94.8457C70.9747 95.0736 71.3757 95.3949 71.6674 95.8096C71.959 96.2243 72.1049 96.7119 72.1049 97.2725ZM70.1225 97.1426C70.1225 96.8372 70.0632 96.5752 69.9447 96.3564C69.8308 96.1331 69.669 95.9622 69.4594 95.8438C69.2497 95.7253 69.0059 95.666 68.7279 95.666C68.4499 95.666 68.2061 95.7253 67.9965 95.8438C67.7868 95.9622 67.6228 96.1331 67.5043 96.3564C67.3904 96.5752 67.3334 96.8372 67.3334 97.1426C67.3334 97.4434 67.3904 97.7031 67.5043 97.9219C67.6228 98.1406 67.7868 98.3092 67.9965 98.4277C68.2107 98.5417 68.459 98.5986 68.7416 98.5986C69.0242 98.5986 69.268 98.5417 69.473 98.4277C69.6827 98.3092 69.8422 98.1406 69.9516 97.9219C70.0655 97.7031 70.1225 97.4434 70.1225 97.1426ZM71.893 92.6855C71.893 93.1914 71.7585 93.6403 71.4896 94.0322C71.2208 94.4196 70.8471 94.7227 70.3686 94.9414C69.8946 95.1602 69.3523 95.2695 68.7416 95.2695C68.1264 95.2695 67.5795 95.1602 67.101 94.9414C66.6225 94.7227 66.2488 94.4196 65.9799 94.0322C65.711 93.6403 65.5766 93.1914 65.5766 92.6855C65.5766 92.084 65.711 91.5781 65.9799 91.168C66.2533 90.7533 66.627 90.4388 67.101 90.2246C67.5795 90.0104 68.1218 89.9033 68.7279 89.9033C69.3432 89.9033 69.8878 90.0104 70.3617 90.2246C70.8402 90.4388 71.2139 90.7533 71.4828 91.168C71.7562 91.5781 71.893 92.084 71.893 92.6855ZM69.9242 92.7744C69.9242 92.5055 69.8764 92.2731 69.7807 92.0771C69.685 91.8766 69.5482 91.7217 69.3705 91.6123C69.1973 91.5029 68.9831 91.4482 68.7279 91.4482C68.4818 91.4482 68.2699 91.5007 68.0922 91.6055C67.919 91.7103 67.7846 91.863 67.6889 92.0635C67.5977 92.2594 67.5521 92.4964 67.5521 92.7744C67.5521 93.0433 67.5977 93.2803 67.6889 93.4854C67.7846 93.6859 67.9213 93.8431 68.099 93.957C68.2768 94.071 68.4909 94.1279 68.7416 94.1279C68.9923 94.1279 69.2042 94.071 69.3773 93.957C69.5551 93.8431 69.6895 93.6859 69.7807 93.4854C69.8764 93.2803 69.9242 93.0433 69.9242 92.7744ZM75.5904 95.4678L74.0182 95.0918L74.5855 90.0469H80.1773V91.6396H76.2057L75.9596 93.8477C76.0917 93.7702 76.2923 93.6882 76.5611 93.6016C76.83 93.5104 77.1308 93.4648 77.4635 93.4648C77.9466 93.4648 78.3749 93.54 78.7486 93.6904C79.1223 93.8408 79.4391 94.0596 79.6988 94.3467C79.9632 94.6338 80.1637 94.9847 80.3004 95.3994C80.4371 95.8141 80.5055 96.2835 80.5055 96.8076C80.5055 97.2497 80.4371 97.6712 80.3004 98.0723C80.1637 98.4688 79.9563 98.8242 79.6783 99.1387C79.4003 99.4486 79.0517 99.6924 78.6324 99.8701C78.2132 100.048 77.7164 100.137 77.1422 100.137C76.7138 100.137 76.2991 100.073 75.898 99.9453C75.5016 99.8177 75.1438 99.6286 74.8248 99.3779C74.5104 99.1273 74.2574 98.8242 74.066 98.4688C73.8792 98.1087 73.7812 97.6986 73.7721 97.2383H75.7271C75.7545 97.5208 75.8274 97.7646 75.9459 97.9697C76.0689 98.1702 76.2307 98.3252 76.4313 98.4346C76.6318 98.5439 76.8665 98.5986 77.1354 98.5986C77.386 98.5986 77.6002 98.5508 77.7779 98.4551C77.9557 98.3594 78.0992 98.2272 78.2086 98.0586C78.318 97.8854 78.3977 97.6849 78.4479 97.457C78.5025 97.2246 78.5299 96.974 78.5299 96.7051C78.5299 96.4362 78.498 96.1924 78.4342 95.9736C78.3704 95.7549 78.2724 95.5658 78.1402 95.4062C78.0081 95.2467 77.8395 95.1237 77.6344 95.0371C77.4339 94.9505 77.1992 94.9072 76.9303 94.9072C76.5657 94.9072 76.2831 94.9642 76.0826 95.0781C75.8867 95.1921 75.7226 95.3219 75.5904 95.4678ZM89.0496 96.2812V97.8262H81.8787L81.783 96.6299L85.9324 90.0469H87.4979L85.8025 92.8838L83.7381 96.2812H89.0496ZM87.9217 90.0469V100H85.9529V90.0469H87.9217ZM95.4951 89.9443H95.7822V91.5166H95.666C95.1465 91.5166 94.6839 91.5941 94.2783 91.749C93.8727 91.904 93.5286 92.125 93.2461 92.4121C92.9681 92.6947 92.7539 93.0365 92.6035 93.4375C92.4577 93.8385 92.3848 94.2874 92.3848 94.7842V96.4385C92.3848 96.7939 92.4189 97.1084 92.4873 97.3818C92.5602 97.6507 92.6628 97.8763 92.7949 98.0586C92.9316 98.2363 93.0911 98.3708 93.2734 98.4619C93.4557 98.5485 93.6608 98.5918 93.8887 98.5918C94.1029 98.5918 94.2965 98.5462 94.4697 98.4551C94.6475 98.3639 94.7979 98.2363 94.9209 98.0723C95.0485 97.9036 95.1442 97.7077 95.208 97.4844C95.2764 97.2565 95.3105 97.0081 95.3105 96.7393C95.3105 96.4704 95.2764 96.222 95.208 95.9941C95.1442 95.7663 95.0485 95.5703 94.9209 95.4062C94.7933 95.2376 94.6383 95.1077 94.4561 95.0166C94.2738 94.9255 94.0687 94.8799 93.8408 94.8799C93.5309 94.8799 93.2575 94.9528 93.0205 95.0986C92.7881 95.2399 92.6058 95.4222 92.4736 95.6455C92.3415 95.8688 92.2708 96.1035 92.2617 96.3496L91.667 95.9668C91.6807 95.6159 91.7536 95.2832 91.8857 94.9688C92.0225 94.6543 92.2093 94.3763 92.4463 94.1348C92.6878 93.8887 92.9772 93.6973 93.3145 93.5605C93.6517 93.4193 94.0322 93.3486 94.4561 93.3486C94.9209 93.3486 95.3288 93.4375 95.6797 93.6152C96.0352 93.793 96.3314 94.0368 96.5684 94.3467C96.8053 94.6566 96.9831 95.0143 97.1016 95.4199C97.2201 95.8255 97.2793 96.2585 97.2793 96.7188C97.2793 97.2018 97.1995 97.6507 97.04 98.0654C96.8851 98.4801 96.6595 98.8424 96.3633 99.1523C96.0716 99.4622 95.7207 99.7038 95.3105 99.877C94.9004 100.05 94.4401 100.137 93.9297 100.137C93.401 100.137 92.9202 100.041 92.4873 99.8496C92.0589 99.6536 91.6898 99.3802 91.3799 99.0293C91.07 98.6784 90.8307 98.2614 90.6621 97.7783C90.498 97.2952 90.416 96.7666 90.416 96.1924V95.4268C90.416 94.6247 90.5322 93.891 90.7646 93.2256C91.0016 92.5557 91.3411 91.9769 91.7832 91.4893C92.2253 90.9971 92.7585 90.6165 93.3828 90.3477C94.0072 90.0788 94.7113 89.9443 95.4951 89.9443ZM116.82 97.2725C116.82 97.8968 116.674 98.4232 116.383 98.8516C116.091 99.2754 115.69 99.5967 115.179 99.8154C114.674 100.03 114.099 100.137 113.457 100.137C112.814 100.137 112.238 100.03 111.727 99.8154C111.217 99.5967 110.814 99.2754 110.517 98.8516C110.221 98.4232 110.073 97.8968 110.073 97.2725C110.073 96.8532 110.157 96.4749 110.326 96.1377C110.495 95.7959 110.729 95.5042 111.03 95.2627C111.335 95.0166 111.693 94.8298 112.103 94.7021C112.513 94.57 112.96 94.5039 113.443 94.5039C114.09 94.5039 114.669 94.6178 115.179 94.8457C115.69 95.0736 116.091 95.3949 116.383 95.8096C116.674 96.2243 116.82 96.7119 116.82 97.2725ZM114.838 97.1426C114.838 96.8372 114.778 96.5752 114.66 96.3564C114.546 96.1331 114.384 95.9622 114.175 95.8438C113.965 95.7253 113.721 95.666 113.443 95.666C113.165 95.666 112.921 95.7253 112.712 95.8438C112.502 95.9622 112.338 96.1331 112.22 96.3564C112.106 96.5752 112.049 96.8372 112.049 97.1426C112.049 97.4434 112.106 97.7031 112.22 97.9219C112.338 98.1406 112.502 98.3092 112.712 98.4277C112.926 98.5417 113.174 98.5986 113.457 98.5986C113.739 98.5986 113.983 98.5417 114.188 98.4277C114.398 98.3092 114.557 98.1406 114.667 97.9219C114.781 97.7031 114.838 97.4434 114.838 97.1426ZM116.608 92.6855C116.608 93.1914 116.474 93.6403 116.205 94.0322C115.936 94.4196 115.562 94.7227 115.084 94.9414C114.61 95.1602 114.068 95.2695 113.457 95.2695C112.842 95.2695 112.295 95.1602 111.816 94.9414C111.338 94.7227 110.964 94.4196 110.695 94.0322C110.426 93.6403 110.292 93.1914 110.292 92.6855C110.292 92.084 110.426 91.5781 110.695 91.168C110.969 90.7533 111.342 90.4388 111.816 90.2246C112.295 90.0104 112.837 89.9033 113.443 89.9033C114.058 89.9033 114.603 90.0104 115.077 90.2246C115.555 90.4388 115.929 90.7533 116.198 91.168C116.471 91.5781 116.608 92.084 116.608 92.6855ZM114.639 92.7744C114.639 92.5055 114.592 92.2731 114.496 92.0771C114.4 91.8766 114.263 91.7217 114.086 91.6123C113.913 91.5029 113.698 91.4482 113.443 91.4482C113.197 91.4482 112.985 91.5007 112.807 91.6055C112.634 91.7103 112.5 91.863 112.404 92.0635C112.313 92.2594 112.267 92.4964 112.267 92.7744C112.267 93.0433 112.313 93.2803 112.404 93.4854C112.5 93.6859 112.637 93.8431 112.814 93.957C112.992 94.071 113.206 94.1279 113.457 94.1279C113.707 94.1279 113.919 94.071 114.093 93.957C114.27 93.8431 114.405 93.6859 114.496 93.4854C114.592 93.2803 114.639 93.0433 114.639 92.7744ZM125.426 96.2812V97.8262H118.255L118.159 96.6299L122.309 90.0469H123.874L122.179 92.8838L120.114 96.2812H125.426ZM124.298 90.0469V100H122.329V90.0469H124.298ZM133.601 98.4619V100H126.792V98.6875L130.012 95.2354C130.335 94.8753 130.591 94.5586 130.778 94.2852C130.964 94.0072 131.099 93.7588 131.181 93.54C131.267 93.3167 131.311 93.1048 131.311 92.9043C131.311 92.6035 131.261 92.346 131.16 92.1318C131.06 91.9131 130.912 91.7445 130.716 91.626C130.525 91.5075 130.288 91.4482 130.005 91.4482C129.704 91.4482 129.445 91.5212 129.226 91.667C129.012 91.8128 128.848 92.0156 128.734 92.2754C128.624 92.5352 128.57 92.8291 128.57 93.1572H126.594C126.594 92.5648 126.735 92.0225 127.018 91.5303C127.3 91.0335 127.699 90.6393 128.214 90.3477C128.729 90.0514 129.34 89.9033 130.046 89.9033C130.743 89.9033 131.331 90.0173 131.81 90.2451C132.293 90.4684 132.657 90.792 132.904 91.2158C133.154 91.6351 133.279 92.1364 133.279 92.7197C133.279 93.0479 133.227 93.3691 133.122 93.6836C133.017 93.9935 132.867 94.3034 132.671 94.6133C132.48 94.9186 132.247 95.2285 131.974 95.543C131.7 95.8574 131.397 96.1833 131.065 96.5205L129.335 98.4619H133.601ZM139.93 90.0264V100H137.961V92.2959L135.596 93.0479V91.4961L139.718 90.0264H139.93ZM159.628 90.0264V100H157.659V92.2959L155.294 93.0479V91.4961L159.416 90.0264H159.628ZM167.967 90.0264V100H165.998V92.2959L163.633 93.0479V91.4961L167.755 90.0264H167.967ZM178.316 98.4619V100H171.507V98.6875L174.727 95.2354C175.051 94.8753 175.306 94.5586 175.493 94.2852C175.68 94.0072 175.814 93.7588 175.896 93.54C175.983 93.3167 176.026 93.1048 176.026 92.9043C176.026 92.6035 175.976 92.346 175.876 92.1318C175.775 91.9131 175.627 91.7445 175.431 91.626C175.24 91.5075 175.003 91.4482 174.72 91.4482C174.42 91.4482 174.16 91.5212 173.941 91.667C173.727 91.8128 173.563 92.0156 173.449 92.2754C173.339 92.5352 173.285 92.8291 173.285 93.1572H171.309C171.309 92.5648 171.45 92.0225 171.733 91.5303C172.016 91.0335 172.414 90.6393 172.929 90.3477C173.444 90.0514 174.055 89.9033 174.761 89.9033C175.459 89.9033 176.046 90.0173 176.525 90.2451C177.008 90.4684 177.373 90.792 177.619 91.2158C177.869 91.6351 177.995 92.1364 177.995 92.7197C177.995 93.0479 177.942 93.3691 177.837 93.6836C177.733 93.9935 177.582 94.3034 177.386 94.6133C177.195 94.9186 176.962 95.2285 176.689 95.543C176.416 95.8574 176.113 96.1833 175.78 96.5205L174.05 98.4619H178.316ZM184.645 90.0264V100H182.677V92.2959L180.311 93.0479V91.4961L184.433 90.0264H184.645Z" fill="white"/>
</g>
<path d="M0 126H327V166C327 173.455 327 177.183 325.782 180.123C324.158 184.043 321.043 187.158 317.123 188.782C314.183 190 310.455 190 303 190H24C16.5449 190 12.8174 190 9.87706 188.782C5.95662 187.158 2.84183 184.043 1.21793 180.123C0 177.183 0 173.455 0 166V126Z" fill="#1DAB87"/>
<path d="M25.2227 141.047V151H23.3496V141.047H25.2227ZM28.3125 141.047V142.53H20.2939V141.047H28.3125ZM28.3391 147.377V147.233C28.3391 146.691 28.4165 146.192 28.5715 145.736C28.7264 145.276 28.952 144.877 29.2482 144.54C29.5445 144.203 29.9068 143.941 30.3352 143.754C30.7635 143.562 31.2512 143.467 31.798 143.467C32.354 143.467 32.8462 143.562 33.2746 143.754C33.7076 143.941 34.0721 144.203 34.3684 144.54C34.6646 144.877 34.8902 145.276 35.0451 145.736C35.2001 146.192 35.2775 146.691 35.2775 147.233V147.377C35.2775 147.915 35.2001 148.414 35.0451 148.874C34.8902 149.33 34.6646 149.729 34.3684 150.07C34.0721 150.408 33.7098 150.67 33.2814 150.856C32.8531 151.043 32.3632 151.137 31.8117 151.137C31.2648 151.137 30.7749 151.043 30.342 150.856C29.909 150.67 29.5445 150.408 29.2482 150.07C28.952 149.729 28.7264 149.33 28.5715 148.874C28.4165 148.414 28.3391 147.915 28.3391 147.377ZM30.1438 147.233V147.377C30.1438 147.701 30.1757 148.004 30.2395 148.286C30.3033 148.569 30.4012 148.817 30.5334 149.031C30.6656 149.245 30.8365 149.414 31.0461 149.537C31.2603 149.656 31.5155 149.715 31.8117 149.715C32.1034 149.715 32.354 149.656 32.5637 149.537C32.7733 149.414 32.9442 149.245 33.0764 149.031C33.2131 148.817 33.3133 148.569 33.3771 148.286C33.441 148.004 33.4729 147.701 33.4729 147.377V147.233C33.4729 146.914 33.441 146.616 33.3771 146.338C33.3133 146.055 33.2131 145.807 33.0764 145.593C32.9442 145.374 32.771 145.203 32.5568 145.08C32.3472 144.952 32.0943 144.889 31.798 144.889C31.5064 144.889 31.2557 144.952 31.0461 145.08C30.8365 145.203 30.6656 145.374 30.5334 145.593C30.4012 145.807 30.3033 146.055 30.2395 146.338C30.1757 146.616 30.1438 146.914 30.1438 147.233ZM38.6879 145.121V151H36.8832V143.604H38.5854L38.6879 145.121ZM38.4213 147.035H37.8676C37.8676 146.52 37.9291 146.046 38.0521 145.613C38.1798 145.18 38.3666 144.804 38.6127 144.485C38.8588 144.162 39.1618 143.911 39.5219 143.733C39.8865 143.556 40.308 143.467 40.7865 143.467C41.1192 143.467 41.4245 143.517 41.7025 143.617C41.9805 143.713 42.2198 143.866 42.4203 144.075C42.6254 144.28 42.7826 144.549 42.892 144.882C43.0014 145.21 43.0561 145.604 43.0561 146.064V151H41.2514V146.249C41.2514 145.903 41.2012 145.632 41.101 145.436C41.0053 145.24 40.8663 145.103 40.684 145.025C40.5017 144.943 40.2829 144.902 40.0277 144.902C39.7452 144.902 39.5014 144.959 39.2963 145.073C39.0958 145.183 38.9294 145.335 38.7973 145.531C38.6697 145.727 38.574 145.953 38.5102 146.208C38.4509 146.463 38.4213 146.739 38.4213 147.035ZM42.9193 146.7L42.1742 146.837C42.1788 146.372 42.2426 145.937 42.3656 145.531C42.4887 145.121 42.6687 144.763 42.9057 144.458C43.1472 144.148 43.4457 143.907 43.8012 143.733C44.1612 143.556 44.5759 143.467 45.0453 143.467C45.4099 143.467 45.738 143.519 46.0297 143.624C46.3259 143.724 46.5788 143.886 46.7885 144.109C46.9981 144.328 47.1576 144.613 47.267 144.964C47.3809 145.315 47.4379 145.743 47.4379 146.249V151H45.6195V146.242C45.6195 145.882 45.5694 145.606 45.4691 145.415C45.3734 145.224 45.2344 145.091 45.0521 145.019C44.8699 144.941 44.6557 144.902 44.4096 144.902C44.1589 144.902 43.9402 144.95 43.7533 145.046C43.571 145.137 43.4161 145.265 43.2885 145.429C43.1654 145.593 43.072 145.784 43.0082 146.003C42.949 146.217 42.9193 146.45 42.9193 146.7ZM51.1559 145.121V151H49.3512V143.604H51.0533L51.1559 145.121ZM50.8893 147.035H50.3355C50.3355 146.52 50.3971 146.046 50.5201 145.613C50.6477 145.18 50.8346 144.804 51.0807 144.485C51.3268 144.162 51.6298 143.911 51.9898 143.733C52.3544 143.556 52.776 143.467 53.2545 143.467C53.5872 143.467 53.8925 143.517 54.1705 143.617C54.4485 143.713 54.6878 143.866 54.8883 144.075C55.0934 144.28 55.2506 144.549 55.36 144.882C55.4693 145.21 55.524 145.604 55.524 146.064V151H53.7193V146.249C53.7193 145.903 53.6692 145.632 53.5689 145.436C53.4732 145.24 53.3342 145.103 53.152 145.025C52.9697 144.943 52.7509 144.902 52.4957 144.902C52.2132 144.902 51.9693 144.959 51.7643 145.073C51.5637 145.183 51.3974 145.335 51.2652 145.531C51.1376 145.727 51.0419 145.953 50.9781 146.208C50.9189 146.463 50.8893 146.739 50.8893 147.035ZM55.3873 146.7L54.6422 146.837C54.6467 146.372 54.7105 145.937 54.8336 145.531C54.9566 145.121 55.1367 144.763 55.3736 144.458C55.6152 144.148 55.9137 143.907 56.2691 143.733C56.6292 143.556 57.0439 143.467 57.5133 143.467C57.8779 143.467 58.206 143.519 58.4977 143.624C58.7939 143.724 59.0468 143.886 59.2564 144.109C59.4661 144.328 59.6256 144.613 59.735 144.964C59.8489 145.315 59.9059 145.743 59.9059 146.249V151H58.0875V146.242C58.0875 145.882 58.0374 145.606 57.9371 145.415C57.8414 145.224 57.7024 145.091 57.5201 145.019C57.3378 144.941 57.1236 144.902 56.8775 144.902C56.6269 144.902 56.4081 144.95 56.2213 145.046C56.039 145.137 55.884 145.265 55.7564 145.429C55.6334 145.593 55.54 145.784 55.4762 146.003C55.4169 146.217 55.3873 146.45 55.3873 146.7ZM63.993 150.18L65.9754 143.604H67.91L64.9432 152.121C64.8748 152.303 64.7859 152.502 64.6766 152.716C64.5717 152.93 64.4305 153.133 64.2527 153.324C64.075 153.52 63.8517 153.68 63.5828 153.803C63.3185 153.926 62.9972 153.987 62.6189 153.987C62.4549 153.987 62.3091 153.976 62.1814 153.953C62.0538 153.93 61.9194 153.901 61.7781 153.864V152.511C61.8237 152.515 61.8761 152.518 61.9354 152.518C61.9992 152.522 62.0538 152.524 62.0994 152.524C62.3637 152.524 62.5825 152.493 62.7557 152.429C62.9288 152.369 63.0678 152.271 63.1727 152.135C63.282 152.003 63.3732 151.829 63.4461 151.615L63.993 150.18ZM63.0154 143.604L64.6902 149.052L64.9842 150.959L63.74 151.185L61.0672 143.604H63.0154ZM77.0686 147.979V141.047H78.9484V147.979C78.9484 148.639 78.8049 149.207 78.5178 149.681C78.2307 150.15 77.8387 150.51 77.342 150.761C76.8452 151.011 76.2847 151.137 75.6604 151.137C75.0178 151.137 74.4481 151.03 73.9514 150.815C73.4546 150.597 73.065 150.264 72.7824 149.817C72.5044 149.371 72.3654 148.803 72.3654 148.115H74.2521C74.2521 148.489 74.3091 148.79 74.423 149.018C74.537 149.245 74.6988 149.41 74.9084 149.51C75.1226 149.61 75.3732 149.66 75.6604 149.66C75.9383 149.66 76.1822 149.596 76.3918 149.469C76.606 149.337 76.7723 149.145 76.8908 148.895C77.0093 148.644 77.0686 148.339 77.0686 147.979ZM85.0521 149.428V146.017C85.0521 145.766 85.0089 145.549 84.9223 145.367C84.8357 145.185 84.7035 145.044 84.5258 144.943C84.348 144.843 84.1225 144.793 83.849 144.793C83.6075 144.793 83.3956 144.834 83.2133 144.916C83.0355 144.998 82.8988 145.114 82.8031 145.265C82.7074 145.41 82.6596 145.579 82.6596 145.771H80.848C80.848 145.465 80.921 145.176 81.0668 144.902C81.2126 144.624 81.42 144.378 81.6889 144.164C81.9623 143.945 82.2881 143.774 82.6664 143.651C83.0492 143.528 83.4776 143.467 83.9516 143.467C84.5121 143.467 85.0111 143.562 85.4486 143.754C85.8907 143.941 86.237 144.223 86.4877 144.602C86.7429 144.98 86.8705 145.456 86.8705 146.03V149.257C86.8705 149.626 86.8933 149.943 86.9389 150.207C86.989 150.467 87.0619 150.692 87.1576 150.884V151H85.3187C85.2322 150.813 85.1661 150.576 85.1205 150.289C85.0749 149.997 85.0521 149.71 85.0521 149.428ZM85.3051 146.495L85.3187 147.568H84.1771C83.8946 147.568 83.6462 147.598 83.432 147.657C83.2178 147.712 83.0424 147.794 82.9057 147.903C82.7689 148.008 82.6664 148.136 82.598 148.286C82.5297 148.432 82.4955 148.598 82.4955 148.785C82.4955 148.967 82.5365 149.132 82.6186 149.277C82.7051 149.423 82.8282 149.539 82.9877 149.626C83.1518 149.708 83.3432 149.749 83.5619 149.749C83.8809 149.749 84.1589 149.685 84.3959 149.558C84.6329 149.425 84.8174 149.266 84.9496 149.079C85.0818 148.892 85.1524 148.715 85.1615 148.546L85.6811 149.325C85.6173 149.512 85.5215 149.71 85.3939 149.92C85.2663 150.13 85.1023 150.326 84.9018 150.508C84.7012 150.69 84.4597 150.84 84.1771 150.959C83.8946 151.077 83.5665 151.137 83.1928 151.137C82.7143 151.137 82.2859 151.041 81.9076 150.85C81.5294 150.658 81.2309 150.396 81.0121 150.063C80.7934 149.731 80.684 149.353 80.684 148.929C80.684 148.537 80.7569 148.19 80.9027 147.89C81.0486 147.589 81.265 147.336 81.5521 147.131C81.8393 146.921 82.1947 146.764 82.6186 146.659C83.0469 146.55 83.5368 146.495 84.0883 146.495H85.3051ZM92.8648 148.977C92.8648 148.822 92.8238 148.683 92.7418 148.56C92.6598 148.437 92.5048 148.325 92.277 148.225C92.0536 148.12 91.7255 148.022 91.2926 147.931C90.9098 147.849 90.5566 147.746 90.233 147.623C89.9094 147.5 89.6314 147.352 89.399 147.179C89.1666 147.001 88.9843 146.794 88.8521 146.557C88.7245 146.315 88.6607 146.037 88.6607 145.723C88.6607 145.417 88.7268 145.13 88.859 144.861C88.9911 144.588 89.1826 144.349 89.4332 144.144C89.6839 143.934 89.9892 143.77 90.3492 143.651C90.7092 143.528 91.1148 143.467 91.566 143.467C92.1949 143.467 92.735 143.569 93.1861 143.774C93.6419 143.979 93.9905 144.262 94.232 144.622C94.4736 144.978 94.5943 145.379 94.5943 145.825H92.7896C92.7896 145.629 92.7441 145.451 92.6529 145.292C92.5663 145.132 92.4319 145.005 92.2496 144.909C92.0673 144.809 91.8372 144.759 91.5592 144.759C91.3085 144.759 91.0966 144.8 90.9234 144.882C90.7548 144.964 90.6272 145.071 90.5406 145.203C90.454 145.335 90.4107 145.481 90.4107 145.641C90.4107 145.759 90.4335 145.866 90.4791 145.962C90.5292 146.053 90.609 146.137 90.7184 146.215C90.8277 146.292 90.9758 146.363 91.1627 146.427C91.3541 146.491 91.5888 146.552 91.8668 146.611C92.4182 146.721 92.899 146.867 93.3092 147.049C93.7239 147.227 94.0475 147.464 94.2799 147.76C94.5123 148.056 94.6285 148.434 94.6285 148.895C94.6285 149.223 94.5579 149.523 94.4166 149.797C94.2753 150.066 94.0702 150.3 93.8014 150.501C93.5325 150.701 93.2112 150.859 92.8375 150.973C92.4638 151.082 92.0423 151.137 91.5729 151.137C90.8938 151.137 90.3196 151.016 89.8502 150.774C89.3808 150.528 89.0253 150.218 88.7838 149.845C88.5423 149.466 88.4215 149.075 88.4215 148.669H90.151C90.1646 148.956 90.2421 149.186 90.3834 149.359C90.5247 149.533 90.7024 149.658 90.9166 149.735C91.1354 149.808 91.3655 149.845 91.607 149.845C91.8805 149.845 92.1106 149.808 92.2975 149.735C92.4843 149.658 92.6256 149.555 92.7213 149.428C92.817 149.296 92.8648 149.145 92.8648 148.977ZM95.9812 147.377V147.233C95.9812 146.691 96.0587 146.192 96.2137 145.736C96.3686 145.276 96.5942 144.877 96.8904 144.54C97.1867 144.203 97.549 143.941 97.9773 143.754C98.4057 143.562 98.8934 143.467 99.4402 143.467C99.9962 143.467 100.488 143.562 100.917 143.754C101.35 143.941 101.714 144.203 102.011 144.54C102.307 144.877 102.532 145.276 102.687 145.736C102.842 146.192 102.92 146.691 102.92 147.233V147.377C102.92 147.915 102.842 148.414 102.687 148.874C102.532 149.33 102.307 149.729 102.011 150.07C101.714 150.408 101.352 150.67 100.924 150.856C100.495 151.043 100.005 151.137 99.4539 151.137C98.907 151.137 98.4171 151.043 97.9842 150.856C97.5512 150.67 97.1867 150.408 96.8904 150.07C96.5942 149.729 96.3686 149.33 96.2137 148.874C96.0587 148.414 95.9812 147.915 95.9812 147.377ZM97.7859 147.233V147.377C97.7859 147.701 97.8178 148.004 97.8816 148.286C97.9454 148.569 98.0434 148.817 98.1756 149.031C98.3077 149.245 98.4786 149.414 98.6883 149.537C98.9025 149.656 99.1577 149.715 99.4539 149.715C99.7456 149.715 99.9962 149.656 100.206 149.537C100.415 149.414 100.586 149.245 100.719 149.031C100.855 148.817 100.956 148.569 101.019 148.286C101.083 148.004 101.115 147.701 101.115 147.377V147.233C101.115 146.914 101.083 146.616 101.019 146.338C100.956 146.055 100.855 145.807 100.719 145.593C100.586 145.374 100.413 145.203 100.199 145.08C99.9894 144.952 99.7365 144.889 99.4402 144.889C99.1486 144.889 98.8979 144.952 98.6883 145.08C98.4786 145.203 98.3077 145.374 98.1756 145.593C98.0434 145.807 97.9454 146.055 97.8816 146.338C97.8178 146.616 97.7859 146.914 97.7859 147.233ZM106.303 145.183V151H104.498V143.604H106.193L106.303 145.183ZM106.016 147.035H105.482C105.487 146.497 105.56 146.01 105.701 145.572C105.842 145.135 106.041 144.759 106.296 144.444C106.556 144.13 106.863 143.888 107.219 143.72C107.574 143.551 107.971 143.467 108.408 143.467C108.764 143.467 109.085 143.517 109.372 143.617C109.659 143.717 109.905 143.877 110.11 144.096C110.32 144.314 110.479 144.602 110.589 144.957C110.703 145.308 110.76 145.741 110.76 146.256V151H108.941V146.242C108.941 145.905 108.891 145.638 108.791 145.442C108.695 145.246 108.554 145.107 108.367 145.025C108.185 144.943 107.959 144.902 107.69 144.902C107.412 144.902 107.169 144.959 106.959 145.073C106.754 145.183 106.581 145.335 106.439 145.531C106.303 145.727 106.198 145.953 106.125 146.208C106.052 146.463 106.016 146.739 106.016 147.035Z" fill="white"/>
<path opacity="0.6" d="M23.5596 162.852V170H22.6562V163.979L20.835 164.644V163.828L23.418 162.852H23.5596ZM27.8342 166.001H28.4787C28.7945 166.001 29.0549 165.949 29.26 165.845C29.4683 165.737 29.6229 165.592 29.7238 165.41C29.828 165.225 29.8801 165.016 29.8801 164.785C29.8801 164.512 29.8345 164.282 29.7434 164.097C29.6522 163.911 29.5155 163.771 29.3332 163.677C29.1509 163.582 28.9198 163.535 28.6398 163.535C28.3859 163.535 28.1613 163.586 27.966 163.687C27.774 163.784 27.6226 163.924 27.5119 164.106C27.4045 164.289 27.3508 164.504 27.3508 164.751H26.4475C26.4475 164.39 26.5386 164.061 26.7209 163.765C26.9032 163.468 27.1587 163.232 27.4875 163.057C27.8195 162.881 28.2036 162.793 28.6398 162.793C29.0695 162.793 29.4455 162.869 29.7678 163.022C30.09 163.172 30.3407 163.397 30.5197 163.696C30.6988 163.993 30.7883 164.362 30.7883 164.805C30.7883 164.984 30.746 165.176 30.6613 165.381C30.5799 165.583 30.4514 165.771 30.2756 165.947C30.1031 166.123 29.8785 166.268 29.6018 166.382C29.3251 166.493 28.993 166.548 28.6057 166.548H27.8342V166.001ZM27.8342 166.743V166.201H28.6057C29.0581 166.201 29.4325 166.255 29.7287 166.362C30.0249 166.47 30.2577 166.613 30.427 166.792C30.5995 166.971 30.7199 167.168 30.7883 167.383C30.8599 167.594 30.8957 167.806 30.8957 168.018C30.8957 168.35 30.8387 168.644 30.7248 168.901C30.6141 169.159 30.4563 169.377 30.2512 169.556C30.0493 169.735 29.8117 169.87 29.5383 169.961C29.2648 170.052 28.967 170.098 28.6447 170.098C28.3355 170.098 28.0441 170.054 27.7707 169.966C27.5005 169.878 27.2613 169.751 27.0529 169.585C26.8446 169.416 26.6818 169.209 26.5646 168.965C26.4475 168.717 26.3889 168.436 26.3889 168.12H27.2922C27.2922 168.368 27.3459 168.584 27.4533 168.77C27.564 168.955 27.7202 169.1 27.9221 169.204C28.1271 169.305 28.368 169.355 28.6447 169.355C28.9214 169.355 29.159 169.308 29.3576 169.214C29.5594 169.116 29.7141 168.97 29.8215 168.774C29.9322 168.579 29.9875 168.333 29.9875 168.037C29.9875 167.741 29.9257 167.498 29.802 167.31C29.6783 167.118 29.5025 166.976 29.2746 166.885C29.05 166.79 28.7847 166.743 28.4787 166.743H27.8342ZM35.683 162.891L32.7191 170.61H31.9428L34.9115 162.891H35.683ZM41.5299 169.258V170H36.8766V169.351L39.2057 166.758C39.4921 166.439 39.7135 166.169 39.8697 165.947C40.0292 165.723 40.1399 165.522 40.2018 165.347C40.2669 165.168 40.2994 164.985 40.2994 164.8C40.2994 164.565 40.2506 164.354 40.1529 164.165C40.0585 163.973 39.9186 163.82 39.733 163.706C39.5475 163.592 39.3229 163.535 39.0592 163.535C38.7434 163.535 38.4798 163.597 38.2682 163.721C38.0598 163.841 37.9036 164.01 37.7994 164.229C37.6952 164.447 37.6432 164.697 37.6432 164.98H36.7398C36.7398 164.58 36.8277 164.214 37.0035 163.882C37.1793 163.55 37.4397 163.286 37.7848 163.091C38.1298 162.892 38.5546 162.793 39.0592 162.793C39.5084 162.793 39.8925 162.873 40.2115 163.032C40.5305 163.188 40.7747 163.41 40.9439 163.696C41.1165 163.979 41.2027 164.312 41.2027 164.692C41.2027 164.901 41.1669 165.112 41.0953 165.327C41.027 165.539 40.9309 165.75 40.8072 165.962C40.6868 166.174 40.5452 166.382 40.3824 166.587C40.2229 166.792 40.052 166.994 39.8697 167.192L37.9654 169.258H41.5299ZM47.6014 167.607V168.35H42.4646V167.817L45.6482 162.891H46.3855L45.5945 164.316L43.49 167.607H47.6014ZM46.6102 162.891V170H45.7068V162.891H46.6102Z" fill="white"/>
<circle opacity="0.5" cx="294" cy="155" r="13" fill="white"/>
<circle opacity="0.8" cx="277" cy="155" r="13" fill="white"/>
</svg>
