<svg width="327" height="190" viewBox="0 0 327 190" fill="none" xmlns="http://www.w3.org/2000/svg">
<rect width="327" height="190" rx="16" fill="#1D3A70"/>
<mask id="mask0_2_3008" style="mask-type:alpha" maskUnits="userSpaceOnUse" x="0" y="0" width="327" height="190">
<rect width="327" height="190" rx="16" fill="#1DAB87"/>
</mask>
<g mask="url(#mask0_2_3008)">
<path opacity="0.5" d="M227.333 95H207V144.5M227.333 95H266.983M227.333 95L247.667 111.5M227.333 95V126.35M227.333 194H207V177.5M227.333 194L246.65 178.325M227.333 194V161M227.333 194L207 177.5M227.333 194H266.983M246.65 178.325H287.317M246.65 178.325L227.333 161M287.317 178.325L306.633 194M287.317 178.325L266.983 194M287.317 178.325L288.333 146.15M287.317 178.325L266.983 161.825M306.633 194H329V175.85M306.633 194L329 175.85M306.633 194V161M306.633 194H266.983M329 175.85V147.8M306.633 161L288.333 146.15M306.633 161L329 147.8M288.333 146.15L307.65 130.475M288.333 146.15V112.325M288.333 146.15L266.983 161.825M307.65 130.475L329 147.8M307.65 130.475V96.65M307.65 95H329V111.5M307.65 95V96.65M307.65 95H266.983M307.65 95L329 111.5M329 147.8V111.5M288.333 112.325L307.65 96.65M288.333 112.325L266.983 95M288.333 112.325L268 128M288.333 112.325L247.667 111.5M268 128L247.667 111.5M268 128L266.983 161.825M247.667 111.5L227.333 126.35M247.667 111.5L246.65 145.325M227.333 126.35V128M207 144.5L227.333 128M207 144.5L227.333 161M207 144.5V177.5M227.333 128V161M227.333 161L246.65 145.325M227.333 161L266.983 161.825M246.65 145.325L266.983 161.825" stroke="white"/>
<path opacity="0.5" d="M227.333 -4H207V45.5M227.333 -4H266.983M227.333 -4L247.667 12.5M227.333 -4V27.35M227.333 95H207V78.5M227.333 95L246.65 79.325M227.333 95V62M227.333 95L207 78.5M227.333 95H266.983M246.65 79.325H287.317M246.65 79.325L227.333 62M287.317 79.325L306.633 95M287.317 79.325L266.983 95M287.317 79.325L288.333 47.15M287.317 79.325L266.983 62.825M306.633 95H329V76.85M306.633 95L329 76.85M306.633 95V62M306.633 95H266.983M329 76.85V48.8M306.633 62L288.333 47.15M306.633 62L329 48.8M288.333 47.15L307.65 31.475M288.333 47.15V13.325M288.333 47.15L266.983 62.825M307.65 31.475L329 48.8M307.65 31.475V-2.35M307.65 -4H329V12.5M307.65 -4V-2.35M307.65 -4H266.983M307.65 -4L329 12.5M329 48.8V12.5M288.333 13.325L307.65 -2.35M288.333 13.325L266.983 -4M288.333 13.325L268 29M288.333 13.325L247.667 12.5M268 29L247.667 12.5M268 29L266.983 62.825M247.667 12.5L227.333 27.35M247.667 12.5L246.65 46.325M227.333 27.35V29M207 45.5L227.333 29M207 45.5L227.333 62M207 45.5V78.5M227.333 29V62M227.333 62L246.65 46.325M227.333 62L266.983 62.825M246.65 46.325L266.983 62.825" stroke="white"/>
<circle opacity="0.5" cx="50" cy="37" r="13" fill="white"/>
<circle opacity="0.8" cx="33" cy="37" r="13" fill="white"/>
<path d="M20.8613 94.2695L22.3584 92.4033L20.1846 91.7881L20.5947 90.585L22.7275 91.4326L22.5977 89.0469H23.9238L23.7803 91.4805L25.8721 90.6396L26.2754 91.8633L24.0674 92.4785L25.5166 94.3037L24.4434 95.0557L23.1855 93.0596L21.9346 94.9941L20.8613 94.2695ZM27.5188 94.2695L29.0158 92.4033L26.842 91.7881L27.2521 90.585L29.385 91.4326L29.2551 89.0469H30.5813L30.4377 91.4805L32.5295 90.6396L32.9328 91.8633L30.7248 92.4785L32.174 94.3037L31.1008 95.0557L29.843 93.0596L28.592 94.9941L27.5188 94.2695ZM34.1762 94.2695L35.6732 92.4033L33.4994 91.7881L33.9096 90.585L36.0424 91.4326L35.9125 89.0469H37.2387L37.0951 91.4805L39.1869 90.6396L39.5902 91.8633L37.3822 92.4785L38.8314 94.3037L37.7582 95.0557L36.5004 93.0596L35.2494 94.9941L34.1762 94.2695ZM40.8336 94.2695L42.3307 92.4033L40.1568 91.7881L40.567 90.585L42.6998 91.4326L42.5699 89.0469H43.8961L43.7525 91.4805L45.8443 90.6396L46.2477 91.8633L44.0396 92.4785L45.4889 94.3037L44.4156 95.0557L43.1578 93.0596L41.9068 94.9941L40.8336 94.2695ZM55.0637 94.2695L56.5607 92.4033L54.3869 91.7881L54.7971 90.585L56.9299 91.4326L56.8 89.0469H58.1262L57.9826 91.4805L60.0744 90.6396L60.4777 91.8633L58.2697 92.4785L59.7189 94.3037L58.6457 95.0557L57.3879 93.0596L56.1369 94.9941L55.0637 94.2695ZM61.7211 94.2695L63.2182 92.4033L61.0443 91.7881L61.4545 90.585L63.5873 91.4326L63.4574 89.0469H64.7836L64.64 91.4805L66.7318 90.6396L67.1352 91.8633L64.9271 92.4785L66.3764 94.3037L65.3031 95.0557L64.0453 93.0596L62.7943 94.9941L61.7211 94.2695ZM68.3785 94.2695L69.8756 92.4033L67.7018 91.7881L68.1119 90.585L70.2447 91.4326L70.1148 89.0469H71.441L71.2975 91.4805L73.3893 90.6396L73.7926 91.8633L71.5846 92.4785L73.0338 94.3037L71.9605 95.0557L70.7027 93.0596L69.4518 94.9941L68.3785 94.2695ZM75.0359 94.2695L76.533 92.4033L74.3592 91.7881L74.7693 90.585L76.9021 91.4326L76.7723 89.0469H78.0984L77.9549 91.4805L80.0467 90.6396L80.45 91.8633L78.242 92.4785L79.6912 94.3037L78.618 95.0557L77.3602 93.0596L76.1092 94.9941L75.0359 94.2695ZM89.266 94.2695L90.7631 92.4033L88.5893 91.7881L88.9994 90.585L91.1322 91.4326L91.0023 89.0469H92.3285L92.185 91.4805L94.2768 90.6396L94.6801 91.8633L92.4721 92.4785L93.9213 94.3037L92.848 95.0557L91.5902 93.0596L90.3393 94.9941L89.266 94.2695ZM95.9234 94.2695L97.4205 92.4033L95.2467 91.7881L95.6568 90.585L97.7896 91.4326L97.6598 89.0469H98.9859L98.8424 91.4805L100.934 90.6396L101.338 91.8633L99.1295 92.4785L100.579 94.3037L99.5055 95.0557L98.2477 93.0596L96.9967 94.9941L95.9234 94.2695ZM102.581 94.2695L104.078 92.4033L101.904 91.7881L102.314 90.585L104.447 91.4326L104.317 89.0469H105.643L105.5 91.4805L107.592 90.6396L107.995 91.8633L105.787 92.4785L107.236 94.3037L106.163 95.0557L104.905 93.0596L103.654 94.9941L102.581 94.2695ZM109.238 94.2695L110.735 92.4033L108.562 91.7881L108.972 90.585L111.104 91.4326L110.975 89.0469H112.301L112.157 91.4805L114.249 90.6396L114.652 91.8633L112.444 92.4785L113.894 94.3037L112.82 95.0557L111.562 93.0596L110.312 94.9941L109.238 94.2695ZM128.089 89.0264V99H126.121V91.2959L123.755 92.0479V90.4961L127.878 89.0264H128.089ZM136.429 89.0264V99H134.46V91.2959L132.095 92.0479V90.4961L136.217 89.0264H136.429ZM146.777 97.4619V99H139.969V97.6875L143.188 94.2354C143.512 93.8753 143.767 93.5586 143.954 93.2852C144.141 93.0072 144.275 92.7588 144.357 92.54C144.444 92.3167 144.487 92.1048 144.487 91.9043C144.487 91.6035 144.437 91.346 144.337 91.1318C144.237 90.9131 144.089 90.7445 143.893 90.626C143.701 90.5075 143.464 90.4482 143.182 90.4482C142.881 90.4482 142.621 90.5212 142.402 90.667C142.188 90.8128 142.024 91.0156 141.91 91.2754C141.801 91.5352 141.746 91.8291 141.746 92.1572H139.771C139.771 91.5648 139.912 91.0225 140.194 90.5303C140.477 90.0335 140.876 89.6393 141.391 89.3477C141.906 89.0514 142.516 88.9033 143.223 88.9033C143.92 88.9033 144.508 89.0173 144.986 89.2451C145.469 89.4684 145.834 89.792 146.08 90.2158C146.331 90.6351 146.456 91.1364 146.456 91.7197C146.456 92.0479 146.404 92.3691 146.299 92.6836C146.194 92.9935 146.044 93.3034 145.848 93.6133C145.656 93.9186 145.424 94.2285 145.15 94.543C144.877 94.8574 144.574 95.1833 144.241 95.5205L142.512 97.4619H146.777ZM153.107 89.0264V99H151.138V91.2959L148.773 92.0479V90.4961L152.895 89.0264H153.107Z" fill="white"/>
<path opacity="0.6" d="M24.2715 109.422V118H23.1875V110.775L21.002 111.572V110.594L24.1016 109.422H24.2715ZM29.341 113.201H30.1145C30.4934 113.201 30.8059 113.139 31.052 113.014C31.302 112.885 31.4875 112.711 31.6086 112.492C31.7336 112.27 31.7961 112.02 31.7961 111.742C31.7961 111.414 31.7414 111.139 31.632 110.916C31.5227 110.693 31.3586 110.525 31.1398 110.412C30.9211 110.299 30.6438 110.242 30.3078 110.242C30.0031 110.242 29.7336 110.303 29.4992 110.424C29.2688 110.541 29.0871 110.709 28.9543 110.928C28.8254 111.146 28.7609 111.404 28.7609 111.701H27.677C27.677 111.268 27.7863 110.873 28.0051 110.518C28.2238 110.162 28.5305 109.879 28.925 109.668C29.3234 109.457 29.7844 109.352 30.3078 109.352C30.8234 109.352 31.2746 109.443 31.6613 109.627C32.048 109.807 32.3488 110.076 32.5637 110.436C32.7785 110.791 32.8859 111.234 32.8859 111.766C32.8859 111.98 32.8352 112.211 32.7336 112.457C32.6359 112.699 32.4816 112.926 32.2707 113.137C32.0637 113.348 31.7941 113.521 31.4621 113.658C31.1301 113.791 30.7316 113.857 30.2668 113.857H29.341V113.201ZM29.341 114.092V113.441H30.2668C30.8098 113.441 31.259 113.506 31.6145 113.635C31.9699 113.764 32.2492 113.936 32.4523 114.15C32.6594 114.365 32.8039 114.602 32.8859 114.859C32.9719 115.113 33.0148 115.367 33.0148 115.621C33.0148 116.02 32.9465 116.373 32.8098 116.682C32.677 116.99 32.4875 117.252 32.2414 117.467C31.9992 117.682 31.7141 117.844 31.3859 117.953C31.0578 118.062 30.7004 118.117 30.3137 118.117C29.9426 118.117 29.593 118.064 29.2648 117.959C28.9406 117.854 28.6535 117.701 28.4035 117.502C28.1535 117.299 27.9582 117.051 27.8176 116.758C27.677 116.461 27.6066 116.123 27.6066 115.744H28.6906C28.6906 116.041 28.7551 116.301 28.884 116.523C29.0168 116.746 29.2043 116.92 29.4465 117.045C29.6926 117.166 29.9816 117.227 30.3137 117.227C30.6457 117.227 30.9309 117.17 31.1691 117.057C31.4113 116.939 31.5969 116.764 31.7258 116.529C31.8586 116.295 31.925 116 31.925 115.645C31.925 115.289 31.8508 114.998 31.7023 114.771C31.5539 114.541 31.343 114.371 31.0695 114.262C30.8 114.148 30.4816 114.092 30.1145 114.092H29.341ZM38.6996 109.469L35.143 118.732H34.2113L37.7738 109.469H38.6996ZM45.6559 117.109V118H40.0719V117.221L42.8668 114.109C43.2105 113.727 43.4762 113.402 43.6637 113.137C43.8551 112.867 43.9879 112.627 44.0621 112.416C44.1402 112.201 44.1793 111.982 44.1793 111.76C44.1793 111.479 44.1207 111.225 44.0035 110.998C43.8902 110.768 43.7223 110.584 43.4996 110.447C43.277 110.311 43.0074 110.242 42.691 110.242C42.3121 110.242 41.9957 110.316 41.7418 110.465C41.4918 110.609 41.3043 110.812 41.1793 111.074C41.0543 111.336 40.9918 111.637 40.9918 111.977H39.9078C39.9078 111.496 40.0133 111.057 40.2242 110.658C40.4352 110.26 40.7477 109.943 41.1617 109.709C41.5758 109.471 42.0855 109.352 42.691 109.352C43.2301 109.352 43.691 109.447 44.0738 109.639C44.4566 109.826 44.7496 110.092 44.9527 110.436C45.1598 110.775 45.2633 111.174 45.2633 111.631C45.2633 111.881 45.2203 112.135 45.1344 112.393C45.0523 112.646 44.9371 112.9 44.7887 113.154C44.6441 113.408 44.4742 113.658 44.2789 113.904C44.0875 114.15 43.8824 114.393 43.6637 114.631L41.3785 117.109H45.6559ZM52.8816 115.129V116.02H46.7176V115.381L50.5379 109.469H51.4227L50.4734 111.18L47.948 115.129H52.8816ZM51.6922 109.469V118H50.6082V109.469H51.6922Z" fill="white"/>
</g>
<path d="M25.1064 154.047V164H23.4043V154.047H25.1064ZM28.2305 154.047V155.414H20.3076V154.047H28.2305ZM28.4074 160.384V160.227C28.4074 159.693 28.4849 159.199 28.6398 158.743C28.7948 158.283 29.0181 157.884 29.3098 157.547C29.606 157.205 29.966 156.941 30.3898 156.754C30.8182 156.562 31.3013 156.467 31.8391 156.467C32.3814 156.467 32.8645 156.562 33.2883 156.754C33.7167 156.941 34.079 157.205 34.3752 157.547C34.6714 157.884 34.897 158.283 35.052 158.743C35.2069 159.199 35.2844 159.693 35.2844 160.227V160.384C35.2844 160.917 35.2069 161.411 35.052 161.867C34.897 162.323 34.6714 162.722 34.3752 163.063C34.079 163.401 33.7189 163.665 33.2951 163.856C32.8713 164.043 32.3905 164.137 31.8527 164.137C31.3104 164.137 30.8251 164.043 30.3967 163.856C29.9729 163.665 29.6128 163.401 29.3166 163.063C29.0204 162.722 28.7948 162.323 28.6398 161.867C28.4849 161.411 28.4074 160.917 28.4074 160.384ZM30.0549 160.227V160.384C30.0549 160.716 30.0891 161.031 30.1574 161.327C30.2258 161.623 30.3329 161.883 30.4787 162.106C30.6245 162.33 30.8114 162.505 31.0393 162.633C31.2671 162.76 31.5383 162.824 31.8527 162.824C32.1581 162.824 32.4224 162.76 32.6457 162.633C32.8736 162.505 33.0604 162.33 33.2063 162.106C33.3521 161.883 33.4592 161.623 33.5275 161.327C33.6005 161.031 33.6369 160.716 33.6369 160.384V160.227C33.6369 159.898 33.6005 159.589 33.5275 159.297C33.4592 159.001 33.3498 158.739 33.1994 158.511C33.0536 158.283 32.8667 158.105 32.6389 157.978C32.4156 157.845 32.149 157.779 31.8391 157.779C31.5292 157.779 31.2603 157.845 31.0324 157.978C30.8091 158.105 30.6245 158.283 30.4787 158.511C30.3329 158.739 30.2258 159.001 30.1574 159.297C30.0891 159.589 30.0549 159.898 30.0549 160.227ZM38.6127 158.107V164H36.9652V156.604H38.517L38.6127 158.107ZM38.3461 160.028L37.7855 160.021C37.7855 159.511 37.8493 159.039 37.977 158.606C38.1046 158.174 38.2914 157.798 38.5375 157.479C38.7836 157.155 39.0889 156.907 39.4535 156.733C39.8227 156.556 40.2488 156.467 40.7318 156.467C41.0691 156.467 41.3767 156.517 41.6547 156.617C41.9372 156.713 42.1811 156.866 42.3861 157.075C42.5958 157.285 42.7553 157.554 42.8646 157.882C42.9786 158.21 43.0355 158.606 43.0355 159.071V164H41.3881V159.215C41.3881 158.855 41.3334 158.572 41.224 158.367C41.1192 158.162 40.9665 158.016 40.766 157.93C40.5701 157.839 40.3354 157.793 40.0619 157.793C39.752 157.793 39.4877 157.852 39.2689 157.971C39.0548 158.089 38.8793 158.251 38.7426 158.456C38.6059 158.661 38.5056 158.898 38.4418 159.167C38.378 159.436 38.3461 159.723 38.3461 160.028ZM42.933 159.591L42.1605 159.762C42.1605 159.315 42.2221 158.894 42.3451 158.497C42.4727 158.096 42.6573 157.745 42.8988 157.444C43.1449 157.139 43.448 156.9 43.808 156.727C44.168 156.553 44.5805 156.467 45.0453 156.467C45.4236 156.467 45.7608 156.519 46.057 156.624C46.3578 156.724 46.613 156.884 46.8227 157.103C47.0323 157.321 47.1918 157.606 47.3012 157.957C47.4105 158.303 47.4652 158.723 47.4652 159.215V164H45.8109V159.208C45.8109 158.834 45.7563 158.545 45.6469 158.34C45.5421 158.135 45.3917 157.993 45.1957 157.916C44.9997 157.834 44.765 157.793 44.4916 157.793C44.2364 157.793 44.0108 157.841 43.8148 157.937C43.6234 158.028 43.4617 158.158 43.3295 158.326C43.1973 158.49 43.0971 158.679 43.0287 158.894C42.9649 159.108 42.933 159.34 42.933 159.591ZM51.108 158.107V164H49.4605V156.604H51.0123L51.108 158.107ZM50.8414 160.028L50.2809 160.021C50.2809 159.511 50.3447 159.039 50.4723 158.606C50.5999 158.174 50.7867 157.798 51.0328 157.479C51.2789 157.155 51.5842 156.907 51.9488 156.733C52.318 156.556 52.7441 156.467 53.2271 156.467C53.5644 156.467 53.872 156.517 54.15 156.617C54.4326 156.713 54.6764 156.866 54.8814 157.075C55.0911 157.285 55.2506 157.554 55.36 157.882C55.4739 158.21 55.5309 158.606 55.5309 159.071V164H53.8834V159.215C53.8834 158.855 53.8287 158.572 53.7193 158.367C53.6145 158.162 53.4618 158.016 53.2613 157.93C53.0654 157.839 52.8307 157.793 52.5572 157.793C52.2473 157.793 51.983 157.852 51.7643 157.971C51.5501 158.089 51.3746 158.251 51.2379 158.456C51.1012 158.661 51.0009 158.898 50.9371 159.167C50.8733 159.436 50.8414 159.723 50.8414 160.028ZM55.4283 159.591L54.6559 159.762C54.6559 159.315 54.7174 158.894 54.8404 158.497C54.968 158.096 55.1526 157.745 55.3941 157.444C55.6402 157.139 55.9433 156.9 56.3033 156.727C56.6633 156.553 57.0758 156.467 57.5406 156.467C57.9189 156.467 58.2561 156.519 58.5523 156.624C58.8531 156.724 59.1083 156.884 59.318 157.103C59.5276 157.321 59.6871 157.606 59.7965 157.957C59.9059 158.303 59.9605 158.723 59.9605 159.215V164H58.3062V159.208C58.3062 158.834 58.2516 158.545 58.1422 158.34C58.0374 158.135 57.887 157.993 57.691 157.916C57.4951 157.834 57.2604 157.793 56.9869 157.793C56.7317 157.793 56.5061 157.841 56.3102 157.937C56.1187 158.028 55.957 158.158 55.8248 158.326C55.6926 158.49 55.5924 158.679 55.524 158.894C55.4602 159.108 55.4283 159.34 55.4283 159.591ZM64.1023 163.193L66.1121 156.604H67.8758L64.909 165.128C64.8406 165.31 64.7518 165.508 64.6424 165.723C64.533 165.937 64.3895 166.14 64.2117 166.331C64.0385 166.527 63.8221 166.684 63.5623 166.803C63.3025 166.926 62.9881 166.987 62.6189 166.987C62.4731 166.987 62.3318 166.974 62.1951 166.946C62.063 166.924 61.9376 166.898 61.8191 166.871L61.8123 165.613C61.8579 165.618 61.9126 165.622 61.9764 165.627C62.0447 165.632 62.0994 165.634 62.1404 165.634C62.4139 165.634 62.6417 165.6 62.824 165.531C63.0063 165.467 63.1544 165.363 63.2684 165.217C63.3868 165.071 63.4871 164.875 63.5691 164.629L64.1023 163.193ZM62.9676 156.604L64.7244 162.141L65.0184 163.877L63.8768 164.171L61.1902 156.604H62.9676ZM77.1643 161.013V154.047H78.8732V161.013C78.8732 161.674 78.732 162.236 78.4494 162.701C78.1669 163.166 77.7818 163.521 77.2941 163.768C76.8065 164.014 76.2528 164.137 75.633 164.137C74.9995 164.137 74.4367 164.03 73.9445 163.815C73.4569 163.601 73.0741 163.273 72.7961 162.831C72.5181 162.389 72.3791 161.828 72.3791 161.149H74.1018C74.1018 161.541 74.1633 161.858 74.2863 162.1C74.4139 162.337 74.5917 162.51 74.8195 162.619C75.052 162.724 75.3231 162.776 75.633 162.776C75.9292 162.776 76.1913 162.71 76.4191 162.578C76.6516 162.441 76.8339 162.243 76.966 161.983C77.0982 161.719 77.1643 161.396 77.1643 161.013ZM85.1547 162.517V158.989C85.1547 158.725 85.1068 158.497 85.0111 158.306C84.9154 158.114 84.7696 157.966 84.5736 157.861C84.3822 157.757 84.1407 157.704 83.849 157.704C83.5801 157.704 83.3477 157.75 83.1518 157.841C82.9558 157.932 82.8031 158.055 82.6937 158.21C82.5844 158.365 82.5297 158.54 82.5297 158.736H80.8891C80.8891 158.445 80.9597 158.162 81.101 157.889C81.2423 157.615 81.4473 157.371 81.7162 157.157C81.9851 156.943 82.3064 156.774 82.6801 156.651C83.0538 156.528 83.473 156.467 83.9379 156.467C84.4939 156.467 84.9861 156.56 85.4145 156.747C85.8474 156.934 86.1869 157.216 86.433 157.595C86.6837 157.968 86.809 158.438 86.809 159.003V162.291C86.809 162.628 86.8318 162.931 86.8773 163.2C86.9275 163.465 86.9981 163.695 87.0893 163.891V164H85.4008C85.3233 163.822 85.2618 163.597 85.2162 163.323C85.1752 163.045 85.1547 162.776 85.1547 162.517ZM85.3939 159.502L85.4076 160.521H84.225C83.9197 160.521 83.6508 160.55 83.4184 160.609C83.1859 160.664 82.9923 160.746 82.8373 160.855C82.6824 160.965 82.5661 161.097 82.4887 161.252C82.4112 161.407 82.3725 161.582 82.3725 161.778C82.3725 161.974 82.418 162.154 82.5092 162.318C82.6003 162.478 82.7325 162.603 82.9057 162.694C83.0834 162.785 83.2976 162.831 83.5482 162.831C83.8855 162.831 84.1794 162.763 84.4301 162.626C84.6853 162.485 84.8858 162.314 85.0316 162.113C85.1775 161.908 85.2549 161.715 85.2641 161.532L85.7973 162.264C85.7426 162.451 85.6492 162.651 85.517 162.865C85.3848 163.079 85.2117 163.285 84.9975 163.48C84.7878 163.672 84.5349 163.829 84.2387 163.952C83.947 164.075 83.6098 164.137 83.227 164.137C82.7439 164.137 82.3132 164.041 81.935 163.85C81.5567 163.654 81.2605 163.392 81.0463 163.063C80.8321 162.731 80.725 162.355 80.725 161.936C80.725 161.544 80.7979 161.197 80.9437 160.896C81.0941 160.591 81.3129 160.336 81.6 160.131C81.8917 159.926 82.2471 159.771 82.6664 159.666C83.0857 159.557 83.5642 159.502 84.102 159.502H85.3939ZM92.9811 161.997C92.9811 161.833 92.94 161.685 92.858 161.553C92.776 161.416 92.6188 161.293 92.3863 161.184C92.1585 161.074 91.8212 160.974 91.3746 160.883C90.9827 160.796 90.6227 160.694 90.2945 160.575C89.971 160.452 89.693 160.304 89.4605 160.131C89.2281 159.958 89.0481 159.753 88.9205 159.516C88.7929 159.279 88.7291 159.005 88.7291 158.695C88.7291 158.395 88.7952 158.11 88.9273 157.841C89.0595 157.572 89.2486 157.335 89.4947 157.13C89.7408 156.925 90.0393 156.763 90.3902 156.645C90.7457 156.526 91.1422 156.467 91.5797 156.467C92.1995 156.467 92.7304 156.572 93.1725 156.781C93.6191 156.986 93.9609 157.267 94.1979 157.622C94.4348 157.973 94.5533 158.369 94.5533 158.812H92.9059C92.9059 158.616 92.8557 158.433 92.7555 158.265C92.6598 158.091 92.5139 157.952 92.318 157.848C92.122 157.738 91.8759 157.684 91.5797 157.684C91.2971 157.684 91.0624 157.729 90.8756 157.82C90.6933 157.907 90.5566 158.021 90.4654 158.162C90.3788 158.303 90.3355 158.458 90.3355 158.627C90.3355 158.75 90.3583 158.862 90.4039 158.962C90.454 159.058 90.5361 159.146 90.65 159.229C90.7639 159.306 90.9189 159.379 91.1148 159.447C91.3154 159.516 91.566 159.582 91.8668 159.646C92.4319 159.764 92.9173 159.917 93.3229 160.104C93.733 160.286 94.0475 160.523 94.2662 160.814C94.485 161.102 94.5943 161.466 94.5943 161.908C94.5943 162.236 94.5237 162.537 94.3824 162.811C94.2457 163.079 94.0452 163.314 93.7809 163.515C93.5165 163.711 93.1998 163.863 92.8307 163.973C92.4661 164.082 92.0559 164.137 91.6002 164.137C90.9303 164.137 90.3629 164.018 89.898 163.781C89.4332 163.54 89.08 163.232 88.8385 162.858C88.6015 162.48 88.483 162.088 88.483 161.683H90.0758C90.094 161.988 90.1783 162.232 90.3287 162.414C90.4837 162.592 90.6751 162.722 90.9029 162.804C91.1354 162.881 91.3746 162.92 91.6207 162.92C91.9169 162.92 92.1653 162.881 92.3658 162.804C92.5663 162.722 92.719 162.612 92.8238 162.476C92.9286 162.334 92.9811 162.175 92.9811 161.997ZM96.0223 160.384V160.227C96.0223 159.693 96.0997 159.199 96.2547 158.743C96.4096 158.283 96.6329 157.884 96.9246 157.547C97.2208 157.205 97.5809 156.941 98.0047 156.754C98.4331 156.562 98.9161 156.467 99.4539 156.467C99.9962 156.467 100.479 156.562 100.903 156.754C101.332 156.941 101.694 157.205 101.99 157.547C102.286 157.884 102.512 158.283 102.667 158.743C102.822 159.199 102.899 159.693 102.899 160.227V160.384C102.899 160.917 102.822 161.411 102.667 161.867C102.512 162.323 102.286 162.722 101.99 163.063C101.694 163.401 101.334 163.665 100.91 163.856C100.486 164.043 100.005 164.137 99.4676 164.137C98.9253 164.137 98.4399 164.043 98.0115 163.856C97.5877 163.665 97.2277 163.401 96.9314 163.063C96.6352 162.722 96.4096 162.323 96.2547 161.867C96.0997 161.411 96.0223 160.917 96.0223 160.384ZM97.6697 160.227V160.384C97.6697 160.716 97.7039 161.031 97.7723 161.327C97.8406 161.623 97.9477 161.883 98.0936 162.106C98.2394 162.33 98.4262 162.505 98.6541 162.633C98.882 162.76 99.1531 162.824 99.4676 162.824C99.7729 162.824 100.037 162.76 100.261 162.633C100.488 162.505 100.675 162.33 100.821 162.106C100.967 161.883 101.074 161.623 101.142 161.327C101.215 161.031 101.252 160.716 101.252 160.384V160.227C101.252 159.898 101.215 159.589 101.142 159.297C101.074 159.001 100.965 158.739 100.814 158.511C100.668 158.283 100.482 158.105 100.254 157.978C100.03 157.845 99.7638 157.779 99.4539 157.779C99.144 157.779 98.8751 157.845 98.6473 157.978C98.424 158.105 98.2394 158.283 98.0936 158.511C97.9477 158.739 97.8406 159.001 97.7723 159.297C97.7039 159.589 97.6697 159.898 97.6697 160.227ZM106.214 158.183V164H104.566V156.604H106.118L106.214 158.183ZM105.92 160.028L105.387 160.021C105.391 159.497 105.464 159.017 105.605 158.579C105.751 158.142 105.952 157.766 106.207 157.451C106.467 157.137 106.777 156.895 107.137 156.727C107.497 156.553 107.898 156.467 108.34 156.467C108.695 156.467 109.017 156.517 109.304 156.617C109.595 156.713 109.844 156.87 110.049 157.089C110.258 157.308 110.418 157.592 110.527 157.943C110.637 158.29 110.691 158.716 110.691 159.222V164H109.037V159.215C109.037 158.859 108.985 158.579 108.88 158.374C108.78 158.164 108.632 158.016 108.436 157.93C108.244 157.839 108.005 157.793 107.718 157.793C107.435 157.793 107.182 157.852 106.959 157.971C106.736 158.089 106.547 158.251 106.392 158.456C106.241 158.661 106.125 158.898 106.043 159.167C105.961 159.436 105.92 159.723 105.92 160.028Z" fill="white"/>
</svg>
