<svg width="24" height="24" viewBox="0 0 24 24" fill="none" xmlns="http://www.w3.org/2000/svg">
<path d="M20 22.0001H4C3.73478 22.0001 3.48043 21.8947 3.29289 21.7072C3.10536 21.5196 3 21.2653 3 21.0001V3.00006C3 2.73484 3.10536 2.48049 3.29289 2.29295C3.48043 2.10542 3.73478 2.00006 4 2.00006H20C20.2652 2.00006 20.5196 2.10542 20.7071 2.29295C20.8946 2.48049 21 2.73484 21 3.00006V21.0001C21 21.2653 20.8946 21.5196 20.7071 21.7072C20.5196 21.8947 20.2652 22.0001 20 22.0001ZM19 20.0001V4.00006H5V20.0001H19ZM7 6.00006H11V10.0001H7V6.00006ZM7 12.0001H17V14.0001H7V12.0001ZM7 16.0001H17V18.0001H7V16.0001ZM13 7.00006H17V9.00006H13V7.00006Z" fill="#03053D"/>
</svg>
