<svg width="121" height="71" viewBox="0 0 121 71" fill="none" xmlns="http://www.w3.org/2000/svg">
<path fill-rule="evenodd" clip-rule="evenodd" d="M102.791 59.9642C103.352 62.4262 103.285 64.79 103.326 67.281C103.334 67.7675 102.956 68.1674 102.482 68.1764C102.007 68.1853 101.616 67.7968 101.608 67.3103C101.569 64.9483 101.65 62.7019 101.118 60.3632C101.01 59.8902 101.298 59.416 101.76 59.3073C102.221 59.1956 102.684 59.4912 102.791 59.9642Z" fill="#FFF1EE"/>
<path fill-rule="evenodd" clip-rule="evenodd" d="M107.861 55.2663C111.819 59.0581 115.533 63.9194 118.112 68.8141C118.336 69.2416 118.18 69.776 117.763 70.0054C117.346 70.2348 116.824 70.0762 116.599 69.6487C114.106 64.9162 110.514 60.2146 106.686 56.5503C106.341 56.218 106.323 55.6611 106.647 55.3075C106.971 54.9539 107.515 54.934 107.861 55.2663Z" fill="#FFF1EE"/>
<path fill-rule="evenodd" clip-rule="evenodd" d="M108.924 51.1886C112.592 50.6141 116.353 51.7138 119.665 53.2447C120.096 53.4462 120.288 53.9671 120.093 54.4072C119.898 54.8502 119.388 55.0463 118.956 54.8478C115.941 53.4523 112.524 52.4036 109.183 52.9263C108.714 52.9998 108.275 52.6693 108.204 52.1909C108.133 51.7124 108.455 51.2621 108.924 51.1886Z" fill="#FFF1EE"/>
<path fill-rule="evenodd" clip-rule="evenodd" d="M101.791 56.9642C102.352 59.4262 102.285 61.79 102.326 64.281C102.334 64.7675 101.956 65.1674 101.482 65.1764C101.007 65.1853 100.616 64.7968 100.608 64.3103C100.569 61.9483 100.65 59.7019 100.118 57.3632C100.01 56.8902 100.298 56.416 100.76 56.3073C101.221 56.1956 101.684 56.4912 101.791 56.9642Z" fill="#FFB9AA"/>
<path fill-rule="evenodd" clip-rule="evenodd" d="M106.861 52.2663C110.819 56.0581 114.533 60.9194 117.112 65.8141C117.336 66.2416 117.18 66.776 116.763 67.0054C116.346 67.2348 115.824 67.0762 115.599 66.6487C113.106 61.9162 109.514 57.2146 105.686 53.5503C105.341 53.218 105.323 52.6611 105.647 52.3075C105.971 51.9539 106.515 51.934 106.861 52.2663Z" fill="#FFB9AA"/>
<path fill-rule="evenodd" clip-rule="evenodd" d="M107.924 48.1886C111.592 47.6141 115.353 48.7138 118.665 50.2447C119.096 50.4462 119.288 50.9671 119.093 51.4072C118.898 51.8502 118.388 52.0463 117.956 51.8478C114.941 50.4523 111.524 49.4036 108.183 49.9263C107.714 49.9998 107.275 49.6693 107.204 49.1909C107.133 48.7124 107.455 48.2621 107.924 48.1886Z" fill="#FFB9AA"/>
<path d="M102 0H0V50H102V0Z" fill="#1DAB87"/>
<path d="M51 10C48.0333 10 45.1332 10.9091 42.6665 12.6122C40.1997 14.3154 38.2771 16.7362 37.1418 19.5684C36.0065 22.4007 35.7094 25.5172 36.2882 28.5239C36.867 31.5306 38.2956 34.2924 40.3934 36.4602C42.4912 38.6279 45.1639 40.1041 48.0737 40.7022C50.9834 41.3002 53.9994 40.9933 56.7402 39.8201C59.4811 38.647 61.8238 36.6603 63.472 34.1113C65.1203 31.5624 66 28.5656 66 25.5C66 21.3891 64.4196 17.4467 61.6066 14.5398C58.7936 11.633 54.9783 10 51 10ZM51 14.65C51.89 14.65 52.76 14.9227 53.5001 15.4337C54.2401 15.9446 54.8169 16.6708 55.1575 17.5205C55.498 18.3702 55.5872 19.3052 55.4135 20.2072C55.2399 21.1092 54.8113 21.9377 54.182 22.588C53.5526 23.2384 52.7508 23.6812 51.8779 23.8606C51.005 24.0401 50.1002 23.948 49.2779 23.596C48.4557 23.2441 47.7529 22.6481 47.2584 21.8834C46.7639 21.1187 46.5 20.2197 46.5 19.3C46.5002 18.0668 46.9743 16.8843 47.8182 16.0124C48.6621 15.1405 49.8066 14.6506 51 14.6506V14.65ZM51 37.0359C49.2223 37.0275 47.4735 36.571 45.9051 35.7061C44.3368 34.8412 42.9963 33.594 42 32.0726C42.0719 28.9726 48 27.2664 51 27.2664C54 27.2664 59.9281 28.9726 60 32.0726C59.0026 33.5929 57.6619 34.8392 56.0938 35.704C54.5257 36.5687 52.7774 37.0258 51 37.0359Z" fill="white"/>
</svg>
