<svg width="21" height="20" viewBox="0 0 21 20" fill="none" xmlns="http://www.w3.org/2000/svg">
<path d="M3.83337 5.83337V5.00004C3.83337 4.55801 4.00897 4.13409 4.32153 3.82153C4.63409 3.50897 5.05801 3.33337 5.50004 3.33337H7.16671" stroke="white" stroke-width="2" stroke-linecap="round" stroke-linejoin="round"/>
<path d="M3.83337 14.1667V15.0001C3.83337 15.4421 4.00897 15.866 4.32153 16.1786C4.63409 16.4912 5.05801 16.6667 5.50004 16.6667H7.16671" stroke="white" stroke-width="2" stroke-linecap="round" stroke-linejoin="round"/>
<path d="M13.8334 3.33337H15.5C15.9421 3.33337 16.366 3.50897 16.6786 3.82153C16.9911 4.13409 17.1667 4.55801 17.1667 5.00004V5.83337" stroke="white" stroke-width="2" stroke-linecap="round" stroke-linejoin="round"/>
<path d="M13.8334 16.6667H15.5C15.9421 16.6667 16.366 16.4912 16.6786 16.1786C16.9911 15.866 17.1667 15.4421 17.1667 15.0001V14.1667" stroke="white" stroke-width="2" stroke-linecap="round" stroke-linejoin="round"/>
<path d="M4.66675 10H16.3334" stroke="white" stroke-width="2" stroke-linecap="round" stroke-linejoin="round"/>
</svg>
