<svg width="310" height="190" viewBox="0 0 310 190" fill="none" xmlns="http://www.w3.org/2000/svg">
<rect width="310" height="190" rx="16" fill="#1DAB87"/>
<path opacity="0.6" d="M261.091 138.233V139H257.326V138.233H261.091ZM257.516 131.891V139H256.574V131.891H257.516ZM260.593 134.947V135.714H257.326V134.947H260.593ZM261.042 131.891V132.662H257.326V131.891H261.042ZM263.031 133.717L264.188 135.641L265.36 133.717H266.42L264.691 136.324L266.474 139H265.429L264.208 137.018L262.987 139H261.938L263.715 136.324L261.991 133.717H263.031ZM268.585 134.732V141.031H267.677V133.717H268.507L268.585 134.732ZM272.145 136.314V136.417C272.145 136.801 272.099 137.158 272.008 137.486C271.917 137.812 271.783 138.095 271.608 138.336C271.435 138.577 271.222 138.764 270.968 138.897C270.714 139.031 270.423 139.098 270.094 139.098C269.759 139.098 269.462 139.042 269.205 138.932C268.948 138.821 268.73 138.66 268.551 138.448C268.372 138.237 268.229 137.983 268.121 137.687C268.017 137.39 267.946 137.057 267.906 136.686V136.139C267.946 135.748 268.019 135.398 268.126 135.089C268.234 134.78 268.375 134.516 268.551 134.298C268.73 134.076 268.946 133.909 269.2 133.795C269.454 133.678 269.747 133.619 270.079 133.619C270.411 133.619 270.706 133.684 270.963 133.814C271.22 133.941 271.437 134.124 271.613 134.361C271.788 134.599 271.92 134.884 272.008 135.216C272.099 135.545 272.145 135.911 272.145 136.314ZM271.237 136.417V136.314C271.237 136.051 271.209 135.803 271.154 135.572C271.098 135.338 271.012 135.133 270.895 134.957C270.781 134.778 270.634 134.638 270.455 134.537C270.276 134.433 270.063 134.381 269.816 134.381C269.588 134.381 269.389 134.42 269.22 134.498C269.054 134.576 268.912 134.682 268.795 134.815C268.678 134.946 268.582 135.095 268.507 135.265C268.435 135.431 268.382 135.603 268.346 135.782V137.047C268.411 137.275 268.502 137.49 268.619 137.691C268.737 137.89 268.893 138.051 269.088 138.175C269.283 138.295 269.529 138.355 269.825 138.355C270.07 138.355 270.279 138.305 270.455 138.204C270.634 138.1 270.781 137.958 270.895 137.779C271.012 137.6 271.098 137.395 271.154 137.164C271.209 136.93 271.237 136.681 271.237 136.417ZM274.579 133.717V139H273.67V133.717H274.579ZM273.602 132.315C273.602 132.169 273.646 132.045 273.734 131.944C273.825 131.843 273.958 131.793 274.134 131.793C274.307 131.793 274.439 131.843 274.53 131.944C274.624 132.045 274.671 132.169 274.671 132.315C274.671 132.455 274.624 132.576 274.53 132.677C274.439 132.774 274.307 132.823 274.134 132.823C273.958 132.823 273.825 132.774 273.734 132.677C273.646 132.576 273.602 132.455 273.602 132.315ZM277.232 134.547V139H276.329V133.717H277.208L277.232 134.547ZM278.882 133.688L278.878 134.527C278.803 134.511 278.731 134.501 278.663 134.498C278.598 134.492 278.523 134.488 278.438 134.488C278.23 134.488 278.046 134.521 277.886 134.586C277.727 134.651 277.592 134.742 277.481 134.859C277.37 134.977 277.282 135.117 277.217 135.279C277.156 135.439 277.115 135.615 277.095 135.807L276.841 135.953C276.841 135.634 276.872 135.335 276.934 135.055C276.999 134.775 277.099 134.527 277.232 134.312C277.365 134.094 277.535 133.925 277.74 133.805C277.948 133.681 278.196 133.619 278.482 133.619C278.547 133.619 278.622 133.627 278.707 133.644C278.791 133.657 278.85 133.671 278.882 133.688ZM282.112 139.098C281.744 139.098 281.411 139.036 281.111 138.912C280.815 138.785 280.559 138.608 280.345 138.38C280.133 138.152 279.97 137.882 279.856 137.569C279.742 137.257 279.685 136.915 279.685 136.544V136.339C279.685 135.909 279.749 135.527 279.876 135.191C280.003 134.853 280.175 134.566 280.393 134.332C280.611 134.098 280.859 133.92 281.136 133.8C281.412 133.679 281.699 133.619 281.995 133.619C282.373 133.619 282.698 133.684 282.971 133.814C283.248 133.945 283.474 134.127 283.65 134.361C283.826 134.592 283.956 134.866 284.041 135.182C284.125 135.494 284.168 135.836 284.168 136.207V136.612H280.222V135.875H283.264V135.807C283.251 135.572 283.203 135.344 283.118 135.123C283.037 134.902 282.906 134.719 282.727 134.576C282.548 134.433 282.304 134.361 281.995 134.361C281.79 134.361 281.601 134.405 281.429 134.493C281.256 134.578 281.108 134.705 280.984 134.874C280.86 135.043 280.764 135.25 280.696 135.494C280.628 135.738 280.594 136.02 280.594 136.339V136.544C280.594 136.795 280.628 137.031 280.696 137.252C280.768 137.47 280.87 137.662 281.004 137.828C281.14 137.994 281.305 138.124 281.497 138.219C281.692 138.313 281.914 138.36 282.161 138.36C282.48 138.36 282.75 138.295 282.971 138.165C283.193 138.035 283.387 137.861 283.553 137.643L284.099 138.077C283.985 138.25 283.841 138.414 283.665 138.57C283.489 138.727 283.273 138.854 283.015 138.951C282.762 139.049 282.46 139.098 282.112 139.098ZM288.599 137.599C288.599 137.468 288.569 137.348 288.511 137.237C288.455 137.123 288.34 137.021 288.164 136.93C287.992 136.835 287.731 136.754 287.383 136.686C287.09 136.624 286.825 136.55 286.587 136.466C286.353 136.381 286.152 136.279 285.986 136.158C285.824 136.038 285.698 135.896 285.61 135.733C285.522 135.571 285.479 135.38 285.479 135.162C285.479 134.954 285.524 134.757 285.615 134.571C285.71 134.386 285.841 134.221 286.011 134.078C286.183 133.935 286.39 133.823 286.631 133.741C286.872 133.66 287.14 133.619 287.437 133.619C287.86 133.619 288.221 133.694 288.521 133.844C288.82 133.993 289.049 134.194 289.209 134.444C289.368 134.692 289.448 134.967 289.448 135.27H288.545C288.545 135.123 288.501 134.981 288.413 134.845C288.328 134.705 288.203 134.589 288.037 134.498C287.874 134.407 287.674 134.361 287.437 134.361C287.186 134.361 286.982 134.4 286.826 134.479C286.673 134.553 286.561 134.649 286.489 134.767C286.421 134.884 286.387 135.007 286.387 135.138C286.387 135.235 286.403 135.323 286.436 135.401C286.471 135.476 286.533 135.546 286.621 135.611C286.709 135.673 286.833 135.732 286.992 135.787C287.152 135.842 287.355 135.898 287.603 135.953C288.035 136.051 288.392 136.168 288.672 136.305C288.952 136.441 289.16 136.609 289.297 136.808C289.434 137.006 289.502 137.247 289.502 137.53C289.502 137.761 289.453 137.973 289.355 138.165C289.261 138.357 289.123 138.523 288.94 138.663C288.761 138.8 288.547 138.907 288.296 138.985C288.049 139.06 287.77 139.098 287.461 139.098C286.995 139.098 286.602 139.015 286.279 138.849C285.957 138.683 285.713 138.468 285.547 138.204C285.381 137.94 285.298 137.662 285.298 137.369H286.206C286.219 137.617 286.291 137.813 286.421 137.96C286.551 138.103 286.711 138.206 286.899 138.268C287.088 138.326 287.275 138.355 287.461 138.355C287.708 138.355 287.915 138.323 288.081 138.258C288.25 138.193 288.379 138.103 288.467 137.989C288.555 137.875 288.599 137.745 288.599 137.599Z" fill="white"/>
<path d="M258.783 154.169V155.844C258.783 156.609 258.706 157.263 258.551 157.806C258.396 158.348 258.173 158.792 257.881 159.139C257.589 159.48 257.241 159.733 256.835 159.897C256.43 160.057 255.978 160.137 255.482 160.137C255.085 160.137 254.716 160.087 254.374 159.986C254.032 159.882 253.725 159.722 253.451 159.508C253.182 159.289 252.95 159.011 252.754 158.674C252.563 158.337 252.415 157.933 252.31 157.464C252.21 156.994 252.159 156.454 252.159 155.844V154.169C252.159 153.403 252.237 152.752 252.392 152.214C252.551 151.676 252.777 151.236 253.069 150.895C253.36 150.553 253.709 150.304 254.114 150.149C254.52 149.99 254.971 149.91 255.468 149.91C255.869 149.91 256.238 149.96 256.575 150.061C256.917 150.161 257.223 150.318 257.491 150.532C257.765 150.742 257.997 151.015 258.189 151.353C258.38 151.685 258.526 152.086 258.626 152.556C258.731 153.021 258.783 153.558 258.783 154.169ZM256.979 156.09V153.916C256.979 153.533 256.956 153.201 256.91 152.918C256.869 152.631 256.808 152.387 256.726 152.187C256.644 151.986 256.541 151.824 256.418 151.701C256.295 151.574 256.154 151.48 255.994 151.421C255.835 151.362 255.659 151.332 255.468 151.332C255.231 151.332 255.019 151.38 254.832 151.476C254.645 151.567 254.488 151.713 254.361 151.913C254.233 152.114 254.135 152.38 254.067 152.713C254.003 153.041 253.971 153.442 253.971 153.916V156.09C253.971 156.473 253.991 156.808 254.032 157.095C254.078 157.382 254.142 157.628 254.224 157.833C254.31 158.038 254.413 158.207 254.531 158.339C254.654 158.466 254.796 158.562 254.955 158.626C255.115 158.685 255.29 158.715 255.482 158.715C255.723 158.715 255.935 158.667 256.117 158.571C256.304 158.476 256.461 158.325 256.589 158.12C256.717 157.91 256.812 157.639 256.876 157.307C256.945 156.969 256.979 156.564 256.979 156.09ZM261.852 158.599H261.982C262.57 158.599 263.066 158.523 263.472 158.373C263.882 158.223 264.213 158.011 264.463 157.737C264.718 157.459 264.903 157.129 265.017 156.746C265.135 156.359 265.195 155.93 265.195 155.461V153.656C265.195 153.273 265.156 152.938 265.079 152.651C265.001 152.36 264.892 152.116 264.75 151.92C264.614 151.724 264.452 151.578 264.265 151.482C264.078 151.382 263.878 151.332 263.663 151.332C263.426 151.332 263.217 151.387 263.035 151.496C262.852 151.605 262.697 151.756 262.57 151.947C262.447 152.134 262.351 152.351 262.283 152.597C262.219 152.843 262.187 153.103 262.187 153.376C262.187 153.64 262.217 153.893 262.276 154.135C262.34 154.376 262.433 154.59 262.556 154.777C262.684 154.964 262.843 155.112 263.035 155.222C263.226 155.326 263.449 155.379 263.704 155.379C263.946 155.379 264.165 155.333 264.361 155.242C264.561 155.146 264.734 155.021 264.88 154.866C265.026 154.707 265.138 154.531 265.215 154.34C265.297 154.144 265.343 153.946 265.352 153.745L265.988 154.019C265.988 154.351 265.917 154.679 265.776 155.003C265.639 155.326 265.445 155.62 265.195 155.885C264.949 156.145 264.662 156.354 264.333 156.514C264.005 156.669 263.652 156.746 263.274 156.746C262.804 156.746 262.39 156.66 262.03 156.486C261.67 156.313 261.367 156.074 261.121 155.769C260.879 155.459 260.697 155.103 260.574 154.702C260.451 154.297 260.389 153.864 260.389 153.403C260.389 152.925 260.464 152.476 260.615 152.057C260.765 151.633 260.982 151.261 261.264 150.942C261.551 150.619 261.898 150.366 262.303 150.184C262.709 149.997 263.164 149.903 263.67 149.903C264.194 149.903 264.662 150.006 265.072 150.211C265.482 150.416 265.83 150.701 266.118 151.065C266.405 151.425 266.623 151.852 266.774 152.344C266.929 152.836 267.006 153.374 267.006 153.957V154.593C267.006 155.208 266.945 155.791 266.822 156.343C266.699 156.894 266.51 157.398 266.254 157.854C265.999 158.309 265.673 158.703 265.277 159.036C264.885 159.369 264.415 159.626 263.869 159.809C263.326 159.986 262.706 160.075 262.009 160.075H261.852V158.599ZM273.165 150.047L269.405 160.854H268.031L271.791 150.047H273.165ZM281.162 158.578V160H274.422V158.783L277.655 155.29C277.992 154.907 278.259 154.575 278.455 154.292C278.651 154.009 278.79 153.754 278.872 153.526C278.958 153.294 279.002 153.073 279.002 152.863C279.002 152.558 278.947 152.291 278.838 152.063C278.728 151.831 278.569 151.651 278.359 151.523C278.154 151.396 277.901 151.332 277.6 151.332C277.268 151.332 276.983 151.41 276.746 151.564C276.513 151.715 276.336 151.924 276.213 152.193C276.094 152.462 276.035 152.77 276.035 153.116H274.223C274.223 152.528 274.36 151.993 274.634 151.51C274.907 151.022 275.299 150.632 275.809 150.341C276.32 150.049 276.926 149.903 277.628 149.903C278.311 149.903 278.89 150.017 279.364 150.245C279.838 150.468 280.198 150.787 280.444 151.202C280.69 151.617 280.813 152.111 280.813 152.686C280.813 153.005 280.761 153.319 280.656 153.629C280.551 153.939 280.403 154.246 280.212 154.552C280.025 154.853 279.802 155.158 279.542 155.468C279.282 155.778 278.993 156.094 278.674 156.418L276.732 158.578H281.162ZM284.695 154.224H285.714C286.074 154.224 286.37 154.162 286.603 154.039C286.84 153.911 287.015 153.738 287.129 153.52C287.247 153.296 287.307 153.039 287.307 152.747C287.307 152.46 287.254 152.212 287.149 152.002C287.045 151.788 286.885 151.624 286.671 151.51C286.461 151.391 286.192 151.332 285.864 151.332C285.6 151.332 285.356 151.384 285.133 151.489C284.914 151.594 284.739 151.744 284.606 151.94C284.479 152.132 284.415 152.362 284.415 152.631H282.604C282.604 152.093 282.745 151.621 283.027 151.216C283.314 150.806 283.702 150.484 284.189 150.252C284.677 150.02 285.222 149.903 285.823 149.903C286.479 149.903 287.054 150.013 287.546 150.231C288.043 150.446 288.428 150.762 288.701 151.182C288.979 151.601 289.118 152.12 289.118 152.74C289.118 153.036 289.048 153.333 288.906 153.629C288.77 153.921 288.567 154.185 288.298 154.422C288.034 154.654 287.708 154.843 287.32 154.989C286.938 155.131 286.498 155.201 286.001 155.201H284.695V154.224ZM284.695 155.618V154.654H286.001C286.562 154.654 287.047 154.72 287.457 154.853C287.872 154.98 288.214 155.162 288.482 155.399C288.751 155.632 288.95 155.903 289.077 156.213C289.209 156.523 289.275 156.855 289.275 157.211C289.275 157.676 289.189 158.09 289.016 158.455C288.842 158.815 288.599 159.12 288.284 159.371C287.974 159.622 287.61 159.813 287.19 159.945C286.771 160.073 286.318 160.137 285.83 160.137C285.406 160.137 284.994 160.08 284.593 159.966C284.196 159.847 283.839 159.672 283.52 159.439C283.201 159.202 282.948 158.906 282.761 158.551C282.574 158.191 282.48 157.774 282.48 157.3H284.292C284.292 157.573 284.358 157.817 284.49 158.031C284.627 158.245 284.814 158.414 285.051 158.537C285.292 158.656 285.563 158.715 285.864 158.715C286.197 158.715 286.482 158.656 286.719 158.537C286.96 158.414 287.145 158.241 287.272 158.018C287.4 157.79 287.464 157.519 287.464 157.204C287.464 156.83 287.393 156.527 287.252 156.295C287.111 156.062 286.908 155.892 286.644 155.782C286.384 155.673 286.074 155.618 285.714 155.618H284.695Z" fill="white"/>
<circle opacity="0.5" cx="50" cy="37" r="13" fill="white"/>
<circle opacity="0.8" cx="33" cy="37" r="13" fill="white"/>
<path d="M20.9844 97.5938L22.6953 95.4609L20.2109 94.7578L20.6797 93.3828L23.1172 94.3516L22.9688 91.625H24.4844L24.3203 94.4062L26.7109 93.4453L27.1719 94.8438L24.6484 95.5469L26.3047 97.6328L25.0781 98.4922L23.6406 96.2109L22.2109 98.4219L20.9844 97.5938ZM28.55 97.5938L30.2609 95.4609L27.7766 94.7578L28.2453 93.3828L30.6828 94.3516L30.5344 91.625H32.05L31.8859 94.4062L34.2766 93.4453L34.7375 94.8438L32.2141 95.5469L33.8703 97.6328L32.6438 98.4922L31.2063 96.2109L29.7766 98.4219L28.55 97.5938ZM36.1156 97.5938L37.8266 95.4609L35.3422 94.7578L35.8109 93.3828L38.2484 94.3516L38.1 91.625H39.6156L39.4516 94.4062L41.8422 93.4453L42.3031 94.8438L39.7797 95.5469L41.4359 97.6328L40.2094 98.4922L38.7719 96.2109L37.3422 98.4219L36.1156 97.5938ZM43.6812 97.5938L45.3922 95.4609L42.9078 94.7578L43.3766 93.3828L45.8141 94.3516L45.6656 91.625H47.1812L47.0172 94.4062L49.4078 93.4453L49.8687 94.8438L47.3453 95.5469L49.0016 97.6328L47.775 98.4922L46.3375 96.2109L44.9078 98.4219L43.6812 97.5938ZM64.1 97.5938L65.8109 95.4609L63.3266 94.7578L63.7953 93.3828L66.2328 94.3516L66.0844 91.625H67.6L67.4359 94.4062L69.8266 93.4453L70.2875 94.8438L67.7641 95.5469L69.4203 97.6328L68.1937 98.4922L66.7562 96.2109L65.3266 98.4219L64.1 97.5938ZM71.6656 97.5938L73.3766 95.4609L70.8922 94.7578L71.3609 93.3828L73.7984 94.3516L73.65 91.625H75.1656L75.0016 94.4062L77.3922 93.4453L77.8531 94.8438L75.3297 95.5469L76.9859 97.6328L75.7594 98.4922L74.3219 96.2109L72.8922 98.4219L71.6656 97.5938ZM79.2313 97.5938L80.9422 95.4609L78.4578 94.7578L78.9266 93.3828L81.3641 94.3516L81.2156 91.625H82.7313L82.5672 94.4062L84.9578 93.4453L85.4188 94.8438L82.8953 95.5469L84.5516 97.6328L83.325 98.4922L81.8875 96.2109L80.4578 98.4219L79.2313 97.5938ZM86.7969 97.5938L88.5078 95.4609L86.0234 94.7578L86.4922 93.3828L88.9297 94.3516L88.7812 91.625H90.2969L90.1328 94.4062L92.5234 93.4453L92.9844 94.8438L90.4609 95.5469L92.1172 97.6328L90.8906 98.4922L89.4531 96.2109L88.0234 98.4219L86.7969 97.5938ZM107.216 97.5938L108.927 95.4609L106.442 94.7578L106.911 93.3828L109.348 94.3516L109.2 91.625H110.716L110.552 94.4062L112.942 93.4453L113.403 94.8438L110.88 95.5469L112.536 97.6328L111.309 98.4922L109.872 96.2109L108.442 98.4219L107.216 97.5938ZM114.781 97.5938L116.492 95.4609L114.008 94.7578L114.477 93.3828L116.914 94.3516L116.766 91.625H118.281L118.117 94.4062L120.508 93.4453L120.969 94.8438L118.445 95.5469L120.102 97.6328L118.875 98.4922L117.438 96.2109L116.008 98.4219L114.781 97.5938ZM122.347 97.5938L124.058 95.4609L121.573 94.7578L122.042 93.3828L124.48 94.3516L124.331 91.625H125.847L125.683 94.4062L128.073 93.4453L128.534 94.8438L126.011 95.5469L127.667 97.6328L126.441 98.4922L125.003 96.2109L123.573 98.4219L122.347 97.5938ZM129.912 97.5938L131.623 95.4609L129.139 94.7578L129.608 93.3828L132.045 94.3516L131.897 91.625H133.412L133.248 94.4062L135.639 93.4453L136.1 94.8438L133.577 95.5469L135.233 97.6328L134.006 98.4922L132.569 96.2109L131.139 98.4219L129.912 97.5938ZM155.613 91.6016V103H153.363V94.1953L150.659 95.0547V93.2812L155.37 91.6016H155.613ZM161.209 101.289H161.358C161.983 101.289 162.519 101.214 162.967 101.062C163.42 100.906 163.793 100.682 164.084 100.391C164.376 100.099 164.592 99.7422 164.733 99.3203C164.873 98.8932 164.944 98.4089 164.944 97.8672V95.7109C164.944 95.2995 164.902 94.9375 164.819 94.625C164.741 94.3125 164.626 94.0547 164.475 93.8516C164.329 93.6432 164.157 93.487 163.959 93.3828C163.767 93.2786 163.553 93.2266 163.319 93.2266C163.069 93.2266 162.847 93.2891 162.655 93.4141C162.462 93.5339 162.298 93.6979 162.163 93.9062C162.032 94.1146 161.931 94.3542 161.858 94.625C161.79 94.8906 161.756 95.1693 161.756 95.4609C161.756 95.7526 161.79 96.0312 161.858 96.2969C161.926 96.5573 162.027 96.7891 162.163 96.9922C162.298 97.1901 162.467 97.349 162.67 97.4688C162.873 97.5833 163.113 97.6406 163.389 97.6406C163.655 97.6406 163.892 97.5911 164.1 97.4922C164.314 97.388 164.493 97.2526 164.639 97.0859C164.79 96.9193 164.905 96.7344 164.983 96.5312C165.066 96.3281 165.108 96.1224 165.108 95.9141L165.85 96.3203C165.85 96.6849 165.772 97.0443 165.616 97.3984C165.459 97.7526 165.241 98.0755 164.959 98.3672C164.683 98.6536 164.363 98.8828 163.998 99.0547C163.634 99.2266 163.243 99.3125 162.827 99.3125C162.295 99.3125 161.824 99.2161 161.413 99.0234C161.001 98.8255 160.652 98.5547 160.366 98.2109C160.084 97.862 159.871 97.4557 159.725 96.9922C159.579 96.5286 159.506 96.026 159.506 95.4844C159.506 94.9323 159.595 94.4141 159.772 93.9297C159.954 93.4453 160.212 93.0182 160.545 92.6484C160.884 92.2786 161.288 91.9896 161.756 91.7812C162.23 91.5677 162.756 91.4609 163.334 91.4609C163.913 91.4609 164.439 91.5729 164.913 91.7969C165.386 92.0208 165.793 92.3385 166.131 92.75C166.47 93.1562 166.73 93.6432 166.913 94.2109C167.1 94.7786 167.194 95.4089 167.194 96.1016V96.8828C167.194 97.6224 167.113 98.3099 166.952 98.9453C166.795 99.5807 166.558 100.156 166.241 100.672C165.928 101.182 165.538 101.62 165.069 101.984C164.605 102.349 164.066 102.628 163.452 102.82C162.837 103.013 162.149 103.109 161.389 103.109H161.209V101.289ZM170.697 101.289H170.845C171.47 101.289 172.007 101.214 172.455 101.062C172.908 100.906 173.28 100.682 173.572 100.391C173.864 100.099 174.08 99.7422 174.22 99.3203C174.361 98.8932 174.431 98.4089 174.431 97.8672V95.7109C174.431 95.2995 174.39 94.9375 174.306 94.625C174.228 94.3125 174.114 94.0547 173.962 93.8516C173.817 93.6432 173.645 93.487 173.447 93.3828C173.254 93.2786 173.041 93.2266 172.806 93.2266C172.556 93.2266 172.335 93.2891 172.142 93.4141C171.949 93.5339 171.785 93.6979 171.65 93.9062C171.52 94.1146 171.418 94.3542 171.345 94.625C171.278 94.8906 171.244 95.1693 171.244 95.4609C171.244 95.7526 171.278 96.0312 171.345 96.2969C171.413 96.5573 171.515 96.7891 171.65 96.9922C171.785 97.1901 171.955 97.349 172.158 97.4688C172.361 97.5833 172.601 97.6406 172.877 97.6406C173.142 97.6406 173.379 97.5911 173.587 97.4922C173.801 97.388 173.981 97.2526 174.127 97.0859C174.278 96.9193 174.392 96.7344 174.47 96.5312C174.554 96.3281 174.595 96.1224 174.595 95.9141L175.337 96.3203C175.337 96.6849 175.259 97.0443 175.103 97.3984C174.947 97.7526 174.728 98.0755 174.447 98.3672C174.171 98.6536 173.851 98.8828 173.486 99.0547C173.121 99.2266 172.731 99.3125 172.314 99.3125C171.783 99.3125 171.311 99.2161 170.9 99.0234C170.489 98.8255 170.14 98.5547 169.853 98.2109C169.572 97.862 169.358 97.4557 169.212 96.9922C169.067 96.5286 168.994 96.026 168.994 95.4844C168.994 94.9323 169.082 94.4141 169.259 93.9297C169.442 93.4453 169.699 93.0182 170.033 92.6484C170.371 92.2786 170.775 91.9896 171.244 91.7812C171.718 91.5677 172.244 91.4609 172.822 91.4609C173.4 91.4609 173.926 91.5729 174.4 91.7969C174.874 92.0208 175.28 92.3385 175.619 92.75C175.957 93.1562 176.218 93.6432 176.4 94.2109C176.587 94.7786 176.681 95.4089 176.681 96.1016V96.8828C176.681 97.6224 176.601 98.3099 176.439 98.9453C176.283 99.5807 176.046 100.156 175.728 100.672C175.416 101.182 175.025 101.62 174.556 101.984C174.093 102.349 173.554 102.628 172.939 102.82C172.324 103.013 171.637 103.109 170.877 103.109H170.697V101.289ZM186.247 96.3125V98.2812C186.247 99.1354 186.156 99.8724 185.973 100.492C185.791 101.107 185.528 101.612 185.184 102.008C184.846 102.398 184.442 102.688 183.973 102.875C183.505 103.062 182.984 103.156 182.411 103.156C181.953 103.156 181.526 103.099 181.13 102.984C180.734 102.865 180.377 102.68 180.059 102.43C179.747 102.18 179.476 101.865 179.247 101.484C179.023 101.099 178.851 100.641 178.731 100.109C178.611 99.5781 178.552 98.9688 178.552 98.2812V96.3125C178.552 95.4583 178.643 94.7266 178.825 94.1172C179.012 93.5026 179.276 93 179.614 92.6094C179.958 92.2188 180.364 91.9323 180.833 91.75C181.302 91.5625 181.822 91.4688 182.395 91.4688C182.854 91.4688 183.278 91.5286 183.669 91.6484C184.065 91.763 184.421 91.9427 184.739 92.1875C185.057 92.4323 185.328 92.7474 185.552 93.1328C185.776 93.513 185.947 93.9688 186.067 94.5C186.187 95.026 186.247 95.6302 186.247 96.3125ZM183.989 98.5781V96.0078C183.989 95.5964 183.966 95.237 183.919 94.9297C183.877 94.6224 183.812 94.362 183.723 94.1484C183.635 93.9297 183.526 93.7526 183.395 93.6172C183.265 93.4818 183.117 93.3828 182.95 93.3203C182.783 93.2578 182.598 93.2266 182.395 93.2266C182.14 93.2266 181.914 93.276 181.716 93.375C181.523 93.474 181.359 93.6328 181.223 93.8516C181.088 94.0651 180.984 94.3516 180.911 94.7109C180.843 95.0651 180.809 95.4974 180.809 96.0078V98.5781C180.809 98.9896 180.83 99.3516 180.872 99.6641C180.919 99.9766 180.986 100.245 181.075 100.469C181.169 100.688 181.278 100.867 181.403 101.008C181.533 101.143 181.682 101.242 181.848 101.305C182.02 101.367 182.208 101.398 182.411 101.398C182.661 101.398 182.882 101.349 183.075 101.25C183.273 101.146 183.44 100.984 183.575 100.766C183.716 100.542 183.82 100.25 183.887 99.8906C183.955 99.5312 183.989 99.0938 183.989 98.5781Z" fill="white"/>
<rect x="258.25" y="25.25" width="31.5" height="23.881" rx="3.75" fill="url(#paint0_linear_2_4073)" stroke="#9F7E3B" stroke-width="0.5"/>
<path d="M258.5 32.5H267C268.105 32.5 269 33.3954 269 34.5V38.375M269 48.9V44.25M269 44.25V38.375M269 44.25H258.5M269 38.375H258.5" stroke="black" stroke-opacity="0.76" stroke-width="0.5"/>
<path d="M289.5 32.5H279.5M279.5 32.5V38.375M279.5 32.5V25.5M279.5 48.9V44.25M279.5 44.25V38.375M279.5 44.25H289.5M279.5 38.375H289.5" stroke="black" stroke-opacity="0.76" stroke-width="0.5"/>
<path d="M28.2148 137.23V140.688H26.3867V137.23H28.2148ZM27.9922 156.367V159.52H26.1641V156.367H27.9922ZM29.2812 152.523C29.2812 152.078 29.1992 151.699 29.0352 151.387C28.8789 151.074 28.6211 150.797 28.2617 150.555C27.9102 150.312 27.4336 150.078 26.832 149.852C25.8164 149.461 24.9219 149.047 24.1484 148.609C23.3828 148.164 22.7852 147.613 22.3555 146.957C21.9258 146.293 21.7109 145.453 21.7109 144.438C21.7109 143.469 21.9414 142.629 22.4023 141.918C22.8633 141.207 23.5 140.66 24.3125 140.277C25.1328 139.887 26.0859 139.691 27.1719 139.691C28 139.691 28.75 139.816 29.4219 140.066C30.0938 140.309 30.6719 140.668 31.1562 141.145C31.6406 141.613 32.0117 142.188 32.2695 142.867C32.5273 143.547 32.6562 144.324 32.6562 145.199H29.293C29.293 144.73 29.2422 144.316 29.1406 143.957C29.0391 143.598 28.8906 143.297 28.6953 143.055C28.5078 142.812 28.2812 142.633 28.0156 142.516C27.75 142.391 27.457 142.328 27.1367 142.328C26.6602 142.328 26.2695 142.422 25.9648 142.609C25.6602 142.797 25.4375 143.051 25.2969 143.371C25.1641 143.684 25.0977 144.043 25.0977 144.449C25.0977 144.848 25.168 145.195 25.3086 145.492C25.457 145.789 25.7109 146.062 26.0703 146.312C26.4297 146.555 26.9219 146.805 27.5469 147.062C28.5625 147.453 29.4531 147.875 30.2188 148.328C30.9844 148.781 31.582 149.336 32.0117 149.992C32.4414 150.648 32.6562 151.484 32.6562 152.5C32.6562 153.508 32.4219 154.367 31.9531 155.078C31.4844 155.781 30.8281 156.32 29.9844 156.695C29.1406 157.062 28.1641 157.246 27.0547 157.246C26.3359 157.246 25.6211 157.152 24.9102 156.965C24.1992 156.77 23.5547 156.457 22.9766 156.027C22.3984 155.598 21.9375 155.027 21.5938 154.316C21.25 153.598 21.0781 152.715 21.0781 151.668H24.4531C24.4531 152.238 24.5273 152.715 24.6758 153.098C24.8242 153.473 25.0195 153.773 25.2617 154C25.5117 154.219 25.793 154.375 26.1055 154.469C26.418 154.562 26.7344 154.609 27.0547 154.609C27.5547 154.609 27.9648 154.52 28.2852 154.34C28.6133 154.16 28.8594 153.914 29.0234 153.602C29.1953 153.281 29.2812 152.922 29.2812 152.523ZM42.9797 139.902V157H39.6047V143.793L35.55 145.082V142.422L42.6164 139.902H42.9797ZM59.8188 146.969V149.922C59.8188 151.203 59.682 152.309 59.4086 153.238C59.1352 154.16 58.7406 154.918 58.225 155.512C57.7172 156.098 57.1117 156.531 56.4086 156.812C55.7055 157.094 54.9242 157.234 54.0648 157.234C53.3773 157.234 52.7367 157.148 52.143 156.977C51.5492 156.797 51.0141 156.52 50.5375 156.145C50.0688 155.77 49.6625 155.297 49.3188 154.727C48.9828 154.148 48.725 153.461 48.5453 152.664C48.3656 151.867 48.2758 150.953 48.2758 149.922V146.969C48.2758 145.688 48.4125 144.59 48.6859 143.676C48.9672 142.754 49.3617 142 49.8695 141.414C50.3852 140.828 50.9945 140.398 51.6977 140.125C52.4008 139.844 53.182 139.703 54.0414 139.703C54.7289 139.703 55.3656 139.793 55.9516 139.973C56.5453 140.145 57.0805 140.414 57.557 140.781C58.0336 141.148 58.4398 141.621 58.7758 142.199C59.1117 142.77 59.3695 143.453 59.5492 144.25C59.7289 145.039 59.8188 145.945 59.8188 146.969ZM56.432 150.367V146.512C56.432 145.895 56.3969 145.355 56.3266 144.895C56.2641 144.434 56.1664 144.043 56.0336 143.723C55.9008 143.395 55.7367 143.129 55.5414 142.926C55.3461 142.723 55.1234 142.574 54.8734 142.48C54.6234 142.387 54.3461 142.34 54.0414 142.34C53.6586 142.34 53.3188 142.414 53.0219 142.562C52.7328 142.711 52.4867 142.949 52.2836 143.277C52.0805 143.598 51.9242 144.027 51.8148 144.566C51.7133 145.098 51.6625 145.746 51.6625 146.512V150.367C51.6625 150.984 51.6938 151.527 51.7563 151.996C51.8266 152.465 51.9281 152.867 52.0609 153.203C52.2016 153.531 52.3656 153.801 52.5531 154.012C52.7484 154.215 52.9711 154.363 53.2211 154.457C53.4789 154.551 53.7602 154.598 54.0648 154.598C54.4398 154.598 54.7719 154.523 55.0609 154.375C55.3578 154.219 55.6078 153.977 55.8109 153.648C56.0219 153.312 56.1781 152.875 56.2797 152.336C56.3813 151.797 56.432 151.141 56.432 150.367ZM65.2555 154.152L65.2438 156.414C65.2438 157.281 65.025 158.156 64.5875 159.039C64.1578 159.922 63.6109 160.645 62.9469 161.207L61.1891 160.305C61.3844 159.945 61.5758 159.586 61.7633 159.227C61.9508 158.867 62.107 158.473 62.232 158.043C62.357 157.613 62.4195 157.125 62.4195 156.578V154.152H65.2555ZM79.2938 154.363V157H67.6219V154.75L73.1414 148.832C73.6961 148.215 74.1336 147.672 74.4539 147.203C74.7742 146.727 75.0047 146.301 75.1453 145.926C75.2938 145.543 75.368 145.18 75.368 144.836C75.368 144.32 75.282 143.879 75.1102 143.512C74.9383 143.137 74.6844 142.848 74.3484 142.645C74.0203 142.441 73.6141 142.34 73.1297 142.34C72.6141 142.34 72.1688 142.465 71.7938 142.715C71.4266 142.965 71.1453 143.312 70.95 143.758C70.7625 144.203 70.6688 144.707 70.6688 145.27H67.282C67.282 144.254 67.5242 143.324 68.0086 142.48C68.493 141.629 69.1766 140.953 70.0594 140.453C70.9422 139.945 71.9891 139.691 73.2 139.691C74.3953 139.691 75.4031 139.887 76.2234 140.277C77.0516 140.66 77.6766 141.215 78.0984 141.941C78.5281 142.66 78.743 143.52 78.743 144.52C78.743 145.082 78.6531 145.633 78.4734 146.172C78.2938 146.703 78.0359 147.234 77.7 147.766C77.3719 148.289 76.9734 148.82 76.5047 149.359C76.0359 149.898 75.5164 150.457 74.9461 151.035L71.9813 154.363H79.2938ZM84.3789 149.23L81.6836 148.586L82.6562 139.938H92.2422V142.668H85.4336L85.0117 146.453C85.2383 146.32 85.582 146.18 86.043 146.031C86.5039 145.875 87.0195 145.797 87.5898 145.797C88.418 145.797 89.1523 145.926 89.793 146.184C90.4336 146.441 90.9766 146.816 91.4219 147.309C91.875 147.801 92.2188 148.402 92.4531 149.113C92.6875 149.824 92.8047 150.629 92.8047 151.527C92.8047 152.285 92.6875 153.008 92.4531 153.695C92.2188 154.375 91.8633 154.984 91.3867 155.523C90.9102 156.055 90.3125 156.473 89.5938 156.777C88.875 157.082 88.0234 157.234 87.0391 157.234C86.3047 157.234 85.5938 157.125 84.9062 156.906C84.2266 156.688 83.6133 156.363 83.0664 155.934C82.5273 155.504 82.0938 154.984 81.7656 154.375C81.4453 153.758 81.2773 153.055 81.2617 152.266H84.6133C84.6602 152.75 84.7852 153.168 84.9883 153.52C85.1992 153.863 85.4766 154.129 85.8203 154.316C86.1641 154.504 86.5664 154.598 87.0273 154.598C87.457 154.598 87.8242 154.516 88.1289 154.352C88.4336 154.188 88.6797 153.961 88.8672 153.672C89.0547 153.375 89.1914 153.031 89.2773 152.641C89.3711 152.242 89.418 151.812 89.418 151.352C89.418 150.891 89.3633 150.473 89.2539 150.098C89.1445 149.723 88.9766 149.398 88.75 149.125C88.5234 148.852 88.2344 148.641 87.8828 148.492C87.5391 148.344 87.1367 148.27 86.6758 148.27C86.0508 148.27 85.5664 148.367 85.2227 148.562C84.8867 148.758 84.6055 148.98 84.3789 149.23ZM106.269 146.969V149.922C106.269 151.203 106.132 152.309 105.859 153.238C105.585 154.16 105.191 154.918 104.675 155.512C104.167 156.098 103.562 156.531 102.859 156.812C102.155 157.094 101.374 157.234 100.515 157.234C99.8273 157.234 99.1867 157.148 98.593 156.977C97.9992 156.797 97.4641 156.52 96.9875 156.145C96.5188 155.77 96.1125 155.297 95.7688 154.727C95.4328 154.148 95.175 153.461 94.9953 152.664C94.8156 151.867 94.7258 150.953 94.7258 149.922V146.969C94.7258 145.688 94.8625 144.59 95.1359 143.676C95.4172 142.754 95.8117 142 96.3195 141.414C96.8352 140.828 97.4445 140.398 98.1477 140.125C98.8508 139.844 99.632 139.703 100.491 139.703C101.179 139.703 101.816 139.793 102.402 139.973C102.995 140.145 103.53 140.414 104.007 140.781C104.484 141.148 104.89 141.621 105.226 142.199C105.562 142.77 105.82 143.453 105.999 144.25C106.179 145.039 106.269 145.945 106.269 146.969ZM102.882 150.367V146.512C102.882 145.895 102.847 145.355 102.777 144.895C102.714 144.434 102.616 144.043 102.484 143.723C102.351 143.395 102.187 143.129 101.991 142.926C101.796 142.723 101.573 142.574 101.323 142.48C101.073 142.387 100.796 142.34 100.491 142.34C100.109 142.34 99.7688 142.414 99.4719 142.562C99.1828 142.711 98.9367 142.949 98.7336 143.277C98.5305 143.598 98.3742 144.027 98.2648 144.566C98.1633 145.098 98.1125 145.746 98.1125 146.512V150.367C98.1125 150.984 98.1438 151.527 98.2063 151.996C98.2766 152.465 98.3781 152.867 98.5109 153.203C98.6516 153.531 98.8156 153.801 99.0031 154.012C99.1984 154.215 99.4211 154.363 99.6711 154.457C99.9289 154.551 100.21 154.598 100.515 154.598C100.89 154.598 101.222 154.523 101.511 154.375C101.808 154.219 102.058 153.977 102.261 153.648C102.472 153.312 102.628 152.875 102.73 152.336C102.831 151.797 102.882 151.141 102.882 150.367ZM108.67 155.371C108.67 154.871 108.842 154.453 109.186 154.117C109.537 153.781 110.002 153.613 110.58 153.613C111.159 153.613 111.62 153.781 111.963 154.117C112.315 154.453 112.491 154.871 112.491 155.371C112.491 155.871 112.315 156.289 111.963 156.625C111.62 156.961 111.159 157.129 110.58 157.129C110.002 157.129 109.537 156.961 109.186 156.625C108.842 156.289 108.67 155.871 108.67 155.371ZM126.611 146.969V149.922C126.611 151.203 126.474 152.309 126.201 153.238C125.927 154.16 125.533 154.918 125.017 155.512C124.509 156.098 123.904 156.531 123.201 156.812C122.498 157.094 121.716 157.234 120.857 157.234C120.17 157.234 119.529 157.148 118.935 156.977C118.341 156.797 117.806 156.52 117.33 156.145C116.861 155.77 116.455 155.297 116.111 154.727C115.775 154.148 115.517 153.461 115.338 152.664C115.158 151.867 115.068 150.953 115.068 149.922V146.969C115.068 145.688 115.205 144.59 115.478 143.676C115.759 142.754 116.154 142 116.662 141.414C117.177 140.828 117.787 140.398 118.49 140.125C119.193 139.844 119.974 139.703 120.834 139.703C121.521 139.703 122.158 139.793 122.744 139.973C123.338 140.145 123.873 140.414 124.349 140.781C124.826 141.148 125.232 141.621 125.568 142.199C125.904 142.77 126.162 143.453 126.341 144.25C126.521 145.039 126.611 145.945 126.611 146.969ZM123.224 150.367V146.512C123.224 145.895 123.189 145.355 123.119 144.895C123.056 144.434 122.959 144.043 122.826 143.723C122.693 143.395 122.529 143.129 122.334 142.926C122.138 142.723 121.916 142.574 121.666 142.48C121.416 142.387 121.138 142.34 120.834 142.34C120.451 142.34 120.111 142.414 119.814 142.562C119.525 142.711 119.279 142.949 119.076 143.277C118.873 143.598 118.716 144.027 118.607 144.566C118.505 145.098 118.455 145.746 118.455 146.512V150.367C118.455 150.984 118.486 151.527 118.548 151.996C118.619 152.465 118.72 152.867 118.853 153.203C118.994 153.531 119.158 153.801 119.345 154.012C119.541 154.215 119.763 154.363 120.013 154.457C120.271 154.551 120.552 154.598 120.857 154.598C121.232 154.598 121.564 154.523 121.853 154.375C122.15 154.219 122.4 153.977 122.603 153.648C122.814 153.312 122.97 152.875 123.072 152.336C123.173 151.797 123.224 151.141 123.224 150.367ZM140.192 146.969V149.922C140.192 151.203 140.055 152.309 139.782 153.238C139.509 154.16 139.114 154.918 138.598 155.512C138.091 156.098 137.485 156.531 136.782 156.812C136.079 157.094 135.298 157.234 134.438 157.234C133.751 157.234 133.11 157.148 132.516 156.977C131.923 156.797 131.387 156.52 130.911 156.145C130.442 155.77 130.036 155.297 129.692 154.727C129.356 154.148 129.098 153.461 128.919 152.664C128.739 151.867 128.649 150.953 128.649 149.922V146.969C128.649 145.688 128.786 144.59 129.059 143.676C129.341 142.754 129.735 142 130.243 141.414C130.759 140.828 131.368 140.398 132.071 140.125C132.774 139.844 133.555 139.703 134.415 139.703C135.102 139.703 135.739 139.793 136.325 139.973C136.919 140.145 137.454 140.414 137.93 140.781C138.407 141.148 138.813 141.621 139.149 142.199C139.485 142.77 139.743 143.453 139.923 144.25C140.102 145.039 140.192 145.945 140.192 146.969ZM136.805 150.367V146.512C136.805 145.895 136.77 145.355 136.7 144.895C136.637 144.434 136.54 144.043 136.407 143.723C136.274 143.395 136.11 143.129 135.915 142.926C135.72 142.723 135.497 142.574 135.247 142.48C134.997 142.387 134.72 142.34 134.415 142.34C134.032 142.34 133.692 142.414 133.395 142.562C133.106 142.711 132.86 142.949 132.657 143.277C132.454 143.598 132.298 144.027 132.188 144.566C132.087 145.098 132.036 145.746 132.036 146.512V150.367C132.036 150.984 132.067 151.527 132.13 151.996C132.2 152.465 132.302 152.867 132.434 153.203C132.575 153.531 132.739 153.801 132.927 154.012C133.122 154.215 133.345 154.363 133.595 154.457C133.852 154.551 134.134 154.598 134.438 154.598C134.813 154.598 135.145 154.523 135.434 154.375C135.731 154.219 135.981 153.977 136.184 153.648C136.395 153.312 136.552 152.875 136.653 152.336C136.755 151.797 136.805 151.141 136.805 150.367Z" fill="white"/>
<defs>
<linearGradient id="paint0_linear_2_4073" x1="258" y1="25" x2="290" y2="49.5" gradientUnits="userSpaceOnUse">
<stop stop-color="#E6AC3C"/>
<stop offset="1" stop-color="#FFDA93"/>
</linearGradient>
</defs>
</svg>
