<svg width="310" height="190" viewBox="0 0 310 190" fill="none" xmlns="http://www.w3.org/2000/svg">
<rect width="310" height="190" rx="16" fill="#1D3A70"/>
<mask id="mask0_6_3703" style="mask-type:alpha" maskUnits="userSpaceOnUse" x="0" y="0" width="310" height="190">
<rect width="310" height="190" rx="16" fill="#1DAB87"/>
</mask>
<g mask="url(#mask0_6_3703)">
<path d="M46.189 -20C25.5764 2.22301 -14.8864 54.3126 -11.8369 84.8869C-8.02495 123.105 40.7333 114.474 47.883 112.064C52.8968 110.374 106.332 83.613 116.074 56.0112C125.816 28.4094 96.1418 30.9422 93.2024 31.8065C80.4926 35.5437 61.0129 43.6965 42.3769 79.7912C23.7409 115.886 20.776 142.638 34.3295 155.378C45.1723 165.569 70.2495 164.654 93.4667 162.918C133.837 159.9 166.307 134.315 187.653 119.708C209 105.1 289.446 47.6599 327 20.7658" stroke="#1DAB87" stroke-width="0.5" stroke-linecap="round"/>
<rect x="20.25" y="24.25" width="31.5" height="23.881" rx="3.75" fill="white" stroke="#1D3A70" stroke-width="0.5"/>
<path d="M20.5 31.5H29C30.1046 31.5 31 32.3954 31 33.5V37.375M31 47.9V43.25M31 43.25V37.375M31 43.25H20.5M31 37.375H20.5" stroke="#1D3A70" stroke-width="0.5"/>
<path d="M51.5 31.5H41.5M41.5 31.5V37.375M41.5 31.5V24.5M41.5 47.9V43.25M41.5 43.25V37.375M41.5 43.25H51.5M41.5 37.375H51.5" stroke="#1D3A70" stroke-width="0.5"/>
<path d="M76.16 28.9099C79.48 33.2099 79.48 38.7999 76.16 43.0999" stroke="white" stroke-width="1.5" stroke-linecap="round" stroke-linejoin="round"/>
<path d="M79.64 26C84.32 32.06 84.32 39.94 79.64 46" stroke="white" stroke-width="1.5" stroke-linecap="round" stroke-linejoin="round"/>
<path d="M72.51 30.79C74.95 33.94 74.95 38.05 72.51 41.2" stroke="white" stroke-width="1.5" stroke-linecap="round" stroke-linejoin="round"/>
<path d="M68.8499 33.3999C70.0699 34.9799 70.0699 37.0299 68.8499 38.6099" stroke="white" stroke-width="1.5" stroke-linecap="round" stroke-linejoin="round"/>
<path d="M20.8613 95.2695L22.3584 93.4033L20.1846 92.7881L20.5947 91.585L22.7275 92.4326L22.5977 90.0469H23.9238L23.7803 92.4805L25.8721 91.6396L26.2754 92.8633L24.0674 93.4785L25.5166 95.3037L24.4434 96.0557L23.1855 94.0596L21.9346 95.9941L20.8613 95.2695ZM27.5188 95.2695L29.0158 93.4033L26.842 92.7881L27.2521 91.585L29.385 92.4326L29.2551 90.0469H30.5813L30.4377 92.4805L32.5295 91.6396L32.9328 92.8633L30.7248 93.4785L32.174 95.3037L31.1008 96.0557L29.843 94.0596L28.592 95.9941L27.5188 95.2695ZM34.1762 95.2695L35.6732 93.4033L33.4994 92.7881L33.9096 91.585L36.0424 92.4326L35.9125 90.0469H37.2387L37.0951 92.4805L39.1869 91.6396L39.5902 92.8633L37.3822 93.4785L38.8314 95.3037L37.7582 96.0557L36.5004 94.0596L35.2494 95.9941L34.1762 95.2695ZM40.8336 95.2695L42.3307 93.4033L40.1568 92.7881L40.567 91.585L42.6998 92.4326L42.5699 90.0469H43.8961L43.7525 92.4805L45.8443 91.6396L46.2477 92.8633L44.0396 93.4785L45.4889 95.3037L44.4156 96.0557L43.1578 94.0596L41.9068 95.9941L40.8336 95.2695ZM58.85 95.2695L60.3471 93.4033L58.1732 92.7881L58.5834 91.585L60.7162 92.4326L60.5863 90.0469H61.9125L61.7689 92.4805L63.8607 91.6396L64.2641 92.8633L62.0561 93.4785L63.5053 95.3037L62.432 96.0557L61.1742 94.0596L59.9232 95.9941L58.85 95.2695ZM65.5074 95.2695L67.0045 93.4033L64.8307 92.7881L65.2408 91.585L67.3736 92.4326L67.2438 90.0469H68.5699L68.4264 92.4805L70.5182 91.6396L70.9215 92.8633L68.7135 93.4785L70.1627 95.3037L69.0895 96.0557L67.8316 94.0596L66.5807 95.9941L65.5074 95.2695ZM72.1648 95.2695L73.6619 93.4033L71.4881 92.7881L71.8982 91.585L74.0311 92.4326L73.9012 90.0469H75.2273L75.0838 92.4805L77.1756 91.6396L77.5789 92.8633L75.3709 93.4785L76.8201 95.3037L75.7469 96.0557L74.4891 94.0596L73.2381 95.9941L72.1648 95.2695ZM78.8223 95.2695L80.3193 93.4033L78.1455 92.7881L78.5557 91.585L80.6885 92.4326L80.5586 90.0469H81.8848L81.7412 92.4805L83.833 91.6396L84.2363 92.8633L82.0283 93.4785L83.4775 95.3037L82.4043 96.0557L81.1465 94.0596L79.8955 95.9941L78.8223 95.2695ZM96.8387 95.2695L98.3357 93.4033L96.1619 92.7881L96.5721 91.585L98.7049 92.4326L98.575 90.0469H99.9012L99.7576 92.4805L101.849 91.6396L102.253 92.8633L100.045 93.4785L101.494 95.3037L100.421 96.0557L99.1629 94.0596L97.9119 95.9941L96.8387 95.2695ZM103.496 95.2695L104.993 93.4033L102.819 92.7881L103.229 91.585L105.362 92.4326L105.232 90.0469H106.559L106.415 92.4805L108.507 91.6396L108.91 92.8633L106.702 93.4785L108.151 95.3037L107.078 96.0557L105.82 94.0596L104.569 95.9941L103.496 95.2695ZM110.154 95.2695L111.651 93.4033L109.477 92.7881L109.887 91.585L112.02 92.4326L111.89 90.0469H113.216L113.072 92.4805L115.164 91.6396L115.568 92.8633L113.36 93.4785L114.809 95.3037L113.736 96.0557L112.478 94.0596L111.227 95.9941L110.154 95.2695ZM116.811 95.2695L118.308 93.4033L116.134 92.7881L116.544 91.585L118.677 92.4326L118.547 90.0469H119.873L119.73 92.4805L121.822 91.6396L122.225 92.8633L120.017 93.4785L121.466 95.3037L120.393 96.0557L119.135 94.0596L117.884 95.9941L116.811 95.2695ZM139.448 90.0264V100H137.48V92.2959L135.114 93.0479V91.4961L139.237 90.0264H139.448ZM147.787 90.0264V100H145.819V92.2959L143.454 93.0479V91.4961L147.576 90.0264H147.787ZM158.136 98.4619V100H151.328V98.6875L154.547 95.2354C154.871 94.8753 155.126 94.5586 155.313 94.2852C155.5 94.0072 155.634 93.7588 155.716 93.54C155.803 93.3167 155.846 93.1048 155.846 92.9043C155.846 92.6035 155.796 92.346 155.696 92.1318C155.596 91.9131 155.448 91.7445 155.252 91.626C155.06 91.5075 154.823 91.4482 154.541 91.4482C154.24 91.4482 153.98 91.5212 153.761 91.667C153.547 91.8128 153.383 92.0156 153.269 92.2754C153.16 92.5352 153.105 92.8291 153.105 93.1572H151.129C151.129 92.5648 151.271 92.0225 151.553 91.5303C151.836 91.0335 152.235 90.6393 152.75 90.3477C153.265 90.0514 153.875 89.9033 154.582 89.9033C155.279 89.9033 155.867 90.0173 156.345 90.2451C156.828 90.4684 157.193 90.792 157.439 91.2158C157.69 91.6351 157.815 92.1364 157.815 92.7197C157.815 93.0479 157.763 93.3691 157.658 93.6836C157.553 93.9935 157.403 94.3034 157.207 94.6133C157.015 94.9186 156.783 95.2285 156.509 95.543C156.236 95.8574 155.933 96.1833 155.6 96.5205L153.871 98.4619H158.136ZM164.466 90.0264V100H162.497V92.2959L160.132 93.0479V91.4961L164.254 90.0264H164.466Z" fill="white"/>
</g>
<path d="M0 126H310V166C310 173.455 310 177.183 308.782 180.123C307.158 184.043 304.043 187.158 300.123 188.782C297.183 190 293.455 190 286 190H24C16.5449 190 12.8174 190 9.87706 188.782C5.95662 187.158 2.84183 184.043 1.21793 180.123C0 177.183 0 173.455 0 166V126Z" fill="#1DAB87"/>
<circle opacity="0.5" cx="277" cy="155" r="13" fill="white"/>
<circle opacity="0.8" cx="260" cy="155" r="13" fill="white"/>
<path d="M28.2148 146.23V149.688H26.3867V146.23H28.2148ZM27.9922 165.367V168.52H26.1641V165.367H27.9922ZM29.2812 161.523C29.2812 161.078 29.1992 160.699 29.0352 160.387C28.8789 160.074 28.6211 159.797 28.2617 159.555C27.9102 159.312 27.4336 159.078 26.832 158.852C25.8164 158.461 24.9219 158.047 24.1484 157.609C23.3828 157.164 22.7852 156.613 22.3555 155.957C21.9258 155.293 21.7109 154.453 21.7109 153.438C21.7109 152.469 21.9414 151.629 22.4023 150.918C22.8633 150.207 23.5 149.66 24.3125 149.277C25.1328 148.887 26.0859 148.691 27.1719 148.691C28 148.691 28.75 148.816 29.4219 149.066C30.0938 149.309 30.6719 149.668 31.1562 150.145C31.6406 150.613 32.0117 151.188 32.2695 151.867C32.5273 152.547 32.6562 153.324 32.6562 154.199H29.293C29.293 153.73 29.2422 153.316 29.1406 152.957C29.0391 152.598 28.8906 152.297 28.6953 152.055C28.5078 151.812 28.2812 151.633 28.0156 151.516C27.75 151.391 27.457 151.328 27.1367 151.328C26.6602 151.328 26.2695 151.422 25.9648 151.609C25.6602 151.797 25.4375 152.051 25.2969 152.371C25.1641 152.684 25.0977 153.043 25.0977 153.449C25.0977 153.848 25.168 154.195 25.3086 154.492C25.457 154.789 25.7109 155.062 26.0703 155.312C26.4297 155.555 26.9219 155.805 27.5469 156.062C28.5625 156.453 29.4531 156.875 30.2188 157.328C30.9844 157.781 31.582 158.336 32.0117 158.992C32.4414 159.648 32.6562 160.484 32.6562 161.5C32.6562 162.508 32.4219 163.367 31.9531 164.078C31.4844 164.781 30.8281 165.32 29.9844 165.695C29.1406 166.062 28.1641 166.246 27.0547 166.246C26.3359 166.246 25.6211 166.152 24.9102 165.965C24.1992 165.77 23.5547 165.457 22.9766 165.027C22.3984 164.598 21.9375 164.027 21.5938 163.316C21.25 162.598 21.0781 161.715 21.0781 160.668H24.4531C24.4531 161.238 24.5273 161.715 24.6758 162.098C24.8242 162.473 25.0195 162.773 25.2617 163C25.5117 163.219 25.793 163.375 26.1055 163.469C26.418 163.562 26.7344 163.609 27.0547 163.609C27.5547 163.609 27.9648 163.52 28.2852 163.34C28.6133 163.16 28.8594 162.914 29.0234 162.602C29.1953 162.281 29.2812 161.922 29.2812 161.523ZM42.9797 148.902V166H39.6047V152.793L35.55 154.082V151.422L42.6164 148.902H42.9797ZM51.5102 158.23L48.8148 157.586L49.7875 148.938H59.3734V151.668H52.5648L52.143 155.453C52.3695 155.32 52.7133 155.18 53.1742 155.031C53.6352 154.875 54.1508 154.797 54.7211 154.797C55.5492 154.797 56.2836 154.926 56.9242 155.184C57.5648 155.441 58.1078 155.816 58.5531 156.309C59.0063 156.801 59.35 157.402 59.5844 158.113C59.8188 158.824 59.9359 159.629 59.9359 160.527C59.9359 161.285 59.8188 162.008 59.5844 162.695C59.35 163.375 58.9945 163.984 58.518 164.523C58.0414 165.055 57.4438 165.473 56.725 165.777C56.0063 166.082 55.1547 166.234 54.1703 166.234C53.4359 166.234 52.725 166.125 52.0375 165.906C51.3578 165.688 50.7445 165.363 50.1977 164.934C49.6586 164.504 49.225 163.984 48.8969 163.375C48.5766 162.758 48.4086 162.055 48.393 161.266H51.7445C51.7914 161.75 51.9164 162.168 52.1195 162.52C52.3305 162.863 52.6078 163.129 52.9516 163.316C53.2953 163.504 53.6977 163.598 54.1586 163.598C54.5883 163.598 54.9555 163.516 55.2602 163.352C55.5648 163.188 55.8109 162.961 55.9984 162.672C56.1859 162.375 56.3227 162.031 56.4086 161.641C56.5023 161.242 56.5492 160.812 56.5492 160.352C56.5492 159.891 56.4945 159.473 56.3852 159.098C56.2758 158.723 56.1078 158.398 55.8813 158.125C55.6547 157.852 55.3656 157.641 55.0141 157.492C54.6703 157.344 54.268 157.27 53.807 157.27C53.182 157.27 52.6977 157.367 52.3539 157.562C52.018 157.758 51.7367 157.98 51.5102 158.23ZM65.2555 163.152L65.2438 165.414C65.2438 166.281 65.025 167.156 64.5875 168.039C64.1578 168.922 63.6109 169.645 62.9469 170.207L61.1891 169.305C61.3844 168.945 61.5758 168.586 61.7633 168.227C61.9508 167.867 62.107 167.473 62.232 167.043C62.357 166.613 62.4195 166.125 62.4195 165.578V163.152H65.2555ZM71.0789 156.004H72.8836C73.4617 156.004 73.9383 155.906 74.3133 155.711C74.6883 155.508 74.9656 155.227 75.1453 154.867C75.3328 154.5 75.4266 154.074 75.4266 153.59C75.4266 153.152 75.3406 152.766 75.1688 152.43C75.0047 152.086 74.7508 151.82 74.407 151.633C74.0633 151.438 73.6297 151.34 73.1063 151.34C72.6922 151.34 72.3094 151.422 71.9578 151.586C71.6063 151.75 71.325 151.98 71.1141 152.277C70.9031 152.574 70.7977 152.934 70.7977 153.355H67.4109C67.4109 152.418 67.6609 151.602 68.1609 150.906C68.6688 150.211 69.3484 149.668 70.2 149.277C71.0516 148.887 71.9891 148.691 73.0125 148.691C74.1688 148.691 75.1805 148.879 76.0477 149.254C76.9148 149.621 77.5906 150.164 78.075 150.883C78.5594 151.602 78.8016 152.492 78.8016 153.555C78.8016 154.094 78.6766 154.617 78.4266 155.125C78.1766 155.625 77.8172 156.078 77.3484 156.484C76.8875 156.883 76.325 157.203 75.6609 157.445C74.9969 157.68 74.2508 157.797 73.4227 157.797H71.0789V156.004ZM71.0789 158.57V156.824H73.4227C74.3523 156.824 75.1688 156.93 75.8719 157.141C76.575 157.352 77.1648 157.656 77.6414 158.055C78.118 158.445 78.4773 158.91 78.7195 159.449C78.9617 159.98 79.0828 160.57 79.0828 161.219C79.0828 162.016 78.9305 162.727 78.6258 163.352C78.3211 163.969 77.8914 164.492 77.3367 164.922C76.7898 165.352 76.1492 165.68 75.4148 165.906C74.6805 166.125 73.8797 166.234 73.0125 166.234C72.2938 166.234 71.5867 166.137 70.8914 165.941C70.2039 165.738 69.5789 165.438 69.0164 165.039C68.4617 164.633 68.0164 164.125 67.6805 163.516C67.3523 162.898 67.1883 162.168 67.1883 161.324H70.575C70.575 161.762 70.6844 162.152 70.9031 162.496C71.1219 162.84 71.4227 163.109 71.8055 163.305C72.1961 163.5 72.6297 163.598 73.1063 163.598C73.6453 163.598 74.1063 163.5 74.4891 163.305C74.8797 163.102 75.1766 162.82 75.3797 162.461C75.5906 162.094 75.6961 161.668 75.6961 161.184C75.6961 160.559 75.5828 160.059 75.3563 159.684C75.1297 159.301 74.8055 159.02 74.3836 158.84C73.9617 158.66 73.4617 158.57 72.8836 158.57H71.0789ZM89.9102 148.762H90.4023V151.457H90.2031C89.3125 151.457 88.5195 151.59 87.8242 151.855C87.1289 152.121 86.5391 152.5 86.0547 152.992C85.5781 153.477 85.2109 154.062 84.9531 154.75C84.7031 155.438 84.5781 156.207 84.5781 157.059V159.895C84.5781 160.504 84.6367 161.043 84.7539 161.512C84.8789 161.973 85.0547 162.359 85.2812 162.672C85.5156 162.977 85.7891 163.207 86.1016 163.363C86.4141 163.512 86.7656 163.586 87.1562 163.586C87.5234 163.586 87.8555 163.508 88.1523 163.352C88.457 163.195 88.7148 162.977 88.9258 162.695C89.1445 162.406 89.3086 162.07 89.418 161.688C89.5352 161.297 89.5938 160.871 89.5938 160.41C89.5938 159.949 89.5352 159.523 89.418 159.133C89.3086 158.742 89.1445 158.406 88.9258 158.125C88.707 157.836 88.4414 157.613 88.1289 157.457C87.8164 157.301 87.4648 157.223 87.0742 157.223C86.543 157.223 86.0742 157.348 85.668 157.598C85.2695 157.84 84.957 158.152 84.7305 158.535C84.5039 158.918 84.3828 159.32 84.3672 159.742L83.3477 159.086C83.3711 158.484 83.4961 157.914 83.7227 157.375C83.957 156.836 84.2773 156.359 84.6836 155.945C85.0977 155.523 85.5938 155.195 86.1719 154.961C86.75 154.719 87.4023 154.598 88.1289 154.598C88.9258 154.598 89.625 154.75 90.2266 155.055C90.8359 155.359 91.3438 155.777 91.75 156.309C92.1562 156.84 92.4609 157.453 92.6641 158.148C92.8672 158.844 92.9688 159.586 92.9688 160.375C92.9688 161.203 92.832 161.973 92.5586 162.684C92.293 163.395 91.9062 164.016 91.3984 164.547C90.8984 165.078 90.2969 165.492 89.5938 165.789C88.8906 166.086 88.1016 166.234 87.2266 166.234C86.3203 166.234 85.4961 166.07 84.7539 165.742C84.0195 165.406 83.3867 164.938 82.8555 164.336C82.3242 163.734 81.9141 163.02 81.625 162.191C81.3438 161.363 81.2031 160.457 81.2031 159.473V158.16C81.2031 156.785 81.4023 155.527 81.8008 154.387C82.207 153.238 82.7891 152.246 83.5469 151.41C84.3047 150.566 85.2188 149.914 86.2891 149.453C87.3594 148.992 88.5664 148.762 89.9102 148.762ZM97.9602 158.23L95.2648 157.586L96.2375 148.938H105.823V151.668H99.0148L98.593 155.453C98.8195 155.32 99.1633 155.18 99.6242 155.031C100.085 154.875 100.601 154.797 101.171 154.797C101.999 154.797 102.734 154.926 103.374 155.184C104.015 155.441 104.558 155.816 105.003 156.309C105.456 156.801 105.8 157.402 106.034 158.113C106.269 158.824 106.386 159.629 106.386 160.527C106.386 161.285 106.269 162.008 106.034 162.695C105.8 163.375 105.445 163.984 104.968 164.523C104.491 165.055 103.894 165.473 103.175 165.777C102.456 166.082 101.605 166.234 100.62 166.234C99.8859 166.234 99.175 166.125 98.4875 165.906C97.8078 165.688 97.1945 165.363 96.6477 164.934C96.1086 164.504 95.675 163.984 95.3469 163.375C95.0266 162.758 94.8586 162.055 94.843 161.266H98.1945C98.2414 161.75 98.3664 162.168 98.5695 162.52C98.7805 162.863 99.0578 163.129 99.4016 163.316C99.7453 163.504 100.148 163.598 100.609 163.598C101.038 163.598 101.405 163.516 101.71 163.352C102.015 163.188 102.261 162.961 102.448 162.672C102.636 162.375 102.773 162.031 102.859 161.641C102.952 161.242 102.999 160.812 102.999 160.352C102.999 159.891 102.945 159.473 102.835 159.098C102.726 158.723 102.558 158.398 102.331 158.125C102.105 157.852 101.816 157.641 101.464 157.492C101.12 157.344 100.718 157.27 100.257 157.27C99.632 157.27 99.1477 157.367 98.8039 157.562C98.468 157.758 98.1867 157.98 97.9602 158.23ZM108.67 164.371C108.67 163.871 108.842 163.453 109.186 163.117C109.537 162.781 110.002 162.613 110.58 162.613C111.159 162.613 111.62 162.781 111.963 163.117C112.315 163.453 112.491 163.871 112.491 164.371C112.491 164.871 112.315 165.289 111.963 165.625C111.62 165.961 111.159 166.129 110.58 166.129C110.002 166.129 109.537 165.961 109.186 165.625C108.842 165.289 108.67 164.871 108.67 164.371ZM126.611 155.969V158.922C126.611 160.203 126.474 161.309 126.201 162.238C125.927 163.16 125.533 163.918 125.017 164.512C124.509 165.098 123.904 165.531 123.201 165.812C122.498 166.094 121.716 166.234 120.857 166.234C120.17 166.234 119.529 166.148 118.935 165.977C118.341 165.797 117.806 165.52 117.33 165.145C116.861 164.77 116.455 164.297 116.111 163.727C115.775 163.148 115.517 162.461 115.338 161.664C115.158 160.867 115.068 159.953 115.068 158.922V155.969C115.068 154.688 115.205 153.59 115.478 152.676C115.759 151.754 116.154 151 116.662 150.414C117.177 149.828 117.787 149.398 118.49 149.125C119.193 148.844 119.974 148.703 120.834 148.703C121.521 148.703 122.158 148.793 122.744 148.973C123.338 149.145 123.873 149.414 124.349 149.781C124.826 150.148 125.232 150.621 125.568 151.199C125.904 151.77 126.162 152.453 126.341 153.25C126.521 154.039 126.611 154.945 126.611 155.969ZM123.224 159.367V155.512C123.224 154.895 123.189 154.355 123.119 153.895C123.056 153.434 122.959 153.043 122.826 152.723C122.693 152.395 122.529 152.129 122.334 151.926C122.138 151.723 121.916 151.574 121.666 151.48C121.416 151.387 121.138 151.34 120.834 151.34C120.451 151.34 120.111 151.414 119.814 151.562C119.525 151.711 119.279 151.949 119.076 152.277C118.873 152.598 118.716 153.027 118.607 153.566C118.505 154.098 118.455 154.746 118.455 155.512V159.367C118.455 159.984 118.486 160.527 118.548 160.996C118.619 161.465 118.72 161.867 118.853 162.203C118.994 162.531 119.158 162.801 119.345 163.012C119.541 163.215 119.763 163.363 120.013 163.457C120.271 163.551 120.552 163.598 120.857 163.598C121.232 163.598 121.564 163.523 121.853 163.375C122.15 163.219 122.4 162.977 122.603 162.648C122.814 162.312 122.97 161.875 123.072 161.336C123.173 160.797 123.224 160.141 123.224 159.367ZM140.192 155.969V158.922C140.192 160.203 140.055 161.309 139.782 162.238C139.509 163.16 139.114 163.918 138.598 164.512C138.091 165.098 137.485 165.531 136.782 165.812C136.079 166.094 135.298 166.234 134.438 166.234C133.751 166.234 133.11 166.148 132.516 165.977C131.923 165.797 131.387 165.52 130.911 165.145C130.442 164.77 130.036 164.297 129.692 163.727C129.356 163.148 129.098 162.461 128.919 161.664C128.739 160.867 128.649 159.953 128.649 158.922V155.969C128.649 154.688 128.786 153.59 129.059 152.676C129.341 151.754 129.735 151 130.243 150.414C130.759 149.828 131.368 149.398 132.071 149.125C132.774 148.844 133.555 148.703 134.415 148.703C135.102 148.703 135.739 148.793 136.325 148.973C136.919 149.145 137.454 149.414 137.93 149.781C138.407 150.148 138.813 150.621 139.149 151.199C139.485 151.77 139.743 152.453 139.923 153.25C140.102 154.039 140.192 154.945 140.192 155.969ZM136.805 159.367V155.512C136.805 154.895 136.77 154.355 136.7 153.895C136.637 153.434 136.54 153.043 136.407 152.723C136.274 152.395 136.11 152.129 135.915 151.926C135.72 151.723 135.497 151.574 135.247 151.48C134.997 151.387 134.72 151.34 134.415 151.34C134.032 151.34 133.692 151.414 133.395 151.562C133.106 151.711 132.86 151.949 132.657 152.277C132.454 152.598 132.298 153.027 132.188 153.566C132.087 154.098 132.036 154.746 132.036 155.512V159.367C132.036 159.984 132.067 160.527 132.13 160.996C132.2 161.465 132.302 161.867 132.434 162.203C132.575 162.531 132.739 162.801 132.927 163.012C133.122 163.215 133.345 163.363 133.595 163.457C133.852 163.551 134.134 163.598 134.438 163.598C134.813 163.598 135.145 163.523 135.434 163.375C135.731 163.219 135.981 162.977 136.184 162.648C136.395 162.312 136.552 161.875 136.653 161.336C136.755 160.797 136.805 160.141 136.805 159.367Z" fill="white"/>
</svg>
