<svg width="48" height="35" viewBox="0 0 48 35" fill="none" xmlns="http://www.w3.org/2000/svg">
<path d="M34.3517 0.534344L2.29425 8.00024C1.02717 8.29533 0.239219 9.56172 0.534311 10.8288L4.9265 29.6882C5.22159 30.9553 6.48798 31.7432 7.75506 31.4481L39.8125 23.9822C41.0795 23.6871 41.8675 22.4208 41.5724 21.1537L37.1802 2.29428C36.8851 1.0272 35.6187 0.239252 34.3517 0.534344Z" fill="#1D3A70"/>
<path d="M7.2212 31.7372C6.63848 31.7362 6.07315 31.5386 5.61672 31.1764C5.16029 30.8141 4.83948 30.3084 4.70623 29.7411L0.31358 10.88C0.158512 10.2137 0.273846 9.5131 0.634321 8.93165C0.994796 8.35019 1.57102 7.93531 2.23679 7.77787L34.3009 0.310357C34.9682 0.155493 35.6696 0.271756 36.2512 0.63362C36.8329 0.995483 37.2471 1.57337 37.403 2.24039L41.7957 21.1015C41.873 21.4316 41.8845 21.7738 41.8294 22.1083C41.7743 22.4429 41.6538 22.7633 41.4747 23.0512C41.2957 23.3392 41.0616 23.589 40.7859 23.7863C40.5102 23.9837 40.1982 24.1247 39.8679 24.2014V24.2014L7.8084 31.6712C7.61582 31.7155 7.41881 31.7376 7.2212 31.7372V31.7372ZM34.8881 0.697276C34.7256 0.697226 34.5636 0.716324 34.4056 0.754176L2.34604 8.22169C2.07358 8.28445 1.81619 8.40034 1.58859 8.56272C1.36099 8.7251 1.16766 8.93079 1.01966 9.16799C0.871673 9.4052 0.771929 9.66928 0.726144 9.94509C0.680359 10.2209 0.689433 10.503 0.752845 10.7753L5.15005 29.641C5.27795 30.1896 5.61795 30.6653 6.09568 30.9639C6.5734 31.2624 7.14994 31.3596 7.69915 31.2342L39.7564 23.7667C40.0287 23.7036 40.2859 23.5876 40.5134 23.4251C40.7408 23.2627 40.934 23.057 41.082 22.8199C41.2299 22.5827 41.3297 22.3188 41.3756 22.0431C41.4216 21.7673 41.4127 21.4853 41.3496 21.213L36.9592 2.34281C36.85 1.87525 36.5859 1.45832 36.21 1.15963C35.8341 0.860943 35.3682 0.698016 34.8881 0.697276V0.697276Z" fill="white" fill-opacity="0.06"/>
<path d="M38.0077 5.84793L1.36182 14.3824L2.44747 19.0441L39.0934 10.5096L38.0077 5.84793Z" fill="white" fill-opacity="0.06"/>
<path d="M2.44843 19.271C2.39582 19.2723 2.34439 19.2553 2.30289 19.223C2.2614 19.1906 2.2324 19.1449 2.22084 19.0935L1.13519 14.4323C1.12149 14.374 1.1313 14.3127 1.1625 14.2616C1.17814 14.2361 1.19865 14.2139 1.22286 14.1963C1.24707 14.1788 1.27452 14.1661 1.30361 14.1592L37.947 5.62195C37.9761 5.6152 38.0063 5.61427 38.0358 5.6192C38.0653 5.62413 38.0936 5.63483 38.1189 5.65068C38.1443 5.66654 38.1663 5.68724 38.1836 5.71159C38.201 5.73595 38.2134 5.7635 38.2201 5.79265L39.308 10.4539C39.3148 10.4832 39.3156 10.5136 39.3106 10.5433C39.3055 10.573 39.2946 10.6014 39.2784 10.6268C39.2464 10.6775 39.1957 10.7135 39.1373 10.727L2.49395 19.2642C2.47908 19.2682 2.46381 19.2705 2.44843 19.271ZM1.63591 14.5506L2.61913 18.768L38.821 10.3469L37.8377 6.12949L1.63591 14.5506Z" fill="white" fill-opacity="0.06"/>
<g filter="url(#filter0_d_59_3709)">
<path d="M45.3439 10.609H12.4286C11.1277 10.609 10.073 11.6637 10.073 12.9647V32.3287C10.073 33.6297 11.1277 34.6844 12.4286 34.6844H45.3439C46.6449 34.6844 47.6996 33.6297 47.6996 32.3287V12.9647C47.6996 11.6637 46.6449 10.609 45.3439 10.609Z" fill="#1DAB87"/>
</g>
<path d="M45.344 34.9138H12.4264C11.7418 34.9126 11.0857 34.64 10.6019 34.1558C10.118 33.6715 9.846 33.0151 9.8454 32.3306V12.9642C9.846 12.2797 10.118 11.6233 10.6019 11.1391C11.0857 10.6548 11.7418 10.3822 12.4264 10.381H45.344C46.0289 10.3816 46.6856 10.6539 47.1699 11.1383C47.6542 11.6226 47.9266 12.2793 47.9272 12.9642V32.3306C47.9266 33.0155 47.6542 33.6722 47.1699 34.1566C46.6856 34.6409 46.0289 34.9132 45.344 34.9138ZM12.4264 10.8362C11.8626 10.8374 11.3222 11.062 10.9237 11.4609C10.5253 11.8598 10.3012 12.4004 10.3006 12.9642V32.3306C10.3006 32.8946 10.5245 33.4355 10.9231 33.8345C11.3217 34.2336 11.8624 34.458 12.4264 34.4586H45.344C45.9083 34.4586 46.4496 34.2344 46.8487 33.8353C47.2478 33.4363 47.472 32.895 47.472 32.3306V12.9642C47.4714 12.4 47.247 11.8591 46.848 11.4601C46.4491 11.0612 45.9082 10.8368 45.344 10.8362H12.4264Z" fill="#1DAB87"/>
<path d="M36.2173 21.174C37.6791 21.174 38.8642 19.9889 38.8642 18.527C38.8642 17.0651 37.6791 15.88 36.2173 15.88C34.7554 15.88 33.5703 17.0651 33.5703 18.527C33.5703 19.9889 34.7554 21.174 36.2173 21.174Z" fill="#FACC15"/>
<path d="M36.2172 21.4011C35.6486 21.4016 35.0926 21.2334 34.6196 20.9178C34.1466 20.6022 33.7778 20.1534 33.5599 19.6282C33.3419 19.103 33.2847 18.5249 33.3954 17.9671C33.506 17.4094 33.7796 16.897 34.1815 16.4947C34.5835 16.0925 35.0957 15.8185 35.6533 15.7074C36.211 15.5963 36.7891 15.6531 37.3145 15.8706C37.8399 16.0881 38.289 16.4565 38.6049 16.9293C38.9209 17.4021 39.0895 17.9579 39.0895 18.5265C39.0883 19.2882 38.7854 20.0183 38.2471 20.557C37.7087 21.0958 36.9789 21.3993 36.2172 21.4011ZM36.2172 16.1095C35.7385 16.109 35.2705 16.2506 34.8723 16.5162C34.474 16.7819 34.1636 17.1597 33.9802 17.6019C33.7968 18.0441 33.7487 18.5307 33.842 19.0003C33.9352 19.4698 34.1657 19.9011 34.5042 20.2396C34.8427 20.5781 35.274 20.8085 35.7435 20.9018C36.2131 20.9951 36.6997 20.947 37.1419 20.7636C37.584 20.5802 37.9619 20.2697 38.2275 19.8715C38.4932 19.4733 38.6348 19.0052 38.6343 18.5265C38.6331 17.8859 38.3781 17.2718 37.9251 16.8187C37.472 16.3657 36.8579 16.1107 36.2172 16.1095Z" fill="#FACC15"/>
<path d="M40.3505 21.174C41.8123 21.174 42.9974 19.9889 42.9974 18.527C42.9974 17.0651 41.8123 15.88 40.3505 15.88C38.8886 15.88 37.7035 17.0651 37.7035 18.527C37.7035 19.9889 38.8886 21.174 40.3505 21.174Z" fill="#FB923C"/>
<path d="M40.3504 21.4011C39.7818 21.4016 39.2258 21.2334 38.7528 20.9178C38.2798 20.6022 37.911 20.1534 37.693 19.6282C37.4751 19.103 37.4179 18.5249 37.5285 17.9671C37.6392 17.4094 37.9128 16.897 38.3147 16.4947C38.7166 16.0925 39.2288 15.8185 39.7865 15.7074C40.3442 15.5963 40.9223 15.6531 41.4477 15.8706C41.9731 16.0881 42.4221 16.4565 42.7381 16.9293C43.0541 17.4021 43.2227 17.9579 43.2227 18.5265C43.2215 19.2882 42.9186 20.0183 42.3802 20.557C41.8419 21.0958 41.112 21.3993 40.3504 21.4011ZM40.3504 16.1095C39.8717 16.109 39.4036 16.2506 39.0054 16.5162C38.6072 16.7819 38.2968 17.1597 38.1134 17.6019C37.93 18.0441 37.8819 18.5307 37.9751 19.0003C38.0684 19.4698 38.2989 19.9011 38.6374 20.2396C38.9759 20.5781 39.4072 20.8085 39.8767 20.9018C40.3462 20.9951 40.8329 20.947 41.2751 20.7636C41.7172 20.5802 42.0951 20.2697 42.3607 19.8715C42.6264 19.4733 42.768 19.0052 42.7675 18.5265C42.7663 17.8859 42.5113 17.2718 42.0582 16.8187C41.6052 16.3657 40.9911 16.1107 40.3504 16.1095Z" fill="#FB923C"/>
<path d="M18.0276 21.3878H15.4989C15.0754 21.3879 14.6689 21.2204 14.3684 20.9219C14.0678 20.6234 13.8974 20.2182 13.8944 19.7947V17.2569C13.8944 17.0467 13.936 16.8386 14.0167 16.6446C14.0975 16.4506 14.2159 16.2744 14.365 16.1263C14.5142 15.9782 14.6912 15.8611 14.8858 15.7817C15.0804 15.7023 15.2888 15.6622 15.4989 15.6637H18.0276C18.4501 15.6637 18.8553 15.8316 19.1541 16.1304C19.4529 16.4292 19.6208 16.8344 19.6208 17.2569V19.7855C19.6202 20.2087 19.4524 20.6146 19.154 20.9147C18.8556 21.2148 18.4508 21.3848 18.0276 21.3878V21.3878ZM15.4989 16.1098C15.3486 16.1083 15.1993 16.1367 15.06 16.1932C14.9206 16.2497 14.7938 16.3333 14.6869 16.4391C14.58 16.5449 14.4952 16.6709 14.4373 16.8097C14.3794 16.9485 14.3496 17.0974 14.3496 17.2478V19.7855C14.3496 19.936 14.3794 20.0849 14.4373 20.2237C14.4952 20.3625 14.58 20.4885 14.6869 20.5943C14.7938 20.7001 14.9206 20.7837 15.06 20.8402C15.1993 20.8967 15.3486 20.925 15.4989 20.9235H18.0276C18.3294 20.9235 18.6188 20.8036 18.8322 20.5902C19.0457 20.3768 19.1656 20.0874 19.1656 19.7855V17.2569C19.1656 16.9551 19.0457 16.6657 18.8322 16.4522C18.6188 16.2388 18.3294 16.1189 18.0276 16.1189L15.4989 16.1098Z" fill="#FFB9AA"/>
<path d="M20.3741 29.6403H14.122C14.0616 29.6403 14.0037 29.6163 13.961 29.5736C13.9184 29.5309 13.8944 29.473 13.8944 29.4127V26.7475C13.8944 26.6871 13.9184 26.6292 13.961 26.5866C14.0037 26.5439 14.0616 26.5199 14.122 26.5199H20.3741C20.4345 26.5199 20.4924 26.5439 20.535 26.5866C20.5777 26.6292 20.6017 26.6871 20.6017 26.7475V29.4127C20.6017 29.473 20.5777 29.5309 20.535 29.5736C20.4924 29.6163 20.4345 29.6403 20.3741 29.6403ZM14.3496 29.1851H20.1465V26.9751H14.3496V29.1851Z" fill="#FFB9AA"/>
<path d="M28.1329 29.6403H21.8808C21.8204 29.6403 21.7625 29.6163 21.7199 29.5736C21.6772 29.5309 21.6532 29.473 21.6532 29.4127V26.7475C21.6532 26.6871 21.6772 26.6292 21.7199 26.5866C21.7625 26.5439 21.8204 26.5199 21.8808 26.5199H28.1329C28.1933 26.5199 28.2512 26.5439 28.2939 26.5866C28.3365 26.6292 28.3605 26.6871 28.3605 26.7475V29.4127C28.3605 29.473 28.3365 29.5309 28.2939 29.5736C28.2512 29.6163 28.1933 29.6403 28.1329 29.6403ZM22.1084 29.1851H27.9053V26.9751H22.1084V29.1851Z" fill="#FFB9AA"/>
<path d="M35.8895 29.6403H29.6396C29.5793 29.6403 29.5214 29.6163 29.4787 29.5736C29.436 29.5309 29.412 29.473 29.412 29.4127V26.7475C29.412 26.6871 29.436 26.6292 29.4787 26.5866C29.5214 26.5439 29.5793 26.5199 29.6396 26.5199H35.8895C35.9498 26.5199 36.0077 26.5439 36.0504 26.5866C36.0931 26.6292 36.1171 26.6871 36.1171 26.7475V29.4127C36.1171 29.473 36.0931 29.5309 36.0504 29.5736C36.0077 29.6163 35.9498 29.6403 35.8895 29.6403ZM29.8672 29.1851H35.6619V26.9751H29.8672V29.1851Z" fill="#FFB9AA"/>
<path d="M43.6597 29.6403H37.3985C37.3381 29.6403 37.2802 29.6163 37.2376 29.5736C37.1949 29.5309 37.1709 29.473 37.1709 29.4127V26.7475C37.1709 26.6871 37.1949 26.6292 37.2376 26.5866C37.2802 26.5439 37.3381 26.5199 37.3985 26.5199H43.6597C43.7201 26.5199 43.778 26.5439 43.8207 26.5866C43.8634 26.6292 43.8873 26.6871 43.8873 26.7475V29.4127C43.8873 29.473 43.8634 29.5309 43.8207 29.5736C43.778 29.6163 43.7201 29.6403 43.6597 29.6403ZM37.6375 29.1851H43.4321V26.9751H37.6261L37.6375 29.1851Z" fill="#FFB9AA"/>
<defs>
<filter id="filter0_d_59_3709" x="-13.927" y="2.60901" width="69.6266" height="56.0754" filterUnits="userSpaceOnUse" color-interpolation-filters="sRGB">
<feFlood flood-opacity="0" result="BackgroundImageFix"/>
<feColorMatrix in="SourceAlpha" type="matrix" values="0 0 0 0 0 0 0 0 0 0 0 0 0 0 0 0 0 0 127 0" result="hardAlpha"/>
<feOffset dx="-8" dy="8"/>
<feGaussianBlur stdDeviation="8"/>
<feComposite in2="hardAlpha" operator="out"/>
<feColorMatrix type="matrix" values="0 0 0 0 0.419608 0 0 0 0 0.447059 0 0 0 0 0.501961 0 0 0 0.15 0"/>
<feBlend mode="normal" in2="BackgroundImageFix" result="effect1_dropShadow_59_3709"/>
<feBlend mode="normal" in="SourceGraphic" in2="effect1_dropShadow_59_3709" result="shape"/>
</filter>
</defs>
</svg>
