<svg width="190" height="276" viewBox="0 0 190 276" fill="none" xmlns="http://www.w3.org/2000/svg">
<rect width="190" height="276" rx="20" fill="#1D3A70"/>
<mask id="mask0_2_2722" style="mask-type:alpha" maskUnits="userSpaceOnUse" x="0" y="0" width="190" height="276">
<rect width="190" height="276" rx="20" fill="#1D3A70"/>
</mask>
<g mask="url(#mask0_2_2722)">
<path opacity="0.6" d="M33.7039 44C12.9089 66.3438 -27.9119 118.716 -24.8354 149.457C-20.9898 187.883 28.2 179.205 35.4129 176.782C40.4711 175.083 94.3796 148.176 104.207 120.424C114.035 92.6725 84.0988 95.2191 81.1334 96.0881C68.3111 99.8455 48.6591 108.043 29.8581 144.334C11.0571 180.624 8.06608 207.522 21.7395 220.331C32.6782 230.578 57.9773 229.658 81.4 227.912C122.128 224.877 154.884 199.154 176.42 184.467C197.956 169.78 279.113 112.028 317 84.9873" stroke="#1DAB87" stroke-width="0.5" stroke-linecap="round"/>
</g>
<path d="M0 212H190V246C190 255.319 190 259.978 188.478 263.654C186.448 268.554 182.554 272.448 177.654 274.478C173.978 276 169.319 276 160 276H30C20.6812 276 16.0218 276 12.3463 274.478C7.44577 272.448 3.55229 268.554 1.52241 263.654C0 259.978 0 255.319 0 246V212Z" fill="#1DAB87"/>
<ellipse opacity="0.5" cx="54.1628" cy="242" rx="14" ry="14" fill="white"/>
<ellipse opacity="0.8" cx="34" cy="242" rx="14" ry="14" fill="white"/>
<rect x="20.25" y="24.25" width="31.5" height="23.881" rx="3.75" fill="url(#paint0_linear_2_2722)" stroke="#9F7E3B" stroke-width="0.5"/>
<path d="M20.5 31.5H29C30.1046 31.5 31 32.3954 31 33.5V37.375M31 47.9V43.25M31 43.25V37.375M31 43.25H20.5M31 37.375H20.5" stroke="#1D3A70" stroke-width="0.5"/>
<path d="M51.5 31.5H41.5M41.5 31.5V37.375M41.5 31.5V24.5M41.5 47.9V43.25M41.5 43.25V37.375M41.5 43.25H51.5M41.5 37.375H51.5" stroke="#1D3A70" stroke-width="0.5"/>
<path d="M162.16 28.9099C165.48 33.2099 165.48 38.7999 162.16 43.0999" stroke="white" stroke-width="1.5" stroke-linecap="round" stroke-linejoin="round"/>
<path d="M165.64 26C170.32 32.06 170.32 39.94 165.64 46" stroke="white" stroke-width="1.5" stroke-linecap="round" stroke-linejoin="round"/>
<path d="M158.51 30.79C160.95 33.94 160.95 38.05 158.51 41.2" stroke="white" stroke-width="1.5" stroke-linecap="round" stroke-linejoin="round"/>
<path d="M154.85 33.4C156.07 34.98 156.07 37.03 154.85 38.61" stroke="white" stroke-width="1.5" stroke-linecap="round" stroke-linejoin="round"/>
<path opacity="0.6" d="M24.0312 156.01H21.8691L21.8574 155.102H23.8203C24.1445 155.102 24.4277 155.047 24.6699 154.938C24.9121 154.828 25.0996 154.672 25.2324 154.469C25.3691 154.262 25.4375 154.016 25.4375 153.73C25.4375 153.418 25.377 153.164 25.2559 152.969C25.1387 152.77 24.957 152.625 24.7109 152.535C24.4688 152.441 24.1602 152.395 23.7852 152.395H22.1211V160H20.9902V151.469H23.7852C24.2227 151.469 24.6133 151.514 24.957 151.604C25.3008 151.689 25.5918 151.826 25.8301 152.014C26.0723 152.197 26.2559 152.432 26.3809 152.717C26.5059 153.002 26.5684 153.344 26.5684 153.742C26.5684 154.094 26.4785 154.412 26.2988 154.697C26.1191 154.979 25.8691 155.209 25.5488 155.389C25.2324 155.568 24.8613 155.684 24.4355 155.734L24.0312 156.01ZM23.9785 160H21.4238L22.0625 159.08H23.9785C24.3379 159.08 24.6426 159.018 24.8926 158.893C25.1465 158.768 25.3398 158.592 25.4727 158.365C25.6055 158.135 25.6719 157.863 25.6719 157.551C25.6719 157.234 25.6152 156.961 25.502 156.73C25.3887 156.5 25.2109 156.322 24.9688 156.197C24.7266 156.072 24.4141 156.01 24.0312 156.01H22.4199L22.4316 155.102H24.6348L24.875 155.43C25.2852 155.465 25.6328 155.582 25.918 155.781C26.2031 155.977 26.4199 156.227 26.5684 156.531C26.7207 156.836 26.7969 157.172 26.7969 157.539C26.7969 158.07 26.6797 158.52 26.4453 158.887C26.2148 159.25 25.8887 159.527 25.4668 159.719C25.0449 159.906 24.5488 160 23.9785 160ZM32.341 158.916V155.652C32.341 155.402 32.2902 155.186 32.1887 155.002C32.091 154.814 31.9426 154.67 31.7434 154.568C31.5441 154.467 31.298 154.416 31.0051 154.416C30.7316 154.416 30.4914 154.463 30.2844 154.557C30.0813 154.65 29.9211 154.773 29.8039 154.926C29.6906 155.078 29.634 155.242 29.634 155.418H28.55C28.55 155.191 28.6086 154.967 28.7258 154.744C28.843 154.521 29.0109 154.32 29.2297 154.141C29.4523 153.957 29.718 153.812 30.0266 153.707C30.3391 153.598 30.6867 153.543 31.0695 153.543C31.5305 153.543 31.9367 153.621 32.2883 153.777C32.6438 153.934 32.9211 154.17 33.1203 154.486C33.3234 154.799 33.425 155.191 33.425 155.664V158.617C33.425 158.828 33.4426 159.053 33.4777 159.291C33.5168 159.529 33.5734 159.734 33.6477 159.906V160H32.5168C32.4621 159.875 32.4191 159.709 32.3879 159.502C32.3566 159.291 32.341 159.096 32.341 158.916ZM32.5285 156.156L32.5402 156.918H31.4445C31.1359 156.918 30.8605 156.943 30.6184 156.994C30.3762 157.041 30.173 157.113 30.009 157.211C29.8449 157.309 29.7199 157.432 29.634 157.58C29.548 157.725 29.5051 157.895 29.5051 158.09C29.5051 158.289 29.55 158.471 29.6398 158.635C29.7297 158.799 29.8645 158.93 30.0441 159.027C30.2277 159.121 30.4523 159.168 30.718 159.168C31.05 159.168 31.343 159.098 31.5969 158.957C31.8508 158.816 32.052 158.645 32.2004 158.441C32.3527 158.238 32.4348 158.041 32.4465 157.85L32.9094 158.371C32.882 158.535 32.8078 158.717 32.6867 158.916C32.5656 159.115 32.4035 159.307 32.2004 159.49C32.0012 159.67 31.7629 159.82 31.4855 159.941C31.2121 160.059 30.9035 160.117 30.5598 160.117C30.1301 160.117 29.7531 160.033 29.4289 159.865C29.1086 159.697 28.8586 159.473 28.6789 159.191C28.5031 158.906 28.4152 158.588 28.4152 158.236C28.4152 157.896 28.4816 157.598 28.6145 157.34C28.7473 157.078 28.9387 156.861 29.1887 156.689C29.4387 156.514 29.7395 156.381 30.091 156.291C30.4426 156.201 30.8352 156.156 31.2688 156.156H32.5285ZM36.6078 151V160H35.518V151H36.6078ZM42.3863 158.916V155.652C42.3863 155.402 42.3355 155.186 42.234 155.002C42.1363 154.814 41.9879 154.67 41.7887 154.568C41.5895 154.467 41.3434 154.416 41.0504 154.416C40.777 154.416 40.5367 154.463 40.3297 154.557C40.1266 154.65 39.9664 154.773 39.8492 154.926C39.7359 155.078 39.6793 155.242 39.6793 155.418H38.5953C38.5953 155.191 38.6539 154.967 38.7711 154.744C38.8883 154.521 39.0562 154.32 39.275 154.141C39.4977 153.957 39.7633 153.812 40.0719 153.707C40.3844 153.598 40.732 153.543 41.1148 153.543C41.5758 153.543 41.982 153.621 42.3336 153.777C42.6891 153.934 42.9664 154.17 43.1656 154.486C43.3687 154.799 43.4703 155.191 43.4703 155.664V158.617C43.4703 158.828 43.4879 159.053 43.523 159.291C43.5621 159.529 43.6187 159.734 43.693 159.906V160H42.5621C42.5074 159.875 42.4645 159.709 42.4332 159.502C42.402 159.291 42.3863 159.096 42.3863 158.916ZM42.5738 156.156L42.5855 156.918H41.4898C41.1812 156.918 40.9059 156.943 40.6637 156.994C40.4215 157.041 40.2184 157.113 40.0543 157.211C39.8902 157.309 39.7652 157.432 39.6793 157.58C39.5934 157.725 39.5504 157.895 39.5504 158.09C39.5504 158.289 39.5953 158.471 39.6852 158.635C39.775 158.799 39.9098 158.93 40.0895 159.027C40.273 159.121 40.4977 159.168 40.7633 159.168C41.0953 159.168 41.3883 159.098 41.6422 158.957C41.8961 158.816 42.0973 158.645 42.2457 158.441C42.398 158.238 42.4801 158.041 42.4918 157.85L42.9547 158.371C42.9273 158.535 42.8531 158.717 42.732 158.916C42.6109 159.115 42.4488 159.307 42.2457 159.49C42.0465 159.67 41.8082 159.82 41.5309 159.941C41.2574 160.059 40.9488 160.117 40.6051 160.117C40.1754 160.117 39.7984 160.033 39.4742 159.865C39.1539 159.697 38.9039 159.473 38.7242 159.191C38.5484 158.906 38.4605 158.588 38.4605 158.236C38.4605 157.896 38.527 157.598 38.6598 157.34C38.7926 157.078 38.984 156.861 39.234 156.689C39.484 156.514 39.7848 156.381 40.1363 156.291C40.4879 156.201 40.8805 156.156 41.3141 156.156H42.5738ZM46.5594 155.014V160H45.4754V153.66H46.5008L46.5594 155.014ZM46.3016 156.59L45.8504 156.572C45.8543 156.139 45.9188 155.738 46.0438 155.371C46.1688 155 46.3445 154.678 46.5711 154.404C46.7977 154.131 47.0672 153.92 47.3797 153.771C47.6961 153.619 48.0457 153.543 48.4285 153.543C48.741 153.543 49.0223 153.586 49.2723 153.672C49.5223 153.754 49.7352 153.887 49.9109 154.07C50.0906 154.254 50.2273 154.492 50.3211 154.785C50.4148 155.074 50.4617 155.428 50.4617 155.846V160H49.3719V155.834C49.3719 155.502 49.323 155.236 49.2254 155.037C49.1277 154.834 48.9852 154.688 48.7977 154.598C48.6102 154.504 48.3797 154.457 48.1063 154.457C47.8367 154.457 47.5906 154.514 47.368 154.627C47.1492 154.74 46.9598 154.896 46.7996 155.096C46.6434 155.295 46.5203 155.523 46.4305 155.781C46.3445 156.035 46.3016 156.305 46.3016 156.59ZM54.9453 159.227C55.2031 159.227 55.4414 159.174 55.6602 159.068C55.8789 158.963 56.0586 158.818 56.1992 158.635C56.3398 158.447 56.4199 158.234 56.4395 157.996H57.4707C57.4512 158.371 57.3242 158.721 57.0898 159.045C56.8594 159.365 56.5566 159.625 56.1816 159.824C55.8066 160.02 55.3945 160.117 54.9453 160.117C54.4688 160.117 54.0527 160.033 53.6973 159.865C53.3457 159.697 53.0527 159.467 52.8184 159.174C52.5879 158.881 52.4141 158.545 52.2969 158.166C52.1836 157.783 52.127 157.379 52.127 156.953V156.707C52.127 156.281 52.1836 155.879 52.2969 155.5C52.4141 155.117 52.5879 154.779 52.8184 154.486C53.0527 154.193 53.3457 153.963 53.6973 153.795C54.0527 153.627 54.4688 153.543 54.9453 153.543C55.4414 153.543 55.875 153.645 56.2461 153.848C56.6172 154.047 56.9082 154.32 57.1191 154.668C57.334 155.012 57.4512 155.402 57.4707 155.84H56.4395C56.4199 155.578 56.3457 155.342 56.2168 155.131C56.0918 154.92 55.9199 154.752 55.7012 154.627C55.4863 154.498 55.2344 154.434 54.9453 154.434C54.6133 154.434 54.334 154.5 54.1074 154.633C53.8848 154.762 53.707 154.938 53.5742 155.16C53.4453 155.379 53.3516 155.623 53.293 155.893C53.2383 156.158 53.2109 156.43 53.2109 156.707V156.953C53.2109 157.23 53.2383 157.504 53.293 157.773C53.3477 158.043 53.4395 158.287 53.5684 158.506C53.7012 158.725 53.8789 158.9 54.1016 159.033C54.3281 159.162 54.6094 159.227 54.9453 159.227ZM61.6203 160.117C61.1789 160.117 60.7785 160.043 60.4191 159.895C60.0637 159.742 59.757 159.529 59.4992 159.256C59.2453 158.982 59.05 158.658 58.9133 158.283C58.7766 157.908 58.7082 157.498 58.7082 157.053V156.807C58.7082 156.291 58.7844 155.832 58.9367 155.43C59.0891 155.023 59.2961 154.68 59.5578 154.398C59.8195 154.117 60.1164 153.904 60.4484 153.76C60.7805 153.615 61.1242 153.543 61.4797 153.543C61.9328 153.543 62.3234 153.621 62.6516 153.777C62.9836 153.934 63.2551 154.152 63.466 154.434C63.677 154.711 63.8332 155.039 63.9348 155.418C64.0363 155.793 64.0871 156.203 64.0871 156.648V157.135H59.3527V156.25H63.0031V156.168C62.9875 155.887 62.9289 155.613 62.8273 155.348C62.7297 155.082 62.5734 154.863 62.3586 154.691C62.1437 154.52 61.8508 154.434 61.4797 154.434C61.2336 154.434 61.007 154.486 60.8 154.592C60.593 154.693 60.4152 154.846 60.2668 155.049C60.1184 155.252 60.0031 155.5 59.9211 155.793C59.8391 156.086 59.798 156.424 59.798 156.807V157.053C59.798 157.354 59.8391 157.637 59.9211 157.902C60.007 158.164 60.1301 158.395 60.2902 158.594C60.4543 158.793 60.6516 158.949 60.882 159.062C61.1164 159.176 61.382 159.232 61.6789 159.232C62.0617 159.232 62.3859 159.154 62.6516 158.998C62.9172 158.842 63.1496 158.633 63.3488 158.371L64.0051 158.893C63.8684 159.1 63.6945 159.297 63.4836 159.484C63.2727 159.672 63.0129 159.824 62.7043 159.941C62.3996 160.059 62.0383 160.117 61.6203 160.117Z" fill="white"/>
<path d="M26.1611 171.173V173.766H24.79V171.173H26.1611ZM25.9941 185.525V187.89H24.623V185.525H25.9941ZM26.9609 182.643C26.9609 182.309 26.8994 182.024 26.7764 181.79C26.6592 181.556 26.4658 181.348 26.1963 181.166C25.9326 180.984 25.5752 180.809 25.124 180.639C24.3623 180.346 23.6914 180.035 23.1113 179.707C22.5371 179.373 22.0889 178.96 21.7666 178.468C21.4443 177.97 21.2832 177.34 21.2832 176.578C21.2832 175.852 21.4561 175.222 21.8018 174.688C22.1475 174.155 22.625 173.745 23.2344 173.458C23.8496 173.165 24.5645 173.019 25.3789 173.019C26 173.019 26.5625 173.112 27.0664 173.3C27.5703 173.481 28.0039 173.751 28.3672 174.108C28.7305 174.46 29.0088 174.891 29.2021 175.4C29.3955 175.91 29.4922 176.493 29.4922 177.149H26.9697C26.9697 176.798 26.9316 176.487 26.8555 176.218C26.7793 175.948 26.668 175.723 26.5215 175.541C26.3809 175.359 26.2109 175.225 26.0117 175.137C25.8125 175.043 25.5928 174.996 25.3525 174.996C24.9951 174.996 24.7021 175.066 24.4736 175.207C24.2451 175.348 24.0781 175.538 23.9727 175.778C23.873 176.013 23.8232 176.282 23.8232 176.587C23.8232 176.886 23.876 177.146 23.9814 177.369C24.0928 177.592 24.2832 177.797 24.5527 177.984C24.8223 178.166 25.1914 178.354 25.6602 178.547C26.4219 178.84 27.0898 179.156 27.6641 179.496C28.2383 179.836 28.6865 180.252 29.0088 180.744C29.3311 181.236 29.4922 181.863 29.4922 182.625C29.4922 183.381 29.3164 184.025 28.9648 184.559C28.6133 185.086 28.1211 185.49 27.4883 185.771C26.8555 186.047 26.123 186.185 25.291 186.185C24.752 186.185 24.2158 186.114 23.6826 185.974C23.1494 185.827 22.666 185.593 22.2324 185.271C21.7988 184.948 21.4531 184.521 21.1953 183.987C20.9375 183.448 20.8086 182.786 20.8086 182.001H23.3398C23.3398 182.429 23.3955 182.786 23.5068 183.073C23.6182 183.354 23.7646 183.58 23.9463 183.75C24.1338 183.914 24.3447 184.031 24.5791 184.102C24.8135 184.172 25.0508 184.207 25.291 184.207C25.666 184.207 25.9736 184.14 26.2139 184.005C26.46 183.87 26.6445 183.686 26.7676 183.451C26.8965 183.211 26.9609 182.941 26.9609 182.643ZM37.6848 173.177V186H35.1535V176.095L32.1125 177.062V175.066L37.4123 173.177H37.6848ZM50.9047 184.022V186H42.1508V184.312L46.2904 179.874C46.7064 179.411 47.0346 179.004 47.2748 178.652C47.515 178.295 47.6879 177.976 47.7934 177.694C47.9047 177.407 47.9604 177.135 47.9604 176.877C47.9604 176.49 47.8959 176.159 47.767 175.884C47.6381 175.603 47.4477 175.386 47.1957 175.233C46.9496 175.081 46.6449 175.005 46.2816 175.005C45.8949 175.005 45.5609 175.099 45.2797 175.286C45.0043 175.474 44.7934 175.734 44.6469 176.068C44.5063 176.402 44.4359 176.78 44.4359 177.202H41.8959C41.8959 176.44 42.0775 175.743 42.4408 175.11C42.8041 174.472 43.3168 173.965 43.9789 173.59C44.641 173.209 45.4262 173.019 46.3344 173.019C47.2309 173.019 47.9867 173.165 48.602 173.458C49.223 173.745 49.6918 174.161 50.0082 174.706C50.3305 175.245 50.4916 175.89 50.4916 176.64C50.4916 177.062 50.4242 177.475 50.2895 177.879C50.1547 178.277 49.9613 178.676 49.7094 179.074C49.4633 179.467 49.1645 179.865 48.8129 180.27C48.4613 180.674 48.0717 181.093 47.6439 181.526L45.4203 184.022H50.9047ZM55.2916 183.864L55.2828 185.561C55.2828 186.211 55.1187 186.867 54.7906 187.529C54.4684 188.191 54.0582 188.733 53.5602 189.155L52.2418 188.479C52.3883 188.209 52.5318 187.939 52.6725 187.67C52.8131 187.4 52.9303 187.104 53.024 186.782C53.1178 186.46 53.1646 186.094 53.1646 185.684V183.864H55.2916ZM64.6807 180.173L62.6592 179.689L63.3887 173.203H70.5781V175.251H65.4717L65.1553 178.09C65.3252 177.99 65.583 177.885 65.9287 177.773C66.2744 177.656 66.6611 177.598 67.0889 177.598C67.71 177.598 68.2607 177.694 68.7412 177.888C69.2217 178.081 69.6289 178.362 69.9629 178.731C70.3027 179.101 70.5605 179.552 70.7363 180.085C70.9121 180.618 71 181.222 71 181.896C71 182.464 70.9121 183.006 70.7363 183.521C70.5605 184.031 70.2939 184.488 69.9365 184.893C69.5791 185.291 69.1309 185.604 68.5918 185.833C68.0527 186.062 67.4141 186.176 66.6758 186.176C66.125 186.176 65.5918 186.094 65.0762 185.93C64.5664 185.766 64.1064 185.522 63.6963 185.2C63.292 184.878 62.9668 184.488 62.7207 184.031C62.4805 183.568 62.3545 183.041 62.3428 182.449H64.8564C64.8916 182.812 64.9854 183.126 65.1377 183.39C65.2959 183.647 65.5039 183.847 65.7617 183.987C66.0195 184.128 66.3213 184.198 66.667 184.198C66.9893 184.198 67.2646 184.137 67.4932 184.014C67.7217 183.891 67.9062 183.721 68.0469 183.504C68.1875 183.281 68.29 183.023 68.3545 182.73C68.4248 182.432 68.46 182.109 68.46 181.764C68.46 181.418 68.4189 181.104 68.3369 180.823C68.2549 180.542 68.1289 180.299 67.959 180.094C67.7891 179.889 67.5723 179.73 67.3086 179.619C67.0508 179.508 66.749 179.452 66.4033 179.452C65.9346 179.452 65.5713 179.525 65.3135 179.672C65.0615 179.818 64.8506 179.985 64.6807 180.173ZM79.465 173.071H79.8342V175.093H79.6848C79.0168 175.093 78.4221 175.192 77.9006 175.392C77.3791 175.591 76.9367 175.875 76.5734 176.244C76.216 176.607 75.9406 177.047 75.7473 177.562C75.5598 178.078 75.466 178.655 75.466 179.294V181.421C75.466 181.878 75.51 182.282 75.5979 182.634C75.6916 182.979 75.8234 183.27 75.9934 183.504C76.1691 183.732 76.3742 183.905 76.6086 184.022C76.843 184.134 77.1066 184.189 77.3996 184.189C77.675 184.189 77.924 184.131 78.1467 184.014C78.3752 183.896 78.5686 183.732 78.7268 183.521C78.8908 183.305 79.0139 183.053 79.0959 182.766C79.1838 182.473 79.2277 182.153 79.2277 181.808C79.2277 181.462 79.1838 181.143 79.0959 180.85C79.0139 180.557 78.8908 180.305 78.7268 180.094C78.5627 179.877 78.3635 179.71 78.1291 179.593C77.8947 179.476 77.6311 179.417 77.3381 179.417C76.9396 179.417 76.5881 179.511 76.2834 179.698C75.9846 179.88 75.7502 180.114 75.5803 180.401C75.4104 180.688 75.3195 180.99 75.3078 181.307L74.5432 180.814C74.5607 180.363 74.6545 179.936 74.8244 179.531C75.0002 179.127 75.2404 178.77 75.5451 178.459C75.8557 178.143 76.2277 177.896 76.6613 177.721C77.0949 177.539 77.5842 177.448 78.1291 177.448C78.7268 177.448 79.2512 177.562 79.7023 177.791C80.1594 178.02 80.5402 178.333 80.8449 178.731C81.1496 179.13 81.3781 179.59 81.5305 180.111C81.6828 180.633 81.759 181.189 81.759 181.781C81.759 182.402 81.6564 182.979 81.4514 183.513C81.2521 184.046 80.9621 184.512 80.5812 184.91C80.2062 185.309 79.7551 185.619 79.2277 185.842C78.7004 186.064 78.1086 186.176 77.4523 186.176C76.7727 186.176 76.1545 186.053 75.5979 185.807C75.0471 185.555 74.5725 185.203 74.174 184.752C73.7756 184.301 73.468 183.765 73.2512 183.144C73.0402 182.522 72.9348 181.843 72.9348 181.104V180.12C72.9348 179.089 73.0842 178.146 73.383 177.29C73.6877 176.429 74.1242 175.685 74.6926 175.058C75.2609 174.425 75.9465 173.936 76.7492 173.59C77.552 173.244 78.4572 173.071 79.465 173.071ZM85.3637 184.075H85.5307C86.2338 184.075 86.8373 183.99 87.3412 183.82C87.851 183.645 88.2699 183.393 88.598 183.064C88.9262 182.736 89.1693 182.335 89.3275 181.86C89.4857 181.38 89.5648 180.835 89.5648 180.226V177.8C89.5648 177.337 89.518 176.93 89.4242 176.578C89.3363 176.227 89.2074 175.937 89.0375 175.708C88.8734 175.474 88.6801 175.298 88.4574 175.181C88.2406 175.063 88.0004 175.005 87.7367 175.005C87.4555 175.005 87.2064 175.075 86.9896 175.216C86.7729 175.351 86.5883 175.535 86.4359 175.77C86.2895 176.004 86.1752 176.273 86.0932 176.578C86.017 176.877 85.9789 177.19 85.9789 177.519C85.9789 177.847 86.017 178.16 86.0932 178.459C86.1693 178.752 86.2836 179.013 86.4359 179.241C86.5883 179.464 86.7787 179.643 87.0072 179.777C87.2357 179.906 87.5053 179.971 87.8158 179.971C88.1146 179.971 88.3812 179.915 88.6156 179.804C88.8559 179.687 89.058 179.534 89.2221 179.347C89.392 179.159 89.5209 178.951 89.6088 178.723C89.7025 178.494 89.7494 178.263 89.7494 178.028L90.5844 178.485C90.5844 178.896 90.4965 179.3 90.3207 179.698C90.1449 180.097 89.8988 180.46 89.5824 180.788C89.2719 181.11 88.9115 181.368 88.5014 181.562C88.0912 181.755 87.6518 181.852 87.183 181.852C86.5854 181.852 86.0551 181.743 85.5922 181.526C85.1293 181.304 84.7367 180.999 84.4145 180.612C84.098 180.22 83.8578 179.763 83.6937 179.241C83.5297 178.72 83.4477 178.154 83.4477 177.545C83.4477 176.924 83.5473 176.341 83.7465 175.796C83.9516 175.251 84.2416 174.771 84.6166 174.354C84.9975 173.938 85.4516 173.613 85.9789 173.379C86.5121 173.139 87.1039 173.019 87.7543 173.019C88.4047 173.019 88.9965 173.145 89.5297 173.396C90.0629 173.648 90.5199 174.006 90.9008 174.469C91.2816 174.926 91.5746 175.474 91.7797 176.112C91.9906 176.751 92.0961 177.46 92.0961 178.239V179.118C92.0961 179.95 92.0053 180.724 91.8236 181.438C91.6479 182.153 91.3812 182.801 91.0238 183.381C90.6723 183.955 90.2328 184.447 89.7055 184.857C89.184 185.268 88.5775 185.581 87.8861 185.798C87.1947 186.015 86.4213 186.123 85.5658 186.123H85.3637V184.075ZM94.4352 184.778C94.4352 184.403 94.5641 184.09 94.8219 183.838C95.0855 183.586 95.4342 183.46 95.8678 183.46C96.3014 183.46 96.6471 183.586 96.9049 183.838C97.1686 184.09 97.3004 184.403 97.3004 184.778C97.3004 185.153 97.1686 185.467 96.9049 185.719C96.6471 185.971 96.3014 186.097 95.8678 186.097C95.4342 186.097 95.0855 185.971 94.8219 185.719C94.5641 185.467 94.4352 185.153 94.4352 184.778ZM108.341 178.477V180.691C108.341 181.652 108.238 182.481 108.033 183.179C107.828 183.87 107.532 184.438 107.145 184.884C106.764 185.323 106.31 185.648 105.783 185.859C105.256 186.07 104.67 186.176 104.025 186.176C103.51 186.176 103.029 186.111 102.584 185.982C102.138 185.848 101.737 185.64 101.38 185.358C101.028 185.077 100.723 184.723 100.466 184.295C100.214 183.861 100.02 183.346 99.8855 182.748C99.7508 182.15 99.6834 181.465 99.6834 180.691V178.477C99.6834 177.516 99.7859 176.692 99.991 176.007C100.202 175.315 100.498 174.75 100.879 174.311C101.265 173.871 101.722 173.549 102.25 173.344C102.777 173.133 103.363 173.027 104.008 173.027C104.523 173.027 105.001 173.095 105.44 173.229C105.886 173.358 106.287 173.561 106.644 173.836C107.002 174.111 107.306 174.466 107.558 174.899C107.81 175.327 108.004 175.84 108.138 176.438C108.273 177.029 108.341 177.709 108.341 178.477ZM105.801 181.025V178.134C105.801 177.671 105.774 177.267 105.721 176.921C105.675 176.575 105.601 176.282 105.502 176.042C105.402 175.796 105.279 175.597 105.133 175.444C104.986 175.292 104.819 175.181 104.632 175.11C104.444 175.04 104.236 175.005 104.008 175.005C103.721 175.005 103.466 175.061 103.243 175.172C103.026 175.283 102.842 175.462 102.689 175.708C102.537 175.948 102.42 176.271 102.338 176.675C102.262 177.073 102.223 177.56 102.223 178.134V181.025C102.223 181.488 102.247 181.896 102.294 182.247C102.346 182.599 102.423 182.9 102.522 183.152C102.628 183.398 102.751 183.601 102.891 183.759C103.038 183.911 103.205 184.022 103.392 184.093C103.586 184.163 103.797 184.198 104.025 184.198C104.306 184.198 104.555 184.143 104.772 184.031C104.995 183.914 105.182 183.732 105.335 183.486C105.493 183.234 105.61 182.906 105.686 182.502C105.762 182.098 105.801 181.605 105.801 181.025ZM118.977 178.477V180.691C118.977 181.652 118.874 182.481 118.669 183.179C118.464 183.87 118.168 184.438 117.781 184.884C117.4 185.323 116.946 185.648 116.419 185.859C115.892 186.07 115.306 186.176 114.661 186.176C114.146 186.176 113.665 186.111 113.22 185.982C112.774 185.848 112.373 185.64 112.016 185.358C111.664 185.077 111.359 184.723 111.102 184.295C110.85 183.861 110.656 183.346 110.521 182.748C110.387 182.15 110.319 181.465 110.319 180.691V178.477C110.319 177.516 110.422 176.692 110.627 176.007C110.838 175.315 111.134 174.75 111.515 174.311C111.901 173.871 112.358 173.549 112.886 173.344C113.413 173.133 113.999 173.027 114.644 173.027C115.159 173.027 115.637 173.095 116.076 173.229C116.521 173.358 116.923 173.561 117.28 173.836C117.638 174.111 117.942 174.466 118.194 174.899C118.446 175.327 118.64 175.84 118.774 176.438C118.909 177.029 118.977 177.709 118.977 178.477ZM116.437 181.025V178.134C116.437 177.671 116.41 177.267 116.357 176.921C116.311 176.575 116.237 176.282 116.138 176.042C116.038 175.796 115.915 175.597 115.769 175.444C115.622 175.292 115.455 175.181 115.268 175.11C115.08 175.04 114.872 175.005 114.644 175.005C114.356 175.005 114.102 175.061 113.879 175.172C113.662 175.283 113.478 175.462 113.325 175.708C113.173 175.948 113.056 176.271 112.974 176.675C112.897 177.073 112.859 177.56 112.859 178.134V181.025C112.859 181.488 112.883 181.896 112.93 182.247C112.982 182.599 113.059 182.9 113.158 183.152C113.264 183.398 113.387 183.601 113.527 183.759C113.674 183.911 113.841 184.022 114.028 184.093C114.222 184.163 114.433 184.198 114.661 184.198C114.942 184.198 115.191 184.143 115.408 184.031C115.631 183.914 115.818 183.732 115.971 183.486C116.129 183.234 116.246 182.906 116.322 182.502C116.398 182.098 116.437 181.605 116.437 181.025Z" fill="white"/>
<g opacity="0.5">
<path d="M147 181.333C147.736 181.333 148.333 180.736 148.333 180C148.333 179.264 147.736 178.667 147 178.667C146.264 178.667 145.667 179.264 145.667 180C145.667 180.736 146.264 181.333 147 181.333Z" stroke="white" stroke-width="1.5" stroke-linecap="round" stroke-linejoin="round"/>
<path d="M153.667 180C151.889 183.111 149.667 184.667 147 184.667C144.333 184.667 142.111 183.111 140.333 180C142.111 176.889 144.333 175.333 147 175.333C149.667 175.333 151.889 176.889 153.667 180Z" stroke="white" stroke-width="1.5" stroke-linecap="round" stroke-linejoin="round"/>
</g>
<defs>
<linearGradient id="paint0_linear_2_2722" x1="20" y1="24" x2="52" y2="48.5" gradientUnits="userSpaceOnUse">
<stop stop-color="#E6AC3C"/>
<stop offset="1" stop-color="#FFDA93"/>
</linearGradient>
</defs>
</svg>
